/* XPM */
static char *_313649368ee40cdb52ba6ea05ff36f6AGB28Ot5TXwz8VTb[] = {
/* columns rows colors chars-per-pixel */
"33 32 11 1 ",
"  c #686557",
". c #020202",
"X c #DF84D6",
"o c #FFDDB3",
"O c #91578B",
"+ c #C03A24",
"@ c #E27D2D",
"# c #23355D",
"$ c #2D597B",
"% c #367C98",
"& c white",
/* pixels */
"          ................       ",
"          ................       ",
"      ....XXXXXXXXXXXXXXXX..     ",
"      ....XXXXXXXXXXXXXXXX..     ",
"    ..XXXXXXXXXXXXXXXXXXXXXX..   ",
"    ..XXXXXXXXXXXXXXXXXXXXXX..   ",
"  ..XXXXooXXooXXXXXXXXXXXXXXOO.. ",
"  ..XXXXooXXooXXXXXXXXXXXXXXOO.. ",
"  ..XXXXooXXooXXXXXXXX++XXOOOO.. ",
"  ..XXXXooXXooXXXXXXXX++XXOOOO.. ",
"  ..OOXXXXXXXXXXXXXX++++++OOOO.. ",
"  ..OOXXXXXXXXXXXXXX++++++OOOO.. ",
"  ..OOOOOOXXXXXXXX++@@@@@@++OO.. ",
"  ..OOOOOOXXXXXXXX++@@@@@@++OO.. ",
"  ..OOOOOO++++++++@@@@@@@@@@OO.. ",
"  ..OOOOOO++++++++@@@@@@@@@@OO.. ",
"  ..OOOOOO++....@@@@@@....@@OO.. ",
"  ..OOOOOO++....@@@@@@....@@OO.. ",
"  ..OOOOOO++@@@@@@@@@@@@@@@@OO.. ",
"  ..OOOOOO++@@@@@@@@@@@@@@@@OO.. ",
"  ..OOOOOOOO++@@......@@++...... ",
"  ..OOOOOOOO++@@......@@++...... ",
"  ..OOOOOOOOOO++++++++++..++++.. ",
"  ..OOOOOOOOOO++++++++++..++++.. ",
"  ....OOOOOO##$$$$$$##%%..++++.. ",
"  ....OOOOOO##$$$$$$##%%..++++.. ",
"  ..########$$%%%%%%%%%%%%..@@.. ",
"  ..########$$%%%%%%%%%%%%..@@.. ",
"    ..##$$$$%%%%%%%%%%%%%%..@@   ",
"    ..##$$$$%%%%%%%%%%%%%%..@@   ",
"                                 ",
"                                 "
};
