/* XPM */
static char *result[] = {
/* columns rows colors chars-per-pixel */
"48 40 7 1 ",
"  c #3E394F",
". c #566EBA",
"X c #6487C1",
"o c #6E97C8",
"O c #7CB6D0",
"+ c #A4E1E3",
"@ c None",
/* pixels */
"@@@@@@@@                                @@@@@@@@",
"@@@@@@@@                                @@@@@@@@",
"@@@@@@@@                                @@@@@@@@",
"@@@@@@@@                                @@@@@@@@",
"@@@@        XXXXooooOOOOOOOOOOOO++++++++    @@@@",
"@@@@        XXXXooooOOOOOOOOOOOO++++++++    @@@@",
"@@@@        XXXXooooOOOOOOOOOOOO++++++++    @@@@",
"@@@@        XXXXooooOOOOOOOOOOOO++++++++    @@@@",
"        XXXXooooOOOOOOOOOOOOOOOOOOOO++++++++    ",
"        XXXXooooOOOOOOOOOOOOOOOOOOOO++++++++    ",
"        XXXXooooOOOOOOOOOOOOOOOOOOOO++++++++    ",
"        XXXXooooOOOOOOOOOOOOOOOOOOOO++++++++    ",
"        ........ooooooooooooooooooooOOOOOOOO    ",
"        ........ooooooooooooooooooooOOOOOOOO    ",
"        ........ooooooooooooooooooooOOOOOOOO    ",
"        ........ooooooooooooooooooooOOOOOOOO    ",
"        ........XXXXooooooooooooooooOOOOOOOO    ",
"        ........XXXXooooooooooooooooOOOOOOOO    ",
"        ........XXXXooooooooooooooooOOOOOOOO    ",
"        ........XXXXooooooooooooooooOOOOOOOO    ",
"@@@@        ........ooooooooooooOOOOOOOO    @@@@",
"@@@@        ........ooooooooooooOOOOOOOO    @@@@",
"@@@@        ........ooooooooooooOOOOOOOO    @@@@",
"@@@@        ........ooooooooooooOOOOOOOO    @@@@",
"@@@@@@@@        ....XXXXooooooooOOOO    @@@@@@@@",
"@@@@@@@@        ....XXXXooooooooOOOO    @@@@@@@@",
"@@@@@@@@        ....XXXXooooooooOOOO    @@@@@@@@",
"@@@@@@@@        ....XXXXooooooooOOOO    @@@@@@@@",
"@@@@@@@@@@@@        ....XXXXOOOO    @@@@@@@@@@@@",
"@@@@@@@@@@@@        ....XXXXOOOO    @@@@@@@@@@@@",
"@@@@@@@@@@@@        ....XXXXOOOO    @@@@@@@@@@@@",
"@@@@@@@@@@@@        ....XXXXOOOO    @@@@@@@@@@@@",
"@@@@@@@@@@@@@@@@        ....    @@@@@@@@@@@@@@@@",
"@@@@@@@@@@@@@@@@        ....    @@@@@@@@@@@@@@@@",
"@@@@@@@@@@@@@@@@        ....    @@@@@@@@@@@@@@@@",
"@@@@@@@@@@@@@@@@        ....    @@@@@@@@@@@@@@@@",
"@@@@@@@@@@@@@@@@@@@@        @@@@@@@@@@@@@@@@@@@@",
"@@@@@@@@@@@@@@@@@@@@        @@@@@@@@@@@@@@@@@@@@",
"@@@@@@@@@@@@@@@@@@@@        @@@@@@@@@@@@@@@@@@@@",
"@@@@@@@@@@@@@@@@@@@@        @@@@@@@@@@@@@@@@@@@@"
};
