/* XPM */
static char *result[] = {
/* columns rows colors chars-per-pixel */
"74 52 22 1 ",
"  c #39334D",
". c #33657D",
"X c #AB3B5C",
"o c #CA504B",
"O c #D45540",
"+ c #D46A59",
"@ c #C48B7A",
"# c #E08067",
"$ c #E18F64",
"% c #E89F7B",
"& c #667E93",
"* c #458A91",
"= c #5AAA9E",
"- c #7D90A1",
"; c #94AAB6",
": c #D9B4A1",
"> c #EEC589",
", c #FCEFB3",
"< c #ADC3C8",
"1 c #E9D7C3",
"2 c None",
"3 c #F3F7F6",
/* pixels */
"222222222222222222222222222222        2222            22    22222222222222",
"222222222222222222222222222222        2222            22    22222222222222",
"2222222222222222222222222222  OO$$>>$$    $$>>>>,,>>,,  ,,>>  222222222222",
"2222222222222222222222222222  OO$$>>$$    $$>>>>,,>>,,  ,,>>  222222222222",
"2222222222222222222222222222  $$$$>>>>    >>>>      ,,  ,,,,  222222222222",
"2222222222222222222222222222  $$$$>>>>    >>>>      ,,  ,,,,  222222222222",
"2222222222222222222222222222  $$$$>>>>$$>>>>>>$$  $$,,>>,,,,  222222222222",
"2222222222222222222222222222  $$$$>>>>$$>>>>>>$$  $$,,>>,,,,  222222222222",
"2222222222222222222222222222  OO$$>>>>$$>>>>>>>>>>>>,,>>,,>>  222222222222",
"2222222222222222222222222222  OO$$>>>>$$>>>>>>>>>>>>,,>>,,>>  222222222222",
"2222222222222222222222222222                                  222222222222",
"2222222222222222222222222222                                  222222222222",
"22222222222222222222222222  &&--  &&----<<  <<<<<<  33<<  3333  2222222222",
"22222222222222222222222222  &&--  &&----<<  <<<<<<  33<<  3333  2222222222",
"22222222222222222222222222                                      2222222222",
"22222222222222222222222222                                      2222222222",
"22222222222222222222222222    XXoooooooooo@@::::::::::@@oooo    2222222222",
"22222222222222222222222222    XXoooooooooo@@::::::::::@@oooo    2222222222",
"2222222222222222222222222222  oooooooo++::  1111111111  ::++  222222222222",
"2222222222222222222222222222  oooooooo++::  1111111111  ::++  222222222222",
"2222222222222222222222222222  oooo++####111111########1111##  222222222222",
"2222222222222222222222222222  oooo++####111111########1111##  222222222222",
"2222222222222222222222222222  XXoo##############    ########  222222222222",
"2222222222222222222222222222  XXoo##############    ########  222222222222",
"2222222222222222222222222222    oo++oo######%%##%%%%%%######  222222222222",
"2222222222222222222222222222    oo++oo######%%##%%%%%%######  222222222222",
"22                  22222222      oooo######################  222222222222",
"22                  22222222      oooo######################  222222222222",
"  33<<333333<<33<<;;  2222  ::@@  XX  ++oo################++  222222222222",
"  33<<333333<<33<<;;  2222  ::@@  XX  ++oo################++  222222222222",
"  <<;;;;;;;;;;;;;;--  22  1111::      oooo##++oo####++oo++oo    2222222222",
"  <<;;;;;;;;;;;;;;--  22  1111::      oooo##++oo####++oo++oo    2222222222",
"  <<;;<<;;;;;;<<;;--  22  1111::@@    XX  oooooooooooo  oooo  11  22222222",
"  <<;;<<;;;;;;<<;;--  22  1111::@@    XX  oooooooooooo  oooo  11  22222222",
"  <<;;--;;;;;;--;;--  22  11    @@@@      XXoo  XXooXX  XX    ::  22    22",
"  <<;;--;;;;;;--;;--  22  11    @@@@      XXoo  XXooXX  XX    ::  22    22",
"  <<;;;;;;;;;;;;;;--                                                <<33  ",
"  <<;;;;;;;;;;;;;;--                                                <<33  ",
"  <<;;;;;;;;;;;;;;--      &&&&;;;;;;<<<<<<33<<333333<<<<;;;;;;&&    ;;<<  ",
"  <<;;;;;;;;;;;;;;--      &&&&;;;;;;<<<<<<33<<333333<<<<;;;;;;&&    ;;<<  ",
"  <<;;;;;;;;;;;;;;--                                                &&;;  ",
"  <<;;;;;;;;;;;;;;--                                                &&;;  ",
"  <<;;;;;;;;;;;;;;--  22222222                              22222222    22",
"  <<;;;;;;;;;;;;;;--  22222222                              22222222    22",
"  <<;;<<;;;;;;<<;;--  22222222  ..********====**==******..  22222222222222",
"  <<;;<<;;;;;;<<;;--  22222222  ..********====**==******..  22222222222222",
"  <<;;--;;;;;;--;;--  22222222  **..                  ..**  22222222222222",
"  <<;;--;;;;;;--;;--  22222222  **..                  ..**  22222222222222",
"  ;;--------------&&  22222222  ..  222222222222222222  ..  22222222222222",
"  ;;--------------&&  22222222  ..  222222222222222222  ..  22222222222222",
"22                  2222222222    22222222222222222222    2222222222222222",
"22                  2222222222    22222222222222222222    2222222222222222"
};
