/* XPM */
static char *result[] = {
/* columns rows colors chars-per-pixel */
"64 52 23 1 ",
"  c None",
". c #7991A4",
"X c #EED7C1",
"o c #EF8B5A",
"O c #DD4243",
"+ c #A8C5CA",
"@ c #F6C580",
"# c #372E4E",
"$ c #8FACB8",
"% c #F07B60",
"& c #F2F7F6",
"* c #E2B39F",
"= c #FFEFAC",
"- c #E76150",
"; c #188D94",
": c #BC2A5C",
"> c #5F8096",
", c #D08977",
"< c #126681",
"1 c #F59C75",
"2 c #2DAE9F",
"3 c #E74732",
"4 c #E93F3B",
/* pixels */
"      ####  ############    ########                            ",
"      ####  ############    ########                            ",
"    ##@@==##==@@==@@@@oo####oo@@oo33##                          ",
"    ##@@==##==@@==@@@@oo####oo@@oo33##                          ",
"    ##====##==######@@@@####@@@@oooo##                          ",
"    ##====##==######@@@@####@@@@oooo##                          ",
"    ##====@@==oo##oo@@@@@@oo@@@@oooo##                          ",
"    ##====@@==oo##oo@@@@@@oo@@@@oooo##                          ",
"    ##@@==@@==@@@@@@@@@@@@oo@@@@oo33##                          ",
"    ##@@==@@==@@@@@@@@@@@@oo@@@@oo33##                          ",
"    ##################################                          ",
"    ##################################                          ",
"  ##&&&&##++&&##++++++##++....>>##..>>##                        ",
"  ##&&&&##++&&##++++++##++....>>##..>>##                        ",
"  ######################################                        ",
"  ######################################                        ",
"  ####OOOO,,**********,,OOOOOOOOOO::####                        ",
"  ####OOOO,,**********,,OOOOOOOOOO::####                        ",
"    ##--**##XXXXXXXXXX##**--OOOOOOOO##                          ",
"    ##--**##XXXXXXXXXX##**--OOOOOOOO##                          ",
"    ##%%XXXX%%%%%%%%XXXXXX%%%%--OOOO##                          ",
"    ##%%XXXX%%%%%%%%XXXXXX%%%%--OOOO##                          ",
"    ##%%%%%%%%####%%%%%%%%%%%%%%OO::##                          ",
"    ##%%%%%%%%####%%%%%%%%%%%%%%OO::##                          ",
"    ##%%%%%%111111%%11%%%%%-44--OO####                          ",
"    ##%%%%%%111111%%11%%%%%-44--OO####                          ",
"    ##%%%%%%%%%%%%%%%%%%%%%%4OOO######        ################  ",
"    ##%%%%%%%%%%%%%%%%%%%%%%OOOO######        ################  ",
"    ##--%%%%%%%%%%%%%%%%OO--##::##,,**##    ##$$++&&++&&&&++&&##",
"    ##--%%%%%%%%%%%%%%%%OO--##::##,,**##    ##$$++&&++&&&&++&&##",
"  ####OO--OO--%%%%OO--%%OOOO######**XXXX##  ##..$$$$$$$$$$$$++##",
"  ####OO--OO--%%%%OO--%%OOOO######**XXXX##  ##..$$$$$$$$$$$$++##",
"##XX##OOOO##OOOOOOOOOOOO##::####,,**XXXX##  ##..$$++$$$$$$++++##",
"##XX##OOOO##OOOOOOOOOOOO##::####,,**XXXX##  ##..$$++$$$$$$++++##",
"##**####::##::OO::##OO::######,,,,####XX##  ##..$$..$$$$$$..++##",
"##**####::##::OO::##OO::######,,,,####XX##  ##..$$..$$$$$$..++##",
"##############################################..$$$$$$$$$$$$++##",
"##############################################..$$$$$$$$$$$$++##",
"##>>$$$$$$++++&&&&&&++&&++++++$$$$$$>>>>######..$$$$$$$$$$$$++##",
"##>>$$$$$$++++&&&&&&++&&++++++$$$$$$>>>>######..$$$$$$$$$$$$++##",
"##############################################..$$$$$$$$$$$$++##",
"##############################################..$$$$$$$$$$$$++##",
"      ##############################        ##..$$$$$$$$$$$$++##",
"      ##############################        ##..$$$$$$$$$$$$++##",
"      ##<<;;;;;;22;;2222;;;;;;;;<<##        ##..$$++$$$$$$++++##",
"      ##<<;;;;;;22;;2222;;;;;;;;<<##        ##..$$++$$$$$$++++##",
"      ##;;<<##################<<;;##        ##..$$..$$$$$$..++##",
"      ##;;<<##################<<;;##        ##..$$..$$$$$$..++##",
"      ##<<##                  ##<<##        ##>>............$$##",
"      ##<<##                  ##<<##        ##>>............$$##",
"        ####                    ####          ################  ",
"        ####                    ####          ################  "
};
