/* XPM */
static char *result[] = {
/* columns rows colors chars-per-pixel */
"64 64 6 1 ",
"  c #6A5866",
". c #A5747D",
"X c #B08386",
"o c #BD9893",
"O c #CDB4A9",
"+ c #DBCCC1",
/* pixels */
"                                                                ",
"                                                                ",
"..ooooooooOOOOOOOOOOooooOOoooooooooooooooooooooooooooooooooo..  ",
"..ooooooooOOOOOOOOOOooooOOoooooooooooooooooooooooooooooooooo..  ",
"oooooooooooooooooooooooooooooooooooooooooooooooooooooooooooooo  ",
"oooooooooooooooooooooooooooooooooooooooooooooooooooooooooooooo  ",
"oooooooooooooooooooooooooooooooooooooooo..oo..........oooo      ",
"oooooooooooooooooooooooooooooooooooooooo..oo..........oooo      ",
"ooooooooooooooooooooooooooooooooooooooooooOOooOOOOOOooooooooXX  ",
"ooooooooooooooooooooooooooooooooooooooooooOOooOOOOOOooooooooXX  ",
"oooooooooooooooooooooooooooooooooooooooooooooooooooooooooooooo  ",
"oooooooooooooooooooooooooooooooooooooooooooooooooooooooooooooo  ",
"oooooooooooooooooooooooooooooooooooooooooooooooooooooooooooooo  ",
"oooooooooooooooooooooooooooooooooooooooooooooooooooooooooooooo  ",
"..oooooooooooooooooooooooooooooooooooooooooooooooooooooooooo..  ",
"..oooooooooooooooooooooooooooooooooooooooooooooooooooooooooo..  ",
"                                                                ",
"                                                                ",
"OOOOOOoooooooooooooooooooooo..  ..ooooooOOooOOOOOOOOOOoooooooooo",
"OOOOOOoooooooooooooooooooooo..  ..ooooooOOooOOOOOOOOOOoooooooooo",
"oooooooooooooooooooooooooooooo  oooooooooooooooooooooooooooooooo",
"oooooooooooooooooooooooooooooo  oooooooooooooooooooooooooooooooo",
"oooooooooooooo....oo..oooo      oooooooooooooooooooooooooooooooo",
"oooooooooooooo....oo..oooo      oooooooooooooooooooooooooooooooo",
"ooooooooooooOOooOOOOooooooooXX  oooooooooooooooooooooooooooooooo",
"ooooooooooooOOooOOOOooooooooXX  oooooooooooooooooooooooooooooooo",
"oooooooooooooooooooooooooooooo  oooooooooooooooooooooooooooooooo",
"oooooooooooooooooooooooooooooo  oooooooooooooooooooooooooooooooo",
"oooooooooooooooooooooooooooooo  oooooooooooooooooooooooooooooooo",
"oooooooooooooooooooooooooooooo  oooooooooooooooooooooooooooooooo",
"oooooooooooooooooooooooooooo..  ..oooooooooooooooooooooooooooooo",
"oooooooooooooooooooooooooooo..  ..oooooooooooooooooooooooooooooo",
"                                                                ",
"                                                                ",
"..ooooooOOooOOOO++++++OOooOOOOoooooooooooooooooooooooooooooo..  ",
"..ooooooOOooOOOO++++++OOooOOOOoooooooooooooooooooooooooooooo..  ",
"oooooooooooooooooooooooooooooooooooooooooooooooooooooooooooooo  ",
"oooooooooooooooooooooooooooooooooooooooooooooooooooooooooooooo  ",
"oooooooooooooooooooooooooooooooooooooooooooooooooooooooooooooo  ",
"oooooooooooooooooooooooooooooooooooooooooooooooooooooooooooooo  ",
"ooooooooooooooooooooooooooooooooooooooooooooooooooooooooooooXX  ",
"ooooooooooooooooooooooooooooooooooooooooooooooooooooooooooooXX  ",
"oooooooooooooooooooooooooooooooooooooooooooo....oo..oo          ",
"oooooooooooooooooooooooooooooooooooooooooooo....oo..oo          ",
"ooooooooooooooooooooooooooooooooooooooooooooooooOOooOOOOoooooo  ",
"ooooooooooooooooooooooooooooooooooooooooooooooooOOooOOOOoooooo  ",
"..oooooooooooooooooooooooooooooooooooooooooooooooooooooooooo..  ",
"..oooooooooooooooooooooooooooooooooooooooooooooooooooooooooo..  ",
"                                                                ",
"                                                                ",
"oooooooooooooooooooooooooooo..  ..ooooooOOooOOOOOO++++++OOOOoooo",
"oooooooooooooooooooooooooooo..  ..ooooooOOooOOOOOO++++++OOOOoooo",
"oooooooooooooooooooooooooooooo  oooooooooooooooooooooooooooooooo",
"oooooooooooooooooooooooooooooo  oooooooooooooooooooooooooooooooo",
"oooooooo......oooo..oooo        oooooooooooooooooooooooooooooooo",
"oooooooo......oooo..oooo        oooooooooooooooooooooooooooooooo",
"ooooooooooOOooooooOOOOooOOooXX  oooooooooooooooooooooooooooooooo",
"ooooooooooOOooooooOOOOooOOooXX  oooooooooooooooooooooooooooooooo",
"oooooooooooooooooooooooooooooo  oooooooooooooooooooooooooooooooo",
"oooooooooooooooooooooooooooooo  oooooooooooooooooooooooooooooooo",
"oooooooooooooooooooooooooooooo  oooooooooooooooooooooooooooooooo",
"oooooooooooooooooooooooooooooo  oooooooooooooooooooooooooooooooo",
"oooooooooooooooooooooooooooo..  ..oooooooooooooooooooooooooooooo",
"oooooooooooooooooooooooooooo..  ..oooooooooooooooooooooooooooooo"
};
