/* XPM */
static char *result[] = {
/* columns rows colors chars-per-pixel */
"46 56 14 1 ",
"  c #6E5967",
". c #926475",
"X c #AD707B",
"o c #D2727E",
"O c #5D7889",
"+ c #728896",
"@ c #B98080",
"# c #86A0A8",
"$ c #C39490",
"% c #E28989",
"& c #EDA799",
"* c #FBCAAE",
"= c #FAEBCF",
"- c None",
/* pixels */
"---------                            ---------",
"-------  *& &***=*==*& &***=*===*& &*  -------",
"-----  &*** ********** *********** ***&  -----",
"---- &==*** ********** *********** ***==& ----",
"--- &=****& &********& &*********& &****=& ---",
"-- &=***&%% %%%%%%%%%% %%%%%%%%%%% %%&***=& --",
"-- ****&%%o                        o%%&**** --",
"- &***&%%    .XXXXXXX.  O  .XXXXXX.  %%&***& -",
"- ****%%    .XXXXXXXXX  O  XXXXXXXX.  %%**** -",
" &***&%                 O              %&***& ",
" ****%%   .XXXXXXXXXX.  O              %%**** ",
" ****%   .XX@$$$$$$$@X  +  X@$$$$$$$@X. %**** ",
" &**&%   XXX$$$$$$$$$X  +  X$$$$$$$$$XX %&**& ",
"                        O                     ",
" &**&%     X$$$$$$$$$$X + X$$$$$$$$X    %&**& ",
" ****%  O+O $$$$$$$$$$$ O $$$$$$$$$ O+O %**** ",
" =***%  +#+ $$$$$$$$$$$ + $$$$$$$$$ +#+ %***= ",
" =***%     X$$$$$$$$$$$ + $$$$$$$$$X    %***= ",
" ****%  X$$$$$$$$$$$$$X # X$$$$$$$$$$$X %**** ",
" =***%                  #               %***= ",
" ****%                  # X$$$$$$$$$$$X %**** ",
" ****%  .XXXXXXXXXXXXX. + $$$$$$$$$$$$$ %**** ",
" ****%  XXXXXXXXXXXXXXX # $$$$$$$$$$$$$ %**** ",
" &**&%  .XXXXXXXXXXXXX. + X$$$$$$$$$$$X %&**& ",
"                        +                     ",
" &**&%  X$$$$$$$$$$$$$X O X$$$$$$$$$$$X %&**& ",
" ****%  $$$$$$$$$$$$$$$ O $$$$$$$$$$$$$ %**** ",
" =***%  $$$$$$$$$$$$$X     X$$$$$$$$$$$ %***= ",
" =***%  X$$$$$$$$$$$@ ## ## @$$$$$$$$$X %***= ",
" ****%                +# +#             %**** ",
" =***%                +# +# X$$$$$$$$$X %***= ",
" ****%   .XXXXXXXXXX. +# +# $$$$$$$$$$$ %**** ",
" ****%   XXXXXXXXXXXX +# +# $$$$$$$$$$$ %**** ",
" ****%   .XXXXXXXXXX. +# +# X$$$$$$$$$X %**** ",
" &**&%                +# +#             %&**& ",
"        X$$$$$$$$$$$X +# +#                   ",
" &**&%  $$$$$$$$$$$$$ +# +# .XXXXXXXXX. %&**& ",
" ****%  $$$$$$$$$$$$$ +# +# XXXXXXXXXXX %**** ",
" =***%  X$$$$$$$$$$$X +# +# .XXXXXXXXX. %***= ",
" =***%                +# +#             %***= ",
" ****%  X$$$$$$$$$$$@ O# O# @$$$$$$$$$$ %**** ",
" =***%     X$$$$$$$$$X  O  X$$$$$$$X    %***= ",
" ****%  +#+ $$$$$$$$$$@ O @$$$$$$$$ +#+ %**** ",
" ****%  O+O $$$$$$$$$$$ + $$$$$$$$$ O+O %**** ",
" ****%     X$$$$$$$$$$X + $$$$$$$$$X    %**** ",
" &**&%                  +               %&**& ",
"        .XXXXXXXXXXXX.  O X$$$$$$$$$$$X       ",
" &**&%  XXXXXXXXXXXXXX  + $$$$$$$$$$$$$ %&**& ",
" ****%  .XXXXXXXXXXXX.  O $$$$$$$$$$$$$ %**** ",
" =***%                  + X$$$$$$$$$$$X %***= ",
" =***%                  O               %***= ",
" ****%  X$$$$$$$$$$$$$X O               %**** ",
" &**&%  $$$$$$$$$$$$$$$ O  XXXXXXXXXXXX %&**& ",
" %%%%o  X$$$$$$$$$$$$$X O  .XXXXXXXXXX. o%%%% ",
"                                              ",
"                                              "
};
