/* XPM */
static char *result[] = {
/* columns rows colors chars-per-pixel */
"92 112 14 1 ",
"  c #6A5A66",
". c #8B6674",
"X c #A4737B",
"o c #C5777F",
"O c #637787",
"+ c #778895",
"@ c #B08281",
"# c #BB9691",
"$ c #8B9FA7",
"% c #D58D8B",
"& c #E2AA9C",
"* c #F3CCB2",
"= c #F7EBD2",
"- c None",
/* pixels */
"------------------                                                        ------------------",
"------------------                                                        ------------------",
"--------------    **&&  &&******==**====**&&  &&******==**======**&&  &&**    --------------",
"--------------    **&&  &&******==**====**&&  &&******==**======**&&  &&**    --------------",
"----------    &&******  ********************  **********************  ******&&    ----------",
"----------    &&******  ********************  **********************  ******&&    ----------",
"--------  &&====******  ********************  **********************  ******====&&  --------",
"--------  &&====******  ********************  **********************  ******====&&  --------",
"------  &&==********&&  &&****************&&  &&******************&&  &&********==&&  ------",
"------  &&==********&&  &&****************&&  &&******************&&  &&********==&&  ------",
"----  &&==******&&%%%%  %%%%%%%%%%%%%%%%%%%%  %%%%%%%%%%%%%%%%%%%%%%  %%%%&&******==&&  ----",
"----  &&==******&&%%%%  %%%%%%%%%%%%%%%%%%%%  %%%%%%%%%%%%%%%%%%%%%%  %%%%&&******==&&  ----",
"----  ********&&%%%%oo                                                oo%%%%&&********  ----",
"----  ********&&%%%%oo                                                oo%%%%&&********  ----",
"--  &&******&&%%%%      ..XXXXXXXXXXXXXX..    OO    ..XXXXXXXXXXXX..      %%%%&&******&&  --",
"--  &&******&&%%%%      ..XXXXXXXXXXXXXX..    OO    ..XXXXXXXXXXXX..      %%%%&&******&&  --",
"--  ********%%%%      ..XXXXXXXXXXXXXXXXXX    OO    XXXXXXXXXXXXXXXX..      %%%%********  --",
"--  ********%%%%      ..XXXXXXXXXXXXXXXXXX    OO    XXXXXXXXXXXXXXXX..      %%%%********  --",
"  &&******&&%%                                OO                              %%&&******&&  ",
"  &&******&&%%                                OO                              %%&&******&&  ",
"  ********%%%%    ..XXXXXXXXXXXXXXXXXXXX..    OO                              %%%%********  ",
"  ********%%%%    ..XXXXXXXXXXXXXXXXXXXX..    OO                              %%%%********  ",
"  ********%%    ..XXXX@@##############@@XX    ++    XX@@##############@@XX..    %%********  ",
"  ********%%    ..XXXX@@##############@@XX    ++    XX@@##############@@XX..    %%********  ",
"  &&****&&%%    XXXXXX##################XX    ++    XX##################XXXX    %%&&****&&  ",
"  &&****&&%%    XXXXXX##################XX    ++    XX##################XXXX    %%&&****&&  ",
"                                              OO                                            ",
"                                              OO                                            ",
"  &&****&&%%        XX####################XX  ++  XX##################XX        %%&&****&&  ",
"  &&****&&%%        XX####################XX  ++  XX##################XX        %%&&****&&  ",
"  ********%%  OO++OO  ######################  OO  ####################  OO++OO  %%********  ",
"  ********%%  OO++OO  ######################  OO  ####################  OO++OO  %%********  ",
"  ==******%%  ++$$++  ######################  ++  ####################  ++$$++  %%******==  ",
"  ==******%%  ++$$++  ######################  ++  ####################  ++$$++  %%******==  ",
"  ==******%%        XX######################  ++  ####################XX        %%******==  ",
"  ==******%%        XX######################  ++  ####################XX        %%******==  ",
"  ********%%  XX##########################XX  $$  XX########################XX  %%********  ",
"  ********%%  XX##########################XX  $$  XX########################XX  %%********  ",
"  ==******%%                                  $$                                %%******==  ",
"  ==******%%                                  $$                                %%******==  ",
"  ********%%                                  $$  XX########################XX  %%********  ",
"  ********%%                                  $$  XX########################XX  %%********  ",
"  ********%%  ..XXXXXXXXXXXXXXXXXXXXXXXXXX..  ++  ############################  %%********  ",
"  ********%%  ..XXXXXXXXXXXXXXXXXXXXXXXXXX..  ++  ############################  %%********  ",
"  ********%%  XXXXXXXXXXXXXXXXXXXXXXXXXXXXXX  $$  ############################  %%********  ",
"  ********%%  XXXXXXXXXXXXXXXXXXXXXXXXXXXXXX  $$  ############################  %%********  ",
"  &&****&&%%  ..XXXXXXXXXXXXXXXXXXXXXXXXXX..  ++  XX########################XX  %%&&****&&  ",
"  &&****&&%%  ..XXXXXXXXXXXXXXXXXXXXXXXXXX..  ++  XX########################XX  %%&&****&&  ",
"                                              ++                                            ",
"                                              ++                                            ",
"  &&****&&%%  XX##########################XX  OO  XX########################XX  %%&&****&&  ",
"  &&****&&%%  XX##########################XX  OO  XX########################XX  %%&&****&&  ",
"  ********%%  ##############################  OO  ############################  %%********  ",
"  ********%%  ##############################  OO  ############################  %%********  ",
"  ==******%%  ##########################XX          XX########################  %%******==  ",
"  ==******%%  ##########################XX          XX########################  %%******==  ",
"  ==******%%  XX######################@@  $$$$  $$$$  @@####################XX  %%******==  ",
"  ==******%%  XX######################@@  $$$$  $$$$  @@####################XX  %%******==  ",
"  ********%%                              ++$$  ++$$                            %%********  ",
"  ********%%                              ++$$  ++$$                            %%********  ",
"  ==******%%                              ++$$  ++$$  XX####################XX  %%******==  ",
"  ==******%%                              ++$$  ++$$  XX####################XX  %%******==  ",
"  ********%%    ..XXXXXXXXXXXXXXXXXXXX..  ++$$  ++$$  ########################  %%********  ",
"  ********%%    ..XXXXXXXXXXXXXXXXXXXX..  ++$$  ++$$  ########################  %%********  ",
"  ********%%    XXXXXXXXXXXXXXXXXXXXXXXX  ++$$  ++$$  ########################  %%********  ",
"  ********%%    XXXXXXXXXXXXXXXXXXXXXXXX  ++$$  ++$$  ########################  %%********  ",
"  ********%%    ..XXXXXXXXXXXXXXXXXXXX..  ++$$  ++$$  XX####################XX  %%********  ",
"  ********%%    ..XXXXXXXXXXXXXXXXXXXX..  ++$$  ++$$  XX####################XX  %%********  ",
"  &&****&&%%                              ++$$  ++$$                            %%&&****&&  ",
"  &&****&&%%                              ++$$  ++$$                            %%&&****&&  ",
"              XX######################XX  ++$$  ++$$                                        ",
"              XX######################XX  ++$$  ++$$                                        ",
"  &&****&&%%  ##########################  ++$$  ++$$  ..XXXXXXXXXXXXXXXXXX..    %%&&****&&  ",
"  &&****&&%%  ##########################  ++$$  ++$$  ..XXXXXXXXXXXXXXXXXX..    %%&&****&&  ",
"  ********%%  ##########################  ++$$  ++$$  XXXXXXXXXXXXXXXXXXXXXX    %%********  ",
"  ********%%  ##########################  ++$$  ++$$  XXXXXXXXXXXXXXXXXXXXXX    %%********  ",
"  ==******%%  XX######################XX  ++$$  ++$$  ..XXXXXXXXXXXXXXXXXX..    %%******==  ",
"  ==******%%  XX######################XX  ++$$  ++$$  ..XXXXXXXXXXXXXXXXXX..    %%******==  ",
"  ==******%%                              ++$$  ++$$                            %%******==  ",
"  ==******%%                              ++$$  ++$$                            %%******==  ",
"  ********%%  XX######################@@  OO$$  OO$$  @@######################  %%********  ",
"  ********%%  XX######################@@  OO$$  OO$$  @@######################  %%********  ",
"  ==******%%        XX##################XX    OO    XX################XX        %%******==  ",
"  ==******%%        XX##################XX    OO    XX################XX        %%******==  ",
"  ********%%  ++$$++  ####################@@  OO  @@##################  ++$$++  %%********  ",
"  ********%%  ++$$++  ####################@@  OO  @@##################  ++$$++  %%********  ",
"  ********%%  OO++OO  ######################  ++  ####################  OO++OO  %%********  ",
"  ********%%  OO++OO  ######################  ++  ####################  OO++OO  %%********  ",
"  ********%%        XX####################XX  ++  ####################XX        %%********  ",
"  ********%%        XX####################XX  ++  ####################XX        %%********  ",
"  &&****&&%%                                  ++                                %%&&****&&  ",
"  &&****&&%%                                  ++                                %%&&****&&  ",
"              ..XXXXXXXXXXXXXXXXXXXXXXXX..    OO  XX########################XX              ",
"              ..XXXXXXXXXXXXXXXXXXXXXXXX..    OO  XX########################XX              ",
"  &&****&&%%  XXXXXXXXXXXXXXXXXXXXXXXXXXXX    ++  ############################  %%&&****&&  ",
"  &&****&&%%  XXXXXXXXXXXXXXXXXXXXXXXXXXXX    ++  ############################  %%&&****&&  ",
"  ********%%  ..XXXXXXXXXXXXXXXXXXXXXXXX..    OO  ############################  %%********  ",
"  ********%%  ..XXXXXXXXXXXXXXXXXXXXXXXX..    OO  ############################  %%********  ",
"  ==******%%                                  ++  XX########################XX  %%******==  ",
"  ==******%%                                  ++  XX########################XX  %%******==  ",
"  ==******%%                                  OO                                %%******==  ",
"  ==******%%                                  OO                                %%******==  ",
"  ********%%  XX##########################XX  OO                                %%********  ",
"  ********%%  XX##########################XX  OO                                %%********  ",
"  &&****&&%%  ##############################  OO    XXXXXXXXXXXXXXXXXXXXXXXX    %%&&****&&  ",
"  &&****&&%%  ##############################  OO    XXXXXXXXXXXXXXXXXXXXXXXX    %%&&****&&  ",
"  %%%%%%%%oo  XX##########################XX  OO    ..XXXXXXXXXXXXXXXXXXXX..    oo%%%%%%%%  ",
"  %%%%%%%%oo  XX##########################XX  OO    ..XXXXXXXXXXXXXXXXXXXX..    oo%%%%%%%%  ",
"                                                                                            ",
"                                                                                            ",
"                                                                                            ",
"                                                                                            "
};
