/* XPM */
static char *result[] = {
/* columns rows colors chars-per-pixel */
"46 56 12 1 ",
"  c #6E5967",
". c #926475",
"X c #AD707B",
"o c #D2727E",
"O c #5D7889",
"+ c #728896",
"@ c #86A0A8",
"# c #E28989",
"$ c #EDA799",
"% c #FBCAAE",
"& c #FAEBCF",
"* c None",
/* pixels */
"*********                            *********",
"*******  %$ $%%%&%&&%$ $%%%&%&&&%$ $%  *******",
"*****  $%%% %%%%%%%%%% %%%%%%%%%%% %%%$  *****",
"**** $&&%%% %%%%%%%%%% %%%%%%%%%%% %%%&&$ ****",
"*** $&%%%%$ $%%%%%%%%$ $%%%%%%%%%$ $%%%%&$ ***",
"** $&%%%$## ########## ########### ##$%%%&$ **",
"** %%%%$##o                        o##$%%%% **",
"* $%%%$##   X.                  .X   ##$%%%$ *",
"* %%%%##   .XX                  XX.   ##%%%% *",
" $%%%$#                                #$%%%$ ",
" %%%%##  .XX.                          ##%%%% ",
" %%%%#  .XXXX                     XXX.  #%%%% ",
" $%%$#  XXXX.                     .XXX  #$%%$ ",
"                                              ",
" $%%$#   .XXX.                   .XX.   #$%%$ ",
" %%%%# @O XXXX                   XXX O@ #%%%% ",
" &%%%# @+ XXXX                   XXX +@ #%%%& ",
" &%%%#   .XXXX                   XXX.   #%%%& ",
" %%%%# .XXXXX.                   .XXXX. #%%%% ",
" &%%%#                                  #%%%& ",
" %%%%#                          .XXXXX. #%%%% ",
" %%%%# .XXXX.                   XXXXXXX #%%%% ",
" %%%%# XXXXXX                   XXXXXXX #%%%% ",
" $%%$# .XXXX.                   .XXXXX. #$%%$ ",
"                                              ",
" $%%$# .XXX.                       .XX. #$%%$ ",
" %%%%# XXXXX                       XXXX #%%%% ",
" &%%%# XXXXX                       XXXX #%%%& ",
" &%%%# .XXX.  ++               ++  .XX. #%%%& ",
" %%%%#        O+               +O       #%%%% ",
" &%%%#        O+               +O   .X. #%%%& ",
" %%%%#  .XX   O+               +O   XXX #%%%% ",
" %%%%#  XXX   O+               +O   XXX #%%%% ",
" %%%%#  .XX   O+               +O   .X. #%%%% ",
" $%%$#        O+               +O       #$%%$ ",
"       .XXX.  O+               +O             ",
" $%%$# XXXXX  O+               +O  .X.  #$%%$ ",
" %%%%# XXXXX  O+               +O  XXX  #%%%% ",
" &%%%# .XXX.  O+               +O  .X.  #%%%& ",
" &%%%#        O+               +O       #%%%& ",
" %%%%# .XXX.  O+               +O .XXX. #%%%% ",
" &%%%#   .XX                      XX.   #%%%& ",
" %%%%# @+ XX                      XX +@ #%%%% ",
" %%%%# @O XX                      XX O@ #%%%% ",
" %%%%#   .X.                      .X.   #%%%% ",
" $%%$#                                  #$%%$ ",
"       .XXXX.                    .XXXX.       ",
" $%%$# XXXXXX                    XXXXXX #$%%$ ",
" %%%%# .XXXX.                    XXXXXX #%%%% ",
" &%%%#                           .XXXX. #%%%& ",
" &%%%#                                  #%%%& ",
" %%%%# .XXX.                            #%%%% ",
" $%%$# XXXXX                      .XXX  #$%%$ ",
" ####o .XXX.                      XXX.  o#### ",
"                                              ",
"                                              "
};
