/* XPM */
static char *result[] = {
/* columns rows colors chars-per-pixel */
"64 64 11 1 ",
"  c #3E394F",
". c #7E3C5B",
"X c #A14B50",
"o c #B15D57",
"O c #C25E58",
"+ c #C07767",
"@ c #D48472",
"# c #E1A585",
"$ c #F3CB9E",
"% c #FBEABD",
"& c #FEFADA",
/* pixels */
"  %%$$$$$$$$@@@@                                                ",
"  %%$$$$$$$$@@@@                                                ",
"  $$$$$$$$$$@@@@    ..XXXXXXooXX  XX++++++++++XX                ",
"  $$$$$$$$$$@@@@    ..XXXXXXooXX  XX++++++++++XX                ",
"  $$$$$$$$##@@@@    XXXXXXXX++++  ++++++++++++++                ",
"  $$$$$$$$##@@@@    XXXXXXXX++++  ++++++++++++++                ",
"  ##$$$$##@@@@@@    ..XXXXXXooXX  XX++++++++++XX                ",
"  ##$$$$##@@@@@@    ..XXXXXXooXX  XX++++++++++XX                ",
"  @@@@@@@@@@@@OO                                                ",
"  @@@@@@@@@@@@OO                                                ",
"                        ..oo++++++++++XX  XX++++XX              ",
"                        ..oo++++++++++XX  XX++++XX              ",
"  @@@@@@@@@@@@OO        XX++++++++++++++  ++++++++              ",
"  @@@@@@@@@@@@OO        XX++++++++++++++  ++++++++              ",
"  ##$$$$##@@@@@@        ..oo++++++++++XX  XX++++XX              ",
"  ##$$$$##@@@@@@        ..oo++++++++++XX  XX++++XX              ",
"  $$$$$$$$##@@@@                                                ",
"  $$$$$$$$##@@@@                                                ",
"  $$$$$$$$$$@@@@    ..XXXXXXooXX  XX++++++++++XX                ",
"  $$$$$$$$$$@@@@    ..XXXXXXooXX  XX++++++++++XX                ",
"  %%$$$$$$$$@@@@    XXXXXXXX++++  ++++++++++++++                ",
"  %%$$$$$$$$@@@@    XXXXXXXX++++  ++++++++++++++                ",
"  &&$$$$$$$$@@@@    ..XXXXXXooXX  XX++++++++++XX                ",
"  &&$$$$$$$$@@@@    ..XXXXXXooXX  XX++++++++++XX                ",
"  %%$$$$$$$$@@@@                                                ",
"  %%$$$$$$$$@@@@                                                ",
"  %%$$$$$$$$@@@@        ..oo++++++++++XX  XX++++XX              ",
"  %%$$$$$$$$@@@@        ..oo++++++++++XX  XX++++XX              ",
"  $$$$$$$$$$@@@@        XX++++++++++++++  ++++++++              ",
"  $$$$$$$$$$@@@@        XX++++++++++++++  ++++++++              ",
"  $$$$$$$$##@@@@        ..oo++++++++++XX  XX++++XX              ",
"  $$$$$$$$##@@@@        ..oo++++++++++XX  XX++++XX              ",
"  ##$$$$##@@@@@@                                                ",
"  ##$$$$##@@@@@@                                                ",
"  @@@@@@@@@@@@OO    ..XXXXXXooXX  XX++++++++++XX                ",
"  @@@@@@@@@@@@OO    ..XXXXXXooXX  XX++++++++++XX                ",
"                    XXXXXXXX++++  ++++++++++++++                ",
"                    XXXXXXXX++++  ++++++++++++++                ",
"  @@@@@@@@@@@@OO    ..XXXXXXooXX  XX++++++++++XX                ",
"  @@@@@@@@@@@@OO    ..XXXXXXooXX  XX++++++++++XX                ",
"  ##$$$$##@@@@@@                                                ",
"  ##$$$$##@@@@@@                                                ",
"  $$$$$$$$##@@@@        ..oo++++++++++XX  XX++++XX              ",
"  $$$$$$$$##@@@@        ..oo++++++++++XX  XX++++XX              ",
"  %%$$$$$$$$@@@@        XX++++++++++++++  ++++++++              ",
"  %%$$$$$$$$@@@@        XX++++++++++++++  ++++++++              ",
"  %%$$$$$$$$@@@@        ..oo++++++++++XX  XX++++XX              ",
"  %%$$$$$$$$@@@@        ..oo++++++++++XX  XX++++XX              ",
"  $$$$$$$$$$@@@@                                                ",
"  $$$$$$$$$$@@@@                                                ",
"  %%$$$$$$$$@@@@    ..XXXXXXooXX  XX++++++++++XX                ",
"  %%$$$$$$$$@@@@    ..XXXXXXooXX  XX++++++++++XX                ",
"  &&$$$$$$$$@@@@    XXXXXXXX++++  ++++++++++++++                ",
"  &&$$$$$$$$@@@@    XXXXXXXX++++  ++++++++++++++                ",
"  %%$$$$$$$$@@@@    ..XXXXXXooXX  XX++++++++++XX                ",
"  %%$$$$$$$$@@@@    ..XXXXXXooXX  XX++++++++++XX                ",
"  &&$$$$$$$$@@@@                                                ",
"  &&$$$$$$$$@@@@                                                ",
"  &&$$$$$$$$@@@@        ..oo++++++++++XX  XX++++XX              ",
"  &&$$$$$$$$@@@@        ..oo++++++++++XX  XX++++XX              ",
"  %%$$$$$$$$@@@@        XX++++++++++++++  ++++++++              ",
"  %%$$$$$$$$@@@@        XX++++++++++++++  ++++++++              ",
"  $$$$$$$$$$@@@@        ..oo++++++++++XX  XX++++XX              ",
"  $$$$$$$$$$@@@@        ..oo++++++++++XX  XX++++XX              "
};
