/* XPM */
static char *result[] = {
/* columns rows colors chars-per-pixel */
"64 64 11 1 ",
"  c #3E394F",
". c #7E3C5B",
"X c #A14B50",
"o c #B15D57",
"O c #C25E58",
"+ c #C07767",
"@ c #D48472",
"# c #E1A585",
"$ c #F3CB9E",
"% c #FBEABD",
"& c #FEFADA",
/* pixels */
"                                                @@@@$$$$$$$$$$  ",
"                                                @@@@$$$$$$$$$$  ",
"                  XX++++++++++XX  ooXXXXXX..    @@@@$$$$$$$$%%  ",
"                  XX++++++++++XX  ooXXXXXX..    @@@@$$$$$$$$%%  ",
"                  ++++++++++++++  ++XXXXXXXX    @@@@$$$$$$$$&&  ",
"                  ++++++++++++++  ++XXXXXXXX    @@@@$$$$$$$$&&  ",
"                  XX++++++++++XX  ooXXXXXX..    @@@@$$$$$$$$&&  ",
"                  XX++++++++++XX  ooXXXXXX..    @@@@$$$$$$$$&&  ",
"                                                @@@@$$$$$$$$%%  ",
"                                                @@@@$$$$$$$$%%  ",
"                oo++XX  XX++++++++++oo..        @@@@$$$$$$$$&&  ",
"                oo++XX  XX++++++++++oo..        @@@@$$$$$$$$&&  ",
"                ++++++  ++++++++++++++XX        @@@@$$$$$$$$%%  ",
"                ++++++  ++++++++++++++XX        @@@@$$$$$$$$%%  ",
"                XX++oo  XX++++++++++oo..        @@@@$$$$$$$$$$  ",
"                XX++oo  XX++++++++++oo..        @@@@$$$$$$$$$$  ",
"                                                @@@@$$$$$$$$%%  ",
"                                                @@@@$$$$$$$$%%  ",
"                  XX++++++++++XX  ooXXXXXX..    @@@@$$$$$$$$%%  ",
"                  XX++++++++++XX  ooXXXXXX..    @@@@$$$$$$$$%%  ",
"                  ++++++++++++++  ++XXXXXXXX    @@@@##$$$$$$$$  ",
"                  ++++++++++++++  ++XXXXXXXX    @@@@##$$$$$$$$  ",
"                  XX++++++++++XX  ooXXXXXX..    @@@@@@##$$$$##  ",
"                  XX++++++++++XX  ooXXXXXX..    @@@@@@##$$$$##  ",
"                                                OO@@@@@@@@@@@@  ",
"                                                OO@@@@@@@@@@@@  ",
"                oo++XX  XX++++++++++oo..                        ",
"                oo++XX  XX++++++++++oo..                        ",
"                ++++++  ++++++++++++++XX        OO@@@@@@@@@@@@  ",
"                ++++++  ++++++++++++++XX        OO@@@@@@@@@@@@  ",
"                XX++oo  XX++++++++++oo..        @@@@@@##$$$$##  ",
"                XX++oo  XX++++++++++oo..        @@@@@@##$$$$##  ",
"                                                @@@@##$$$$$$$$  ",
"                                                @@@@##$$$$$$$$  ",
"                  XX++++++++++XX  ooXXXXXX..    @@@@$$$$$$$$$$  ",
"                  XX++++++++++XX  ooXXXXXX..    @@@@$$$$$$$$$$  ",
"                  ++++++++++++++  ++XXXXXXXX    @@@@$$$$$$$$%%  ",
"                  ++++++++++++++  ++XXXXXXXX    @@@@$$$$$$$$%%  ",
"                  XX++++++++++XX  ooXXXXXX..    @@@@$$$$$$$$%%  ",
"                  XX++++++++++XX  ooXXXXXX..    @@@@$$$$$$$$%%  ",
"                                                @@@@$$$$$$$$&&  ",
"                                                @@@@$$$$$$$$&&  ",
"                oo++XX  XX++++++++++oo..        @@@@$$$$$$$$%%  ",
"                oo++XX  XX++++++++++oo..        @@@@$$$$$$$$%%  ",
"                ++++++  ++++++++++++++XX        @@@@$$$$$$$$$$  ",
"                ++++++  ++++++++++++++XX        @@@@$$$$$$$$$$  ",
"                XX++oo  XX++++++++++oo..        @@@@##$$$$$$$$  ",
"                XX++oo  XX++++++++++oo..        @@@@##$$$$$$$$  ",
"                                                @@@@@@##$$$$##  ",
"                                                @@@@@@##$$$$##  ",
"                  XX++++++++++XX  ooXXXXXX..    OO@@@@@@@@@@@@  ",
"                  XX++++++++++XX  ooXXXXXX..    OO@@@@@@@@@@@@  ",
"                  ++++++++++++++  ++XXXXXXXX                    ",
"                  ++++++++++++++  ++XXXXXXXX                    ",
"                  XX++++++++++XX  ooXXXXXX..    OO@@@@@@@@@@@@  ",
"                  XX++++++++++XX  ooXXXXXX..    OO@@@@@@@@@@@@  ",
"                                                @@@@@@##$$$$##  ",
"                                                @@@@@@##$$$$##  ",
"                oo++XX  XX++++++++++oo..        @@@@##$$$$$$$$  ",
"                oo++XX  XX++++++++++oo..        @@@@##$$$$$$$$  ",
"                ++++++  ++++++++++++++XX        @@@@$$$$$$$$$$  ",
"                ++++++  ++++++++++++++XX        @@@@$$$$$$$$$$  ",
"                XX++oo  XX++++++++++oo..        @@@@$$$$$$$$%%  ",
"                XX++oo  XX++++++++++oo..        @@@@$$$$$$$$%%  "
};
