/* XPM */
static char *result[] = {
/* columns rows colors chars-per-pixel */
"64 64 13 1 ",
"  c #3E394F",
". c #FBEABD",
"X c #FEFADA",
"o c #F3CB9E",
"O c #D48472",
"+ c #C25E58",
"@ c #7E3C5B",
"# c #A14B50",
"$ c #B15D57",
"% c #C07767",
"& c #E1A585",
"* c #924257",
"= c white",
/* pixels */
"                                                                ",
"                                                                ",
"  ..XX..ooooOO++    @@######$$##  ##%%%%%%%%##                  ",
"  ..XX..ooooOO++    @@######$$##  ##%%%%%%%%##                  ",
"  ooooooooooOOOO    ########%%%%  %%%%%%%%%%%%                  ",
"  ooooooooooOOOO    ########%%%%  %%%%%%%%%%%%                  ",
"  ooooooooooOOOO    @@######$$##  ##%%%%%%%%##                  ",
"  ooooooooooOOOO    @@######$$##  ##%%%%%%%%##                  ",
"  oooooooo&&OOOO                                                ",
"  oooooooo&&OOOO                                                ",
"  oooooo&&OOOOOO        @@$$%%%%%%%%%%##                        ",
"  oooooo&&OOOOOO        @@$$%%%%%%%%%%##                        ",
"  OOOOOOOOOOOOOO        ##%%%%%%%%%%%%%%                        ",
"  OOOOOOOOOOOOOO        ##%%%%%%%%%%%%%%                        ",
"  ++OOOOOOOOOO++        @@$$%%%%%%%%%%##                        ",
"  ++OOOOOOOOOO++        @@$$%%%%%%%%%%##                        ",
"                                                                ",
"                                                                ",
"                    @@######%%##  ##%%%%%%%%##                  ",
"                    @@######%%##  ##%%%%%%%%##                  ",
"  @@**########**@@  ########%%%%  %%%%%%%%%%%%                  ",
"  @@**########**@@  ########%%%%  %%%%%%%%%%%%                  ",
"  **############**  @@######%%##  ##%%%%%%%%##                  ",
"  **############**  @@######%%##  ##%%%%%%%%##                  ",
"                                                                ",
"                                                                ",
"########@@  @@########@@  ##%%%%%%%%%%%%##                      ",
"########@@  @@########@@  ##%%%%%%%%%%%%##                      ",
"%%%%%%%%$$  $$%%%%%%%%$$  %%%%%%%%%%%%%%%%                      ",
"%%%%%%%%$$  $$%%%%%%%%$$  %%%%%%%%%%%%%%%%                      ",
"%%%%%%%%##  ##%%%%%%%%##  ##%%%%%%%%%%%%##                      ",
"%%%%%%%%##  ##%%%%%%%%##  ##%%%%%%%%%%%%##                      ",
"                                                                ",
"                                                                ",
"  ##%%%%%%%%%%%%##                                              ",
"  ##%%%%%%%%%%%%##                                              ",
"  %%%%%%%%%%%%%%%%                                              ",
"  %%%%%%%%%%%%%%%%                                              ",
"  ##%%%%%%%%%%%%##                                              ",
"  ##%%%%%%%%%%%%##                                              ",
"                                                                ",
"                                                                ",
"%%%%%%%%##  $$%%%%%%%%$$                                        ",
"%%%%%%%%##  $$%%%%%%%%$$                                        ",
"%%%%%%%%%%  ##$$%%%%$$##                                        ",
"%%%%%%%%%%  ##$$%%%%$$##                                        ",
"%%%%%%%%##                                                      ",
"%%%%%%%%##                                                      ",
"                                                                ",
"                                                                ",
"                                                                ",
"                                                                ",
"                                                                ",
"                                                                ",
"                                                                ",
"                                                                ",
"                                                                ",
"                                                                ",
"                                                                ",
"                                                                ",
"                                                                ",
"                                                                ",
"                                                                ",
"                                                                "
};
