/* XPM */
static char *result[] = {
/* columns rows colors chars-per-pixel */
"128 128 10 1 ",
"  c #39334D",
". c #80375B",
"X c #A2484E",
"o c #B35B55",
"O c #C45C57",
"+ c #C27968",
"@ c #D68672",
"# c #E3A787",
"$ c #F3CDA0",
"% c #FCF1C9",
/* pixels */
"                                                                                                                                ",
"                                                                                                                                ",
"                                                                                                                                ",
"                                                                                                                                ",
"                                    XXXX++++++++++++++++++++XXXX    ooooXXXXXXXXXXXX....        OOOO@@@@$$$$$$$$%%%%%%%%%%%%    ",
"                                    XXXX++++++++++++++++++++XXXX    ooooXXXXXXXXXXXX....        OOOO@@@@$$$$$$$$%%%%%%%%%%%%    ",
"                                    XXXX++++++++++++++++++++XXXX    ooooXXXXXXXXXXXX....        OOOO@@@@$$$$$$$$%%%%%%%%%%%%    ",
"                                    XXXX++++++++++++++++++++XXXX    ooooXXXXXXXXXXXX....        OOOO@@@@$$$$$$$$%%%%%%%%%%%%    ",
"                                    ++++++++++++++++++++++++++++    ++++XXXXXXXXXXXXXXXX        @@@@@@@@$$$$$$$$$$$$$$$$$$$$    ",
"                                    ++++++++++++++++++++++++++++    ++++XXXXXXXXXXXXXXXX        @@@@@@@@$$$$$$$$$$$$$$$$$$$$    ",
"                                    ++++++++++++++++++++++++++++    ++++XXXXXXXXXXXXXXXX        @@@@@@@@$$$$$$$$$$$$$$$$$$$$    ",
"                                    ++++++++++++++++++++++++++++    ++++XXXXXXXXXXXXXXXX        @@@@@@@@$$$$$$$$$$$$$$$$$$$$    ",
"                                    XXXX++++++++++++++++++++XXXX    ooooXXXXXXXXXXXX....        @@@@@@@@$$$$$$$$$$$$$$$$$$$$    ",
"                                    XXXX++++++++++++++++++++XXXX    ooooXXXXXXXXXXXX....        @@@@@@@@$$$$$$$$$$$$$$$$$$$$    ",
"                                    XXXX++++++++++++++++++++XXXX    ooooXXXXXXXXXXXX....        @@@@@@@@$$$$$$$$$$$$$$$$$$$$    ",
"                                    XXXX++++++++++++++++++++XXXX    ooooXXXXXXXXXXXX....        @@@@@@@@$$$$$$$$$$$$$$$$$$$$    ",
"                                                                                                @@@@@@@@####$$$$$$$$$$$$$$$$    ",
"                                                                                                @@@@@@@@####$$$$$$$$$$$$$$$$    ",
"                                                                                                @@@@@@@@####$$$$$$$$$$$$$$$$    ",
"                                                                                                @@@@@@@@####$$$$$$$$$$$$$$$$    ",
"                                oooo++++XXXX    XXXX++++++++++++++++++++oooo....                @@@@@@@@@@@@####$$$$$$$$$$$$    ",
"                                oooo++++XXXX    XXXX++++++++++++++++++++oooo....                @@@@@@@@@@@@####$$$$$$$$$$$$    ",
"                                oooo++++XXXX    XXXX++++++++++++++++++++oooo....                @@@@@@@@@@@@####$$$$$$$$$$$$    ",
"                                oooo++++XXXX    XXXX++++++++++++++++++++oooo....                @@@@@@@@@@@@####$$$$$$$$$$$$    ",
"                                ++++++++++++    ++++++++++++++++++++++++++++XXXX                @@@@@@@@@@@@@@@@@@@@@@@@@@@@    ",
"                                ++++++++++++    ++++++++++++++++++++++++++++XXXX                @@@@@@@@@@@@@@@@@@@@@@@@@@@@    ",
"                                ++++++++++++    ++++++++++++++++++++++++++++XXXX                @@@@@@@@@@@@@@@@@@@@@@@@@@@@    ",
"                                ++++++++++++    ++++++++++++++++++++++++++++XXXX                @@@@@@@@@@@@@@@@@@@@@@@@@@@@    ",
"                                XXXX++++oooo    XXXX++++++++++++++++++++oooo....                OOOO@@@@@@@@@@@@@@@@@@@@OOOO    ",
"                                XXXX++++oooo    XXXX++++++++++++++++++++oooo....                OOOO@@@@@@@@@@@@@@@@@@@@OOOO    ",
"                                XXXX++++oooo    XXXX++++++++++++++++++++oooo....                OOOO@@@@@@@@@@@@@@@@@@@@OOOO    ",
"                                XXXX++++oooo    XXXX++++++++++++++++++++oooo....                OOOO@@@@@@@@@@@@@@@@@@@@OOOO    ",
"                                                                                                                                ",
"                                                                                                                                ",
"                                                                                                                                ",
"                                                                                                                                ",
"                                        XXXX++++++++++++++++++++XXXX                                                            ",
"                                        XXXX++++++++++++++++++++XXXX                                                            ",
"                                        XXXX++++++++++++++++++++XXXX                                                            ",
"                                        XXXX++++++++++++++++++++XXXX                                                            ",
"                                        ++++++++++++++++++++++++++++                                                            ",
"                                        ++++++++++++++++++++++++++++                                                            ",
"                                        ++++++++++++++++++++++++++++                                                            ",
"                                        ++++++++++++++++++++++++++++                                                            ",
"                                        XXXX++++++++++++++++++++XXXX                                    ....XXXXXXXXXXXXXXXX....",
"                                        XXXX++++++++++++++++++++XXXX                                    ....XXXXXXXXXXXXXXXX....",
"                                        XXXX++++++++++++++++++++XXXX                                    ....XXXXXXXXXXXXXXXX....",
"                                        XXXX++++++++++++++++++++XXXX                                    ....XXXXXXXXXXXXXXXX....",
"                                                                                                                                ",
"                                                                                                                                ",
"                                                                                                                                ",
"                                                                                                                                ",
"                                                    XXXX++++++++++++++++++++++++XXXX    ....XXXXXXXXXXXXXXXX....    ....XXXXXXXX",
"                                                    XXXX++++++++++++++++++++++++XXXX    ....XXXXXXXXXXXXXXXX....    ....XXXXXXXX",
"                                                    XXXX++++++++++++++++++++++++XXXX    ....XXXXXXXXXXXXXXXX....    ....XXXXXXXX",
"                                                    XXXX++++++++++++++++++++++++XXXX    ....XXXXXXXXXXXXXXXX....    ....XXXXXXXX",
"                                                    ++++++++++++++++++++++++++++++++    oooo++++++++++++++++oooo    oooo++++++++",
"                                                    ++++++++++++++++++++++++++++++++    oooo++++++++++++++++oooo    oooo++++++++",
"                                                    ++++++++++++++++++++++++++++++++    oooo++++++++++++++++oooo    oooo++++++++",
"                                                    ++++++++++++++++++++++++++++++++    oooo++++++++++++++++oooo    oooo++++++++",
"                                                    XXXX++++++++++++++++++++++++XXXX    XXXX++++++++++++++++XXXX    XXXX++++++++",
"                                                    XXXX++++++++++++++++++++++++XXXX    XXXX++++++++++++++++XXXX    XXXX++++++++",
"                                                    XXXX++++++++++++++++++++++++XXXX    XXXX++++++++++++++++XXXX    XXXX++++++++",
"                                                    XXXX++++++++++++++++++++++++XXXX    XXXX++++++++++++++++XXXX    XXXX++++++++",
"                                                                                                                                ",
"                                                                                                                                ",
"                                                                                                                                ",
"                                                                                                                                ",
"                                        XXXX++++++++++++++++++++XXXX    XXXX++++++++++++++++++++XXXX    XXXX++++++++++++++++++++",
"                                        XXXX++++++++++++++++++++XXXX    XXXX++++++++++++++++++++XXXX    XXXX++++++++++++++++++++",
"                                        XXXX++++++++++++++++++++XXXX    XXXX++++++++++++++++++++XXXX    XXXX++++++++++++++++++++",
"                                        XXXX++++++++++++++++++++XXXX    XXXX++++++++++++++++++++XXXX    XXXX++++++++++++++++++++",
"                                        ++++++++++++++++++++++++++++    ++++++++++++++++++++++++++++    ++++++++++++++++++++++++",
"                                        ++++++++++++++++++++++++++++    ++++++++++++++++++++++++++++    ++++++++++++++++++++++++",
"                                        ++++++++++++++++++++++++++++    ++++++++++++++++++++++++++++    ++++++++++++++++++++++++",
"                                        ++++++++++++++++++++++++++++    ++++++++++++++++++++++++++++    ++++++++++++++++++++++++",
"                                        XXXX++++++++++++++++++++XXXX    XXXX++++++++++++++++++++XXXX    XXXX++++++++++++++++++++",
"                                        XXXX++++++++++++++++++++XXXX    XXXX++++++++++++++++++++XXXX    XXXX++++++++++++++++++++",
"                                        XXXX++++++++++++++++++++XXXX    XXXX++++++++++++++++++++XXXX    XXXX++++++++++++++++++++",
"                                        XXXX++++++++++++++++++++XXXX    XXXX++++++++++++++++++++XXXX    XXXX++++++++++++++++++++",
"                                                                                                                                ",
"                                                                                                                                ",
"                                                                                                                                ",
"                                                                                                                                ",
"                                                            oooo++++++++++++++++oooo                                XXXX++++++++",
"                                                            oooo++++++++++++++++oooo                                XXXX++++++++",
"                                                            oooo++++++++++++++++oooo                                XXXX++++++++",
"                                                            oooo++++++++++++++++oooo                                XXXX++++++++",
"                                                            XXXXoooo++++++++ooooXXXX                                ++++++++++++",
"                                                            XXXXoooo++++++++ooooXXXX                                ++++++++++++",
"                                                            XXXXoooo++++++++ooooXXXX                                ++++++++++++",
"                                                            XXXXoooo++++++++ooooXXXX                                ++++++++++++",
"                                                                                                                    XXXX++++++++",
"                                                                                                                    XXXX++++++++",
"                                                                                                                    XXXX++++++++",
"                                                                                                                    XXXX++++++++",
"                                                                                                                                ",
"                                                                                                                                ",
"                                                                                                                                ",
"                                                                                                                                ",
"                                                                                                                                ",
"                                                                                                                                ",
"                                                                                                                                ",
"                                                                                                                                ",
"                                                                                                                                ",
"                                                                                                                                ",
"                                                                                                                                ",
"                                                                                                                                ",
"                                                                                                                                ",
"                                                                                                                                ",
"                                                                                                                                ",
"                                                                                                                                ",
"                                                                                                                                ",
"                                                                                                                                ",
"                                                                                                                                ",
"                                                                                                                                ",
"                                                                                                                                ",
"                                                                                                                                ",
"                                                                                                                                ",
"                                                                                                                                ",
"                                                                                                                                ",
"                                                                                                                                ",
"                                                                                                                                ",
"                                                                                                                                ",
"                                                                                                                                ",
"                                                                                                                                ",
"                                                                                                                                ",
"                                                                                                                                "
};
