/* XPM */
static char *result[] = {
/* columns rows colors chars-per-pixel */
"64 64 13 1 ",
"  c #3E394F",
". c #7E3C5B",
"X c #564C56",
"o c #924257",
"O c #A14B50",
"+ c #B15D57",
"@ c #C25E58",
"# c #C07767",
"$ c #D48472",
"% c #E1A585",
"& c #F3CB9E",
"* c #FBEABD",
"= c #FEFADA",
/* pixels */
"XX                                                            XX",
"XX                                                            XX",
"  %%&&**==****&&%%  $$%%&&****==****&&&&%%$$  %%&&****==**&&%%  ",
"  %%&&**==****&&%%  $$%%&&****==****&&&&%%$$  %%&&****==**&&%%  ",
"  &&&&&&&&&&&&&&&&  $$&&&&&&&&&&&&&&&&&&&&$$  &&&&&&&&&&&&&&&&  ",
"  &&&&&&&&&&&&&&&&  $$&&&&&&&&&&&&&&&&&&&&$$  &&&&&&&&&&&&&&&&  ",
"  &&&&&&&&&&&&&&&&  $$&&&&&&&&&&&&&&&&&&&&$$  &&&&&&&&&&&&&&&&  ",
"  &&&&&&&&&&&&&&&&  $$&&&&&&&&&&&&&&&&&&&&$$  &&&&&&&&&&&&&&&&  ",
"  &&&&&&&&&&&&&&&&  $$%%&&&&&&&&&&&&&&&&%%$$  &&&&&&&&&&&&&&&&  ",
"  &&&&&&&&&&&&&&&&  $$%%&&&&&&&&&&&&&&&&%%$$  &&&&&&&&&&&&&&&&  ",
"  %%&&&&&&&&&&&&%%  $$$$%%&&&&&&&&&&&&%%$$$$  %%&&&&&&&&&&&&%%  ",
"  %%&&&&&&&&&&&&%%  $$$$%%&&&&&&&&&&&&%%$$$$  %%&&&&&&&&&&&&%%  ",
"  $$%%&&&&&&&&%%$$  $$$$$$$$$$$$$$$$$$$$$$$$  $$%%&&&&&&&&%%$$  ",
"  $$%%&&&&&&&&%%$$  $$$$$$$$$$$$$$$$$$$$$$$$  $$%%&&&&&&&&%%$$  ",
"  $$$$$$$$$$$$$$$$  @@$$$$$$$$$$$$$$$$$$$$@@  $$$$$$$$$$$$$$$$  ",
"  $$$$$$$$$$$$$$$$  @@$$$$$$$$$$$$$$$$$$$$@@  $$$$$$$$$$$$$$$$  ",
"  @@$$$$$$$$$$$$@@                            @@$$$$$$$$$$$$@@  ",
"  @@$$$$$$$$$$$$@@                            @@$$$$$$$$$$$$@@  ",
"                                                                ",
"                                                                ",
"  $$$$$$$$$$$$@@      ..ooOOoo..  ..ooOOoo..    @@$$$$$$$$$$##  ",
"  $$$$$$$$$$$$@@      ..ooOOoo..  ..ooOOoo..    @@$$$$$$$$$$##  ",
"  %%&&&&%%$$$$$$      ooOOOOOOoo  ooOOOOOOoo    $$$$$$%%&&&&%%  ",
"  %%&&&&%%$$$$$$      ooOOOOOOoo  ooOOOOOOoo    $$$$$$%%&&&&%%  ",
"  &&&&&&&&%%$$$$                                $$$$%%&&&&&&&&  ",
"  &&&&&&&&%%$$$$                                $$$$%%&&&&&&&&  ",
"  &&&&&&&&%%$$$$        ..OO++####++OO..        $$$$%%&&&&&&&&  ",
"  &&&&&&&&%%$$$$        ..OO++####++OO..        $$$$%%&&&&&&&&  ",
"  ==&&&&&&&&$$$$        OOOO########OOOO        $$$$&&&&&&&&==  ",
"  ==&&&&&&&&$$$$        OOOO########OOOO        $$$$&&&&&&&&==  ",
"  **&&&&&&&&$$$$        ..OO++####++OO..        $$$$&&&&&&&&**  ",
"  **&&&&&&&&$$$$        ..OO++####++OO..        $$$$&&&&&&&&**  ",
"  &&&&&&&&&&$$$$                                $$$$&&&&&&&&&&  ",
"  &&&&&&&&&&$$$$                                $$$$&&&&&&&&&&  ",
"  **&&&&&&&&$$$$    ..OOOOOO++OO  ++OOOOOO..    $$$$&&&&&&&&**  ",
"  **&&&&&&&&$$$$    ..OOOOOO++OO  ++OOOOOO..    $$$$&&&&&&&&**  ",
"  &&&&&&&&%%$$$$    OOOOOOOO####  ##OOOOOOOO    $$$$%%&&&&&&&&  ",
"  &&&&&&&&%%$$$$    OOOOOOOO####  ##OOOOOOOO    $$$$%%&&&&&&&&  ",
"  &&&&&&&&%%$$$$    ..OOOOOO++OO  ++OOOOOO..    $$$$%%&&&&&&&&  ",
"  &&&&&&&&%%$$$$    ..OOOOOO++OO  ++OOOOOO..    $$$$%%&&&&&&&&  ",
"  %%&&&&%%$$$$$$                                $$$$$$%%&&&&%%  ",
"  %%&&&&%%$$$$$$                                $$$$$$%%&&&&%%  ",
"  $$$$$$$$$$$$@@        ..OOOOOOOOOOOO..        @@$$$$$$$$$$##  ",
"  $$$$$$$$$$$$@@        ..OOOOOOOOOOOO..        @@$$$$$$$$$$##  ",
"                                                                ",
"                                                                ",
"  @@$$$$$$$$$$$$@@                            @@$$$$$$$$$$$$@@  ",
"  @@$$$$$$$$$$$$@@                            @@$$$$$$$$$$$$@@  ",
"  $$$$$$$$$$$$$$$$  @@$$$$$$$$$$$$$$$$$$$$@@  $$$$$$$$$$$$$$$$  ",
"  $$$$$$$$$$$$$$$$  @@$$$$$$$$$$$$$$$$$$$$@@  $$$$$$$$$$$$$$$$  ",
"  $$%%&&&&&&&&%%$$  $$$$$$$$$$$$$$$$$$$$$$$$  $$%%&&&&&&&&%%$$  ",
"  $$%%&&&&&&&&%%$$  $$$$$$$$$$$$$$$$$$$$$$$$  $$%%&&&&&&&&%%$$  ",
"  %%&&&&&&&&&&&&%%  $$$$%%&&&&&&&&&&&&%%$$$$  %%&&&&&&&&&&&&%%  ",
"  %%&&&&&&&&&&&&%%  $$$$%%&&&&&&&&&&&&%%$$$$  %%&&&&&&&&&&&&%%  ",
"  &&&&&&&&&&&&&&&&  $$%%&&&&&&&&&&&&&&&&%%$$  &&&&&&&&&&&&&&&&  ",
"  &&&&&&&&&&&&&&&&  $$%%&&&&&&&&&&&&&&&&%%$$  &&&&&&&&&&&&&&&&  ",
"  &&&&&&&&&&&&&&&&  $$&&&&&&&&&&&&&&&&&&&&$$  &&&&&&&&&&&&&&&&  ",
"  &&&&&&&&&&&&&&&&  $$&&&&&&&&&&&&&&&&&&&&$$  &&&&&&&&&&&&&&&&  ",
"  &&&&&&&&&&&&&&&&  $$&&&&&&&&&&&&&&&&&&&&$$  &&&&&&&&&&&&&&&&  ",
"  &&&&&&&&&&&&&&&&  $$&&&&&&&&&&&&&&&&&&&&$$  &&&&&&&&&&&&&&&&  ",
"  %%&&**==****&&%%  $$%%&&**&&**==****&&%%$$  %%&&****==**&&%%  ",
"  %%&&**==****&&%%  $$%%&&**&&**==****&&%%$$  %%&&****==**&&%%  ",
"XX                                                            XX",
"XX                                                            XX"
};
