/* XPM */
static char *result[] = {
/* columns rows colors chars-per-pixel */
"64 64 11 1 ",
"  c #3E394F",
". c #7E3C5B",
"X c #A14B50",
"o c #B15D57",
"O c #C25E58",
"+ c #C07767",
"@ c #D48472",
"# c #E1A585",
"$ c #F3CB9E",
"% c #FBEABD",
"& c #FEFADA",
/* pixels */
"                                                                ",
"                                                                ",
"                                                                ",
"                                                                ",
"                                                                ",
"                                                                ",
"                                                                ",
"                                                                ",
"                                                                ",
"                                                                ",
"                                                                ",
"                                                                ",
"                                                                ",
"                                                                ",
"                                                                ",
"                                                                ",
"                                                                ",
"                                                                ",
"                  XX++++++++++XX                  XX++++++++++XX",
"                  XX++++++++++XX                  XX++++++++++XX",
"  XXoo++++++ooXX  ++++++++++++++  XXoo++++++ooXX  ++++++++++++++",
"  XXoo++++++ooXX  ++++++++++++++  XXoo++++++ooXX  ++++++++++++++",
"  oo++++++++++oo  XX++++++++++XX  oo++++++++++oo  XX++++++++++XX",
"  oo++++++++++oo  XX++++++++++XX  oo++++++++++oo  XX++++++++++XX",
"                                                                ",
"                                                                ",
"++++++XX  XX++++++++XX  XX++++++++++++XX  XX++++++++XX  XX++++++",
"++++++XX  XX++++++++XX  XX++++++++++++XX  XX++++++++XX  XX++++++",
"++++++++  ++++++++++++  ++++++++++++++++  ++++++++++++  ++++++++",
"++++++++  ++++++++++++  ++++++++++++++++  ++++++++++++  ++++++++",
"++++++XX  XX++++++++XX  XX++++++++++++XX  XX++++++++XX  XX++++++",
"++++++XX  XX++++++++XX  XX++++++++++++XX  XX++++++++XX  XX++++++",
"                                                                ",
"                                                                ",
"  XX++++++++++XX  XX++++++++++XX  XX++++++++++XX  XX++++++++++XX",
"  XX++++++++++XX  XX++++++++++XX  XX++++++++++XX  XX++++++++++XX",
"  oo++++++++++oo  oo++++++++++oo  oo++++++++++oo  oo++++++++++oo",
"  oo++++++++++oo  oo++++++++++oo  oo++++++++++oo  oo++++++++++oo",
"  ..XXXXXXXXXX..  ..XXXXXXXXXX..  ..XXXXXXXXXX..  ..XXXXXXXXXX..",
"  ..XXXXXXXXXX..  ..XXXXXXXXXX..  ..XXXXXXXXXX..  ..XXXXXXXXXX..",
"                                                                ",
"                                                                ",
"XXXXXX..  ..XXXXXXXX..                    ..XXXXXXXX..  ..XXXXXX",
"XXXXXX..  ..XXXXXXXX..                    ..XXXXXXXX..  ..XXXXXX",
"                                                                ",
"                                                                ",
"                                                                ",
"                                                                ",
"@@@@@@@@OO  OO@@@@@@@@@@@@@@@@@@@@OO  OO@@@@@@@@@@@@@@@@@@@@@@@@",
"@@@@@@@@OO  OO@@@@@@@@@@@@@@@@@@@@OO  OO@@@@@@@@@@@@@@@@@@@@@@@@",
"@@@@@@@@@@  @@@@@@@@@@@@@@@@@@@@@@@@  @@@@@@@@@@@@@@@@@@@@@@@@@@",
"@@@@@@@@@@  @@@@@@@@@@@@@@@@@@@@@@@@  @@@@@@@@@@@@@@@@@@@@@@@@@@",
"$$$$##@@@@  @@@@##$$$$$$$$$$$$##@@@@  @@@@##$$$$$$$$$$$$$$$$$$$$",
"$$$$##@@@@  @@@@##$$$$$$$$$$$$##@@@@  @@@@##$$$$$$$$$$$$$$$$$$$$",
"$$$$$$##@@  @@##$$$$$$$$$$$$$$$$##@@  @@##$$$$$$$$$$$$$$$$$$$$$$",
"$$$$$$##@@  @@##$$$$$$$$$$$$$$$$##@@  @@##$$$$$$$$$$$$$$$$$$$$$$",
"$$$$$$$$@@  @@$$$$$$$$$$$$$$$$$$$$@@  @@$$$$$$$$$$$$$$$$$$$$$$$$",
"$$$$$$$$@@  @@$$$$$$$$$$$$$$$$$$$$@@  @@$$$$$$$$$$$$$$$$$$$$$$$$",
"$$$$$$$$@@  @@$$$$$$$$$$$$$$$$$$$$@@  @@$$$$$$$$$$$$$$$$$$$$$$$$",
"$$$$$$$$@@  @@$$$$$$$$$$$$$$$$$$$$@@  @@$$$$$$$$$$$$$$$$$$$$$$$$",
"%%$$$$##@@  @@##$$$$%%&&%%%%$$$$##@@  @@##$$$$%%&&&&%%$$$$%%&&%%",
"%%$$$$##@@  @@##$$$$%%&&%%%%$$$$##@@  @@##$$$$%%&&&&%%$$$$%%&&%%",
"                                                                ",
"                                                                "
};
