/* XPM */
static char *result[] = {
/* columns rows colors chars-per-pixel */
"128 128 12 1 ",
"  c #39334D",
". c #544A54",
"X c #873958",
"o c #A2484E",
"O c #B35B55",
"+ c #C45C57",
"@ c #C27968",
"# c #D68672",
"$ c #E3A787",
"% c #F3CDA0",
"& c #FCECBF",
"* c #FEFADB",
/* pixels */
"....                                                                                                                        ....",
"....                                                                                                                        ....",
"....                                                                                                                        ....",
"....                                                                                                                        ....",
"    $$$$%%%%&&&&****&&&&&&&&%%%%$$$$    ####$$$$%%%%&&&&&&&&****&&&&&&&&%%%%%%%%$$$$####    $$$$%%%%&&&&&&&&****&&&&%%%%$$$$    ",
"    $$$$%%%%&&&&****&&&&&&&&%%%%$$$$    ####$$$$%%%%&&&&&&&&****&&&&&&&&%%%%%%%%$$$$####    $$$$%%%%&&&&&&&&****&&&&%%%%$$$$    ",
"    $$$$%%%%&&&&****&&&&&&&&%%%%$$$$    ####$$$$%%%%&&&&&&&&****&&&&&&&&%%%%%%%%$$$$####    $$$$%%%%&&&&&&&&****&&&&%%%%$$$$    ",
"    $$$$%%%%&&&&****&&&&&&&&%%%%$$$$    ####$$$$%%%%&&&&&&&&****&&&&&&&&%%%%%%%%$$$$####    $$$$%%%%&&&&&&&&****&&&&%%%%$$$$    ",
"    %%%%%%%%%%%%%%%%%%%%%%%%%%%%%%%%    ####%%%%%%%%%%%%%%%%%%%%%%%%%%%%%%%%%%%%%%%%####    %%%%%%%%%%%%%%%%%%%%%%%%%%%%%%%%    ",
"    %%%%%%%%%%%%%%%%%%%%%%%%%%%%%%%%    ####%%%%%%%%%%%%%%%%%%%%%%%%%%%%%%%%%%%%%%%%####    %%%%%%%%%%%%%%%%%%%%%%%%%%%%%%%%    ",
"    %%%%%%%%%%%%%%%%%%%%%%%%%%%%%%%%    ####%%%%%%%%%%%%%%%%%%%%%%%%%%%%%%%%%%%%%%%%####    %%%%%%%%%%%%%%%%%%%%%%%%%%%%%%%%    ",
"    %%%%%%%%%%%%%%%%%%%%%%%%%%%%%%%%    ####%%%%%%%%%%%%%%%%%%%%%%%%%%%%%%%%%%%%%%%%####    %%%%%%%%%%%%%%%%%%%%%%%%%%%%%%%%    ",
"    %%%%%%%%%%%%%%%%%%%%%%%%%%%%%%%%    ####%%%%%%%%%%%%%%%%%%%%%%%%%%%%%%%%%%%%%%%%####    %%%%%%%%%%%%%%%%%%%%%%%%%%%%%%%%    ",
"    %%%%%%%%%%%%%%%%%%%%%%%%%%%%%%%%    ####%%%%%%%%%%%%%%%%%%%%%%%%%%%%%%%%%%%%%%%%####    %%%%%%%%%%%%%%%%%%%%%%%%%%%%%%%%    ",
"    %%%%%%%%%%%%%%%%%%%%%%%%%%%%%%%%    ####%%%%%%%%%%%%%%%%%%%%%%%%%%%%%%%%%%%%%%%%####    %%%%%%%%%%%%%%%%%%%%%%%%%%%%%%%%    ",
"    %%%%%%%%%%%%%%%%%%%%%%%%%%%%%%%%    ####%%%%%%%%%%%%%%%%%%%%%%%%%%%%%%%%%%%%%%%%####    %%%%%%%%%%%%%%%%%%%%%%%%%%%%%%%%    ",
"    %%%%%%%%%%%%%%%%%%%%%%%%%%%%%%%%    ####$$$$%%%%%%%%%%%%%%%%%%%%%%%%%%%%%%%%$$$$####    %%%%%%%%%%%%%%%%%%%%%%%%%%%%%%%%    ",
"    %%%%%%%%%%%%%%%%%%%%%%%%%%%%%%%%    ####$$$$%%%%%%%%%%%%%%%%%%%%%%%%%%%%%%%%$$$$####    %%%%%%%%%%%%%%%%%%%%%%%%%%%%%%%%    ",
"    %%%%%%%%%%%%%%%%%%%%%%%%%%%%%%%%    ####$$$$%%%%%%%%%%%%%%%%%%%%%%%%%%%%%%%%$$$$####    %%%%%%%%%%%%%%%%%%%%%%%%%%%%%%%%    ",
"    %%%%%%%%%%%%%%%%%%%%%%%%%%%%%%%%    ####$$$$%%%%%%%%%%%%%%%%%%%%%%%%%%%%%%%%$$$$####    %%%%%%%%%%%%%%%%%%%%%%%%%%%%%%%%    ",
"    $$$$%%%%%%%%%%%%%%%%%%%%%%%%$$$$    ########$$$$%%%%%%%%%%%%%%%%%%%%%%%%$$$$########    $$$$%%%%%%%%%%%%%%%%%%%%%%%%$$$$    ",
"    $$$$%%%%%%%%%%%%%%%%%%%%%%%%$$$$    ########$$$$%%%%%%%%%%%%%%%%%%%%%%%%$$$$########    $$$$%%%%%%%%%%%%%%%%%%%%%%%%$$$$    ",
"    $$$$%%%%%%%%%%%%%%%%%%%%%%%%$$$$    ########$$$$%%%%%%%%%%%%%%%%%%%%%%%%$$$$########    $$$$%%%%%%%%%%%%%%%%%%%%%%%%$$$$    ",
"    $$$$%%%%%%%%%%%%%%%%%%%%%%%%$$$$    ########$$$$%%%%%%%%%%%%%%%%%%%%%%%%$$$$########    $$$$%%%%%%%%%%%%%%%%%%%%%%%%$$$$    ",
"    ####$$$$%%%%%%%%%%%%%%%%$$$$####    ################################################    ####$$$$%%%%%%%%%%%%%%%%$$$$####    ",
"    ####$$$$%%%%%%%%%%%%%%%%$$$$####    ################################################    ####$$$$%%%%%%%%%%%%%%%%$$$$####    ",
"    ####$$$$%%%%%%%%%%%%%%%%$$$$####    ################################################    ####$$$$%%%%%%%%%%%%%%%%$$$$####    ",
"    ####$$$$%%%%%%%%%%%%%%%%$$$$####    ################################################    ####$$$$%%%%%%%%%%%%%%%%$$$$####    ",
"    ################################    ++++########################################++++    ################################    ",
"    ################################    ++++########################################++++    ################################    ",
"    ################################    ++++########################################++++    ################################    ",
"    ################################    ++++########################################++++    ################################    ",
"    ++++########################++++                                                        ++++########################++++    ",
"    ++++########################++++                                                        ++++########################++++    ",
"    ++++########################++++                                                        ++++########################++++    ",
"    ++++########################++++                                                        ++++########################++++    ",
"                                                                                                                                ",
"                                                                                                                                ",
"                                                                                                                                ",
"                                                                                                                                ",
"    ########################++++            XXXXXXXXooooXXXXXXXX    XXXXXXXXooooXXXXXXXX        ++++####################@@@@    ",
"    ########################++++            XXXXXXXXooooXXXXXXXX    XXXXXXXXooooXXXXXXXX        ++++####################@@@@    ",
"    ########################++++            XXXXXXXXooooXXXXXXXX    XXXXXXXXooooXXXXXXXX        ++++####################@@@@    ",
"    ########################++++            XXXXXXXXooooXXXXXXXX    XXXXXXXXooooXXXXXXXX        ++++####################@@@@    ",
"    $$$$%%%%%%%%$$$$############            XXXXooooooooooooXXXX    XXXXooooooooooooXXXX        ############$$$$%%%%%%%%$$$$    ",
"    $$$$%%%%%%%%$$$$############            XXXXooooooooooooXXXX    XXXXooooooooooooXXXX        ############$$$$%%%%%%%%$$$$    ",
"    $$$$%%%%%%%%$$$$############            XXXXooooooooooooXXXX    XXXXooooooooooooXXXX        ############$$$$%%%%%%%%$$$$    ",
"    $$$$%%%%%%%%$$$$############            XXXXooooooooooooXXXX    XXXXooooooooooooXXXX        ############$$$$%%%%%%%%$$$$    ",
"    %%%%%%%%%%%%%%%%$$$$########                                                                ########$$$$%%%%%%%%%%%%%%%%    ",
"    %%%%%%%%%%%%%%%%$$$$########                                                                ########$$$$%%%%%%%%%%%%%%%%    ",
"    %%%%%%%%%%%%%%%%$$$$########                                                                ########$$$$%%%%%%%%%%%%%%%%    ",
"    %%%%%%%%%%%%%%%%$$$$########                                                                ########$$$$%%%%%%%%%%%%%%%%    ",
"    %%%%%%%%%%%%%%%%$$$$########                XXXXooooOOOO@@@@@@@@OOOOooooXXXX                ########$$$$%%%%%%%%%%%%%%%%    ",
"    %%%%%%%%%%%%%%%%$$$$########                XXXXooooOOOO@@@@@@@@OOOOooooXXXX                ########$$$$%%%%%%%%%%%%%%%%    ",
"    %%%%%%%%%%%%%%%%$$$$########                XXXXooooOOOO@@@@@@@@OOOOooooXXXX                ########$$$$%%%%%%%%%%%%%%%%    ",
"    %%%%%%%%%%%%%%%%$$$$########                XXXXooooOOOO@@@@@@@@OOOOooooXXXX                ########$$$$%%%%%%%%%%%%%%%%    ",
"    ****%%%%%%%%%%%%%%%%########                oooooooo@@@@@@@@@@@@@@@@oooooooo                ########%%%%%%%%%%%%%%%%****    ",
"    ****%%%%%%%%%%%%%%%%########                oooooooo@@@@@@@@@@@@@@@@oooooooo                ########%%%%%%%%%%%%%%%%****    ",
"    ****%%%%%%%%%%%%%%%%########                oooooooo@@@@@@@@@@@@@@@@oooooooo                ########%%%%%%%%%%%%%%%%****    ",
"    ****%%%%%%%%%%%%%%%%########                oooooooo@@@@@@@@@@@@@@@@oooooooo                ########%%%%%%%%%%%%%%%%****    ",
"    &&&&%%%%%%%%%%%%%%%%########                XXXXooooOOOO@@@@@@@@OOOOooooXXXX                ########%%%%%%%%%%%%%%%%&&&&    ",
"    &&&&%%%%%%%%%%%%%%%%########                XXXXooooOOOO@@@@@@@@OOOOooooXXXX                ########%%%%%%%%%%%%%%%%&&&&    ",
"    &&&&%%%%%%%%%%%%%%%%########                XXXXooooOOOO@@@@@@@@OOOOooooXXXX                ########%%%%%%%%%%%%%%%%&&&&    ",
"    &&&&%%%%%%%%%%%%%%%%########                XXXXooooOOOO@@@@@@@@OOOOooooXXXX                ########%%%%%%%%%%%%%%%%&&&&    ",
"    %%%%%%%%%%%%%%%%%%%%########                                                                ########%%%%%%%%%%%%%%%%%%%%    ",
"    %%%%%%%%%%%%%%%%%%%%########                                                                ########%%%%%%%%%%%%%%%%%%%%    ",
"    %%%%%%%%%%%%%%%%%%%%########                                                                ########%%%%%%%%%%%%%%%%%%%%    ",
"    %%%%%%%%%%%%%%%%%%%%########                                                                ########%%%%%%%%%%%%%%%%%%%%    ",
"    &&&&%%%%%%%%%%%%%%%%########        XXXXooooooooooooOOOOoooo    OOOOooooooooooooXXXX        ########%%%%%%%%%%%%%%%%&&&&    ",
"    &&&&%%%%%%%%%%%%%%%%########        XXXXooooooooooooOOOOoooo    OOOOooooooooooooXXXX        ########%%%%%%%%%%%%%%%%&&&&    ",
"    &&&&%%%%%%%%%%%%%%%%########        XXXXooooooooooooOOOOoooo    OOOOooooooooooooXXXX        ########%%%%%%%%%%%%%%%%&&&&    ",
"    &&&&%%%%%%%%%%%%%%%%########        XXXXooooooooooooOOOOoooo    OOOOooooooooooooXXXX        ########%%%%%%%%%%%%%%%%&&&&    ",
"    %%%%%%%%%%%%%%%%$$$$########        oooooooooooooooo@@@@@@@@    @@@@oooooooooooooooo        ########$$$$%%%%%%%%%%%%%%%%    ",
"    %%%%%%%%%%%%%%%%$$$$########        oooooooooooooooo@@@@@@@@    @@@@oooooooooooooooo        ########$$$$%%%%%%%%%%%%%%%%    ",
"    %%%%%%%%%%%%%%%%$$$$########        oooooooooooooooo@@@@@@@@    @@@@oooooooooooooooo        ########$$$$%%%%%%%%%%%%%%%%    ",
"    %%%%%%%%%%%%%%%%$$$$########        oooooooooooooooo@@@@@@@@    @@@@oooooooooooooooo        ########$$$$%%%%%%%%%%%%%%%%    ",
"    %%%%%%%%%%%%%%%%$$$$########        XXXXooooooooooooOOOOoooo    OOOOooooooooooooXXXX        ########$$$$%%%%%%%%%%%%%%%%    ",
"    %%%%%%%%%%%%%%%%$$$$########        XXXXooooooooooooOOOOoooo    OOOOooooooooooooXXXX        ########$$$$%%%%%%%%%%%%%%%%    ",
"    %%%%%%%%%%%%%%%%$$$$########        XXXXooooooooooooOOOOoooo    OOOOooooooooooooXXXX        ########$$$$%%%%%%%%%%%%%%%%    ",
"    %%%%%%%%%%%%%%%%$$$$########        XXXXooooooooooooOOOOoooo    OOOOooooooooooooXXXX        ########$$$$%%%%%%%%%%%%%%%%    ",
"    $$$$%%%%%%%%$$$$############                                                                ############$$$$%%%%%%%%$$$$    ",
"    $$$$%%%%%%%%$$$$############                                                                ############$$$$%%%%%%%%$$$$    ",
"    $$$$%%%%%%%%$$$$############                                                                ############$$$$%%%%%%%%$$$$    ",
"    $$$$%%%%%%%%$$$$############                                                                ############$$$$%%%%%%%%$$$$    ",
"    ########################++++                XXXXooooooooooooooooooooooooXXXX                ++++####################@@@@    ",
"    ########################++++                XXXXooooooooooooooooooooooooXXXX                ++++####################@@@@    ",
"    ########################++++                XXXXooooooooooooooooooooooooXXXX                ++++####################@@@@    ",
"    ########################++++                XXXXooooooooooooooooooooooooXXXX                ++++####################@@@@    ",
"                                                                                                                                ",
"                                                                                                                                ",
"                                                                                                                                ",
"                                                                                                                                ",
"    ++++########################++++                                                        ++++########################++++    ",
"    ++++########################++++                                                        ++++########################++++    ",
"    ++++########################++++                                                        ++++########################++++    ",
"    ++++########################++++                                                        ++++########################++++    ",
"    ################################    ++++########################################++++    ################################    ",
"    ################################    ++++########################################++++    ################################    ",
"    ################################    ++++########################################++++    ################################    ",
"    ################################    ++++########################################++++    ################################    ",
"    ####$$$$%%%%%%%%%%%%%%%%$$$$####    ################################################    ####$$$$%%%%%%%%%%%%%%%%$$$$####    ",
"    ####$$$$%%%%%%%%%%%%%%%%$$$$####    ################################################    ####$$$$%%%%%%%%%%%%%%%%$$$$####    ",
"    ####$$$$%%%%%%%%%%%%%%%%$$$$####    ################################################    ####$$$$%%%%%%%%%%%%%%%%$$$$####    ",
"    ####$$$$%%%%%%%%%%%%%%%%$$$$####    ################################################    ####$$$$%%%%%%%%%%%%%%%%$$$$####    ",
"    $$$$%%%%%%%%%%%%%%%%%%%%%%%%$$$$    ########$$$$%%%%%%%%%%%%%%%%%%%%%%%%$$$$########    $$$$%%%%%%%%%%%%%%%%%%%%%%%%$$$$    ",
"    $$$$%%%%%%%%%%%%%%%%%%%%%%%%$$$$    ########$$$$%%%%%%%%%%%%%%%%%%%%%%%%$$$$########    $$$$%%%%%%%%%%%%%%%%%%%%%%%%$$$$    ",
"    $$$$%%%%%%%%%%%%%%%%%%%%%%%%$$$$    ########$$$$%%%%%%%%%%%%%%%%%%%%%%%%$$$$########    $$$$%%%%%%%%%%%%%%%%%%%%%%%%$$$$    ",
"    $$$$%%%%%%%%%%%%%%%%%%%%%%%%$$$$    ########$$$$%%%%%%%%%%%%%%%%%%%%%%%%$$$$########    $$$$%%%%%%%%%%%%%%%%%%%%%%%%$$$$    ",
"    %%%%%%%%%%%%%%%%%%%%%%%%%%%%%%%%    ####$$$$%%%%%%%%%%%%%%%%%%%%%%%%%%%%%%%%$$$$####    %%%%%%%%%%%%%%%%%%%%%%%%%%%%%%%%    ",
"    %%%%%%%%%%%%%%%%%%%%%%%%%%%%%%%%    ####$$$$%%%%%%%%%%%%%%%%%%%%%%%%%%%%%%%%$$$$####    %%%%%%%%%%%%%%%%%%%%%%%%%%%%%%%%    ",
"    %%%%%%%%%%%%%%%%%%%%%%%%%%%%%%%%    ####$$$$%%%%%%%%%%%%%%%%%%%%%%%%%%%%%%%%$$$$####    %%%%%%%%%%%%%%%%%%%%%%%%%%%%%%%%    ",
"    %%%%%%%%%%%%%%%%%%%%%%%%%%%%%%%%    ####$$$$%%%%%%%%%%%%%%%%%%%%%%%%%%%%%%%%$$$$####    %%%%%%%%%%%%%%%%%%%%%%%%%%%%%%%%    ",
"    %%%%%%%%%%%%%%%%%%%%%%%%%%%%%%%%    ####%%%%%%%%%%%%%%%%%%%%%%%%%%%%%%%%%%%%%%%%####    %%%%%%%%%%%%%%%%%%%%%%%%%%%%%%%%    ",
"    %%%%%%%%%%%%%%%%%%%%%%%%%%%%%%%%    ####%%%%%%%%%%%%%%%%%%%%%%%%%%%%%%%%%%%%%%%%####    %%%%%%%%%%%%%%%%%%%%%%%%%%%%%%%%    ",
"    %%%%%%%%%%%%%%%%%%%%%%%%%%%%%%%%    ####%%%%%%%%%%%%%%%%%%%%%%%%%%%%%%%%%%%%%%%%####    %%%%%%%%%%%%%%%%%%%%%%%%%%%%%%%%    ",
"    %%%%%%%%%%%%%%%%%%%%%%%%%%%%%%%%    ####%%%%%%%%%%%%%%%%%%%%%%%%%%%%%%%%%%%%%%%%####    %%%%%%%%%%%%%%%%%%%%%%%%%%%%%%%%    ",
"    %%%%%%%%%%%%%%%%%%%%%%%%%%%%%%%%    ####%%%%%%%%%%%%%%%%%%%%%%%%%%%%%%%%%%%%%%%%####    %%%%%%%%%%%%%%%%%%%%%%%%%%%%%%%%    ",
"    %%%%%%%%%%%%%%%%%%%%%%%%%%%%%%%%    ####%%%%%%%%%%%%%%%%%%%%%%%%%%%%%%%%%%%%%%%%####    %%%%%%%%%%%%%%%%%%%%%%%%%%%%%%%%    ",
"    %%%%%%%%%%%%%%%%%%%%%%%%%%%%%%%%    ####%%%%%%%%%%%%%%%%%%%%%%%%%%%%%%%%%%%%%%%%####    %%%%%%%%%%%%%%%%%%%%%%%%%%%%%%%%    ",
"    %%%%%%%%%%%%%%%%%%%%%%%%%%%%%%%%    ####%%%%%%%%%%%%%%%%%%%%%%%%%%%%%%%%%%%%%%%%####    %%%%%%%%%%%%%%%%%%%%%%%%%%%%%%%%    ",
"    $$$$%%%%&&&&****&&&&&&&&%%%%$$$$    ####$$$$%%%%&&&&%%%%&&&&****&&&&&&&&%%%%$$$$####    $$$$%%%%&&&&&&&&****&&&&%%%%$$$$    ",
"    $$$$%%%%&&&&****&&&&&&&&%%%%$$$$    ####$$$$%%%%&&&&%%%%&&&&****&&&&&&&&%%%%$$$$####    $$$$%%%%&&&&&&&&****&&&&%%%%$$$$    ",
"    $$$$%%%%&&&&****&&&&&&&&%%%%$$$$    ####$$$$%%%%&&&&%%%%&&&&****&&&&&&&&%%%%$$$$####    $$$$%%%%&&&&&&&&****&&&&%%%%$$$$    ",
"    $$$$%%%%&&&&****&&&&&&&&%%%%$$$$    ####$$$$%%%%&&&&%%%%&&&&****&&&&&&&&%%%%$$$$####    $$$$%%%%&&&&&&&&****&&&&%%%%$$$$    ",
"....                                                                                                                        ....",
"....                                                                                                                        ....",
"....                                                                                                                        ....",
"....                                                                                                                        ...."
};
