/* XPM */
static char *result[] = {
/* columns rows colors chars-per-pixel */
"64 64 12 1 ",
"  c #3E394F",
". c #A14B50",
"X c #C07767",
"o c #B15D57",
"O c #7E3C5B",
"+ c #C25E58",
"@ c #D48472",
"# c #F3CB9E",
"$ c #FBEABD",
"% c #FEFADA",
"& c #E1A585",
"* c white",
/* pixels */
"                                                                ",
"                                                                ",
"                  ..XXXXXXXXXX..  oo......OO    ++@@####$$%%$$  ",
"                  ..XXXXXXXXXX..  oo......OO    ++@@####$$%%$$  ",
"                  XXXXXXXXXXXXXX  XX........    @@@@##########  ",
"                  XXXXXXXXXXXXXX  XX........    @@@@##########  ",
"                  ..XXXXXXXXXX..  oo......OO    @@@@##########  ",
"                  ..XXXXXXXXXX..  oo......OO    @@@@##########  ",
"                                                @@@@&&########  ",
"                                                @@@@&&########  ",
"                ooXX..  ..XXXXXXXXXXooOO        @@@@@@&&######  ",
"                ooXX..  ..XXXXXXXXXXooOO        @@@@@@&&######  ",
"                XXXXXX  XXXXXXXXXXXXXX..        @@@@@@@@@@@@@@  ",
"                XXXXXX  XXXXXXXXXXXXXX..        @@@@@@@@@@@@@@  ",
"                ..XXoo  ..XXXXXXXXXXooOO        ++@@@@@@@@@@++  ",
"                ..XXoo  ..XXXXXXXXXXooOO        ++@@@@@@@@@@++  ",
"                                                                ",
"                                                                ",
"                    ..XXXXXXXXXX..                              ",
"                    ..XXXXXXXXXX..                              ",
"                    XXXXXXXXXXXXXX                              ",
"                    XXXXXXXXXXXXXX                              ",
"                    ..XXXXXXXXXX..                  OO........OO",
"                    ..XXXXXXXXXX..                  OO........OO",
"                                                                ",
"                                                                ",
"                          ..XXXXXXXXXXXX..  OO........OO  OO....",
"                          ..XXXXXXXXXXXX..  OO........OO  OO....",
"                          XXXXXXXXXXXXXXXX  ooXXXXXXXXoo  ooXXXX",
"                          XXXXXXXXXXXXXXXX  ooXXXXXXXXoo  ooXXXX",
"                          ..XXXXXXXXXXXX..  ..XXXXXXXX..  ..XXXX",
"                          ..XXXXXXXXXXXX..  ..XXXXXXXX..  ..XXXX",
"                                                                ",
"                                                                ",
"                    ..XXXXXXXXXX..  ..XXXXXXXXXX..  ..XXXXXXXXXX",
"                    ..XXXXXXXXXX..  ..XXXXXXXXXX..  ..XXXXXXXXXX",
"                    XXXXXXXXXXXXXX  XXXXXXXXXXXXXX  XXXXXXXXXXXX",
"                    XXXXXXXXXXXXXX  XXXXXXXXXXXXXX  XXXXXXXXXXXX",
"                    ..XXXXXXXXXX..  ..XXXXXXXXXX..  ..XXXXXXXXXX",
"                    ..XXXXXXXXXX..  ..XXXXXXXXXX..  ..XXXXXXXXXX",
"                                                                ",
"                                                                ",
"                              ooXXXXXXXXoo                ..XXXX",
"                              ooXXXXXXXXoo                ..XXXX",
"                              ..ooXXXXoo..                XXXXXX",
"                              ..ooXXXXoo..                XXXXXX",
"                                                          ..XXXX",
"                                                          ..XXXX",
"                                                                ",
"                                                                ",
"                                                                ",
"                                                                ",
"                                                                ",
"                                                                ",
"                                                                ",
"                                                                ",
"                                                                ",
"                                                                ",
"                                                                ",
"                                                                ",
"                                                                ",
"                                                                ",
"                                                                ",
"                                                                "
};
