/* XPM */
static char *result[] = {
/* columns rows colors chars-per-pixel */
"64 64 12 1 ",
"  c #3E394F",
". c #7E3C5B",
"X c #924257",
"o c #A14B50",
"O c #B15D57",
"+ c #C25E58",
"@ c #C07767",
"# c #D48472",
"$ c #E1A585",
"% c #F3CB9E",
"& c #FBEABD",
"* c #FEFADA",
/* pixels */
"                                                                ",
"                                                                ",
"&&**&&%%%%&&****&&%%%%$$##  ##$$%%%%&&&&**&&%%%%$$##  ##$$%%%%&&",
"&&**&&%%%%&&****&&%%%%$$##  ##$$%%%%&&&&**&&%%%%$$##  ##$$%%%%&&",
"%%%%%%%%%%%%%%%%%%%%%%%%##  ##%%%%%%%%%%%%%%%%%%%%##  ##%%%%%%%%",
"%%%%%%%%%%%%%%%%%%%%%%%%##  ##%%%%%%%%%%%%%%%%%%%%##  ##%%%%%%%%",
"%%%%%%%%%%%%%%%%%%%%%%%%##  ##%%%%%%%%%%%%%%%%%%%%##  ##%%%%%%%%",
"%%%%%%%%%%%%%%%%%%%%%%%%##  ##%%%%%%%%%%%%%%%%%%%%##  ##%%%%%%%%",
"%%%%%%%%%%%%%%%%%%%%%%$$##  ##$$%%%%%%%%%%%%%%%%$$##  ##$$%%%%%%",
"%%%%%%%%%%%%%%%%%%%%%%$$##  ##$$%%%%%%%%%%%%%%%%$$##  ##$$%%%%%%",
"%%%%%%%%%%%%%%%%%%%%$$####  ####$$%%%%%%%%%%%%$$####  ####$$%%%%",
"%%%%%%%%%%%%%%%%%%%%$$####  ####$$%%%%%%%%%%%%$$####  ####$$%%%%",
"##########################  ########################  ##########",
"##########################  ########################  ##########",
"########################++  ++####################++  ++########",
"########################++  ++####################++  ++########",
"                                                                ",
"                                                                ",
"                                                                ",
"                                                                ",
"  ..XXooooooXX..                  ..XXooooooXX..                ",
"  ..XXooooooXX..                  ..XXooooooXX..                ",
"  XXooooooooooXX  ..oooooooooo..  XXooooooooooXX  ..oooooooooo..",
"  XXooooooooooXX  ..oooooooooo..  XXooooooooooXX  ..oooooooooo..",
"                                                                ",
"                                                                ",
"oooooo..  ..oooooooo..  ..oooooooooooo..  ..oooooooo..  ..oooooo",
"oooooo..  ..oooooooo..  ..oooooooooooo..  ..oooooooo..  ..oooooo",
"@@@@@@OO  OO@@@@@@@@OO  OO@@@@@@@@@@@@OO  OO@@@@@@@@OO  OO@@@@@@",
"@@@@@@OO  OO@@@@@@@@OO  OO@@@@@@@@@@@@OO  OO@@@@@@@@OO  OO@@@@@@",
"@@@@@@oo  oo@@@@@@@@oo  oo@@@@@@@@@@@@oo  oo@@@@@@@@oo  oo@@@@@@",
"@@@@@@oo  oo@@@@@@@@oo  oo@@@@@@@@@@@@oo  oo@@@@@@@@oo  oo@@@@@@",
"                                                                ",
"                                                                ",
"  oo@@@@@@@@@@oo  oo@@@@@@@@@@oo  oo@@@@@@@@@@oo  oo@@@@@@@@@@oo",
"  oo@@@@@@@@@@oo  oo@@@@@@@@@@oo  oo@@@@@@@@@@oo  oo@@@@@@@@@@oo",
"  @@@@@@@@@@@@@@  @@@@@@@@@@@@@@  @@@@@@@@@@@@@@  @@@@@@@@@@@@@@",
"  @@@@@@@@@@@@@@  @@@@@@@@@@@@@@  @@@@@@@@@@@@@@  @@@@@@@@@@@@@@",
"  oo@@@@@@@@@@oo  oo@@@@@@@@@@oo  oo@@@@@@@@@@oo  oo@@@@@@@@@@oo",
"  oo@@@@@@@@@@oo  oo@@@@@@@@@@oo  oo@@@@@@@@@@oo  oo@@@@@@@@@@oo",
"                                                                ",
"                                                                ",
"@@@@@@oo  OO@@@@@@@@OO  oo@@@@@@@@@@@@oo  OO@@@@@@@@OO  oo@@@@@@",
"@@@@@@oo  OO@@@@@@@@OO  oo@@@@@@@@@@@@oo  OO@@@@@@@@OO  oo@@@@@@",
"@@@@@@@@  ooOO@@@@OOoo  @@@@@@@@@@@@@@@@  ooOO@@@@OOoo  @@@@@@@@",
"@@@@@@@@  ooOO@@@@OOoo  @@@@@@@@@@@@@@@@  ooOO@@@@OOoo  @@@@@@@@",
"@@@@@@oo                oo@@@@@@@@@@@@oo                oo@@@@@@",
"@@@@@@oo                oo@@@@@@@@@@@@oo                oo@@@@@@",
"                                                                ",
"                                                                ",
"                                                                ",
"                                                                ",
"                                                                ",
"                                                                ",
"                                                                ",
"                                                                ",
"                                                                ",
"                                                                ",
"                                                                ",
"                                                                ",
"                                                                ",
"                                                                ",
"                                                                ",
"                                                                "
};
