/* XPM */
static char *result[] = {
/* columns rows colors chars-per-pixel */
"64 64 12 1 ",
"  c #3E394F",
". c #A14B50",
"X c #C07767",
"o c #B15D57",
"O c #7E3C5B",
"+ c #C25E58",
"@ c #D48472",
"# c #F3CB9E",
"$ c #E1A585",
"% c #FBEABD",
"& c #FEFADA",
"* c white",
/* pixels */
"                                                                ",
"                                                                ",
"                                                                ",
"                                                                ",
"                                                                ",
"                                                                ",
"                                                                ",
"                                                                ",
"                                                                ",
"                                                                ",
"                                                                ",
"                                                                ",
"                                                                ",
"                                                                ",
"                                                                ",
"                                                                ",
"                                                                ",
"                                                                ",
"                  ..XXXXXXXXXX..                                ",
"                  ..XXXXXXXXXX..                                ",
"  ..ooXXXXXXoo..  XXXXXXXXXXXXXX                                ",
"  ..ooXXXXXXoo..  XXXXXXXXXXXXXX                                ",
"  ooXXXXXXXXXXoo  ..XXXXXXXXXX..                                ",
"  ooXXXXXXXXXXoo  ..XXXXXXXXXX..                                ",
"                                                                ",
"                                                                ",
"XXXXXXXX..  ..XXXXXXXX..                                        ",
"XXXXXXXX..  ..XXXXXXXX..                                        ",
"XXXXXXXXXX  XXXXXXXXXXXX                                        ",
"XXXXXXXXXX  XXXXXXXXXXXX                                        ",
"XXXXXXXX..  ..XXXXXXXX..                                        ",
"XXXXXXXX..  ..XXXXXXXX..                                        ",
"                                                                ",
"                                                                ",
"  ..XXXXXXXXXX..  ..XXXXXXXXXX..  ..XXXXXXXX..                  ",
"  ..XXXXXXXXXX..  ..XXXXXXXXXX..  ..XXXXXXXX..                  ",
"  ooXXXXXXXXXXoo  ooXXXXXXXXXXoo  XXXXXXXXXXXX                  ",
"  ooXXXXXXXXXXoo  ooXXXXXXXXXXoo  XXXXXXXXXXXX                  ",
"  OO..........OO  OO......ooXX..  ..XXXXXXXX..                  ",
"  OO..........OO  OO......ooXX..  ..XXXXXXXX..                  ",
"                                                                ",
"                                                                ",
"......OO                OOooXXXXXXXXXX..  ..XXXX..              ",
"......OO                OOooXXXXXXXXXX..  ..XXXX..              ",
"                        ..XXXXXXXXXXXXXX  XXXXXXXX              ",
"                        ..XXXXXXXXXXXXXX  XXXXXXXX              ",
"                        OOooXXXXXXXXXX..  ..XXXX..              ",
"                        OOooXXXXXXXXXX..  ..XXXX..              ",
"  ++@@@@@@@@@@++                                                ",
"  ++@@@@@@@@@@++                                                ",
"  @@@@@@@@@@@@@@    OO......oo..  ..XXXXXXXXXX..                ",
"  @@@@@@@@@@@@@@    OO......oo..  ..XXXXXXXXXX..                ",
"  ######$$@@@@@@    ........XXXX  XXXXXXXXXXXXXX                ",
"  ######$$@@@@@@    ........XXXX  XXXXXXXXXXXXXX                ",
"  ########$$@@@@    OO......oo..  ..XXXXXXXXXX..                ",
"  ########$$@@@@    OO......oo..  ..XXXXXXXXXX..                ",
"  ##########@@@@                                                ",
"  ##########@@@@                                                ",
"  ##########@@@@        OOooXXXXXXXXXX..                        ",
"  ##########@@@@        OOooXXXXXXXXXX..                        ",
"  %%&&%%####@@++        ..XXXXXXXXXXXXXX                        ",
"  %%&&%%####@@++        ..XXXXXXXXXXXXXX                        ",
"                        OOooXXXXXXXXXX..                        ",
"                        OOooXXXXXXXXXX..                        "
};
