/* XPM */
static char *result[] = {
/* columns rows colors chars-per-pixel */
"128 128 10 1 ",
"  c #39334D",
". c #80375B",
"X c #A2484E",
"o c #B35B55",
"O c #C45C57",
"+ c #C27968",
"@ c #D68672",
"# c #E3A787",
"$ c #F3CDA0",
"% c #FCF1C9",
/* pixels */
"                                                                                                                                ",
"                                                                                                                                ",
"                                                                                                                                ",
"                                                                                                                                ",
"                                                                                                                                ",
"                                                                                                                                ",
"                                                                                                                                ",
"                                                                                                                                ",
"                                                                                                                                ",
"                                                                                                                                ",
"                                                                                                                                ",
"                                                                                                                                ",
"                                                                                                                                ",
"                                                                                                                                ",
"                                                                                                                                ",
"                                                                                                                                ",
"                                                                                                                                ",
"                                                                                                                                ",
"                                                                                                                                ",
"                                                                                                                                ",
"                                                                                                                                ",
"                                                                                                                                ",
"                                                                                                                                ",
"                                                                                                                                ",
"                                                                                                                                ",
"                                                                                                                                ",
"                                                                                                                                ",
"                                                                                                                                ",
"                                                                                                                                ",
"                                                                                                                                ",
"                                                                                                                                ",
"                                                                                                                                ",
"                                                                                                                                ",
"                                                                                                                                ",
"                                                                                                                                ",
"                                                                                                                                ",
"                                    XXXX++++++++++++++++++++XXXX                                                                ",
"                                    XXXX++++++++++++++++++++XXXX                                                                ",
"                                    XXXX++++++++++++++++++++XXXX                                                                ",
"                                    XXXX++++++++++++++++++++XXXX                                                                ",
"    XXXXoooo++++++++++++ooooXXXX    ++++++++++++++++++++++++++++                                                                ",
"    XXXXoooo++++++++++++ooooXXXX    ++++++++++++++++++++++++++++                                                                ",
"    XXXXoooo++++++++++++ooooXXXX    ++++++++++++++++++++++++++++                                                                ",
"    XXXXoooo++++++++++++ooooXXXX    ++++++++++++++++++++++++++++                                                                ",
"    oooo++++++++++++++++++++oooo    XXXX++++++++++++++++++++XXXX                                                                ",
"    oooo++++++++++++++++++++oooo    XXXX++++++++++++++++++++XXXX                                                                ",
"    oooo++++++++++++++++++++oooo    XXXX++++++++++++++++++++XXXX                                                                ",
"    oooo++++++++++++++++++++oooo    XXXX++++++++++++++++++++XXXX                                                                ",
"                                                                                                                                ",
"                                                                                                                                ",
"                                                                                                                                ",
"                                                                                                                                ",
"++++++++++++++++XXXX    XXXX++++++++++++++++XXXX                                                                                ",
"++++++++++++++++XXXX    XXXX++++++++++++++++XXXX                                                                                ",
"++++++++++++++++XXXX    XXXX++++++++++++++++XXXX                                                                                ",
"++++++++++++++++XXXX    XXXX++++++++++++++++XXXX                                                                                ",
"++++++++++++++++++++    ++++++++++++++++++++++++                                                                                ",
"++++++++++++++++++++    ++++++++++++++++++++++++                                                                                ",
"++++++++++++++++++++    ++++++++++++++++++++++++                                                                                ",
"++++++++++++++++++++    ++++++++++++++++++++++++                                                                                ",
"++++++++++++++++XXXX    XXXX++++++++++++++++XXXX                                                                                ",
"++++++++++++++++XXXX    XXXX++++++++++++++++XXXX                                                                                ",
"++++++++++++++++XXXX    XXXX++++++++++++++++XXXX                                                                                ",
"++++++++++++++++XXXX    XXXX++++++++++++++++XXXX                                                                                ",
"                                                                                                                                ",
"                                                                                                                                ",
"                                                                                                                                ",
"                                                                                                                                ",
"    XXXX++++++++++++++++++++XXXX    XXXX++++++++++++++++++++XXXX    XXXX++++++++++++++++XXXX                                    ",
"    XXXX++++++++++++++++++++XXXX    XXXX++++++++++++++++++++XXXX    XXXX++++++++++++++++XXXX                                    ",
"    XXXX++++++++++++++++++++XXXX    XXXX++++++++++++++++++++XXXX    XXXX++++++++++++++++XXXX                                    ",
"    XXXX++++++++++++++++++++XXXX    XXXX++++++++++++++++++++XXXX    XXXX++++++++++++++++XXXX                                    ",
"    oooo++++++++++++++++++++oooo    oooo++++++++++++++++++++oooo    ++++++++++++++++++++++++                                    ",
"    oooo++++++++++++++++++++oooo    oooo++++++++++++++++++++oooo    ++++++++++++++++++++++++                                    ",
"    oooo++++++++++++++++++++oooo    oooo++++++++++++++++++++oooo    ++++++++++++++++++++++++                                    ",
"    oooo++++++++++++++++++++oooo    oooo++++++++++++++++++++oooo    ++++++++++++++++++++++++                                    ",
"    ....XXXXXXXXXXXXXXXXXXXX....    ....XXXXXXXXXXXXoooo++++XXXX    XXXX++++++++++++++++XXXX                                    ",
"    ....XXXXXXXXXXXXXXXXXXXX....    ....XXXXXXXXXXXXoooo++++XXXX    XXXX++++++++++++++++XXXX                                    ",
"    ....XXXXXXXXXXXXXXXXXXXX....    ....XXXXXXXXXXXXoooo++++XXXX    XXXX++++++++++++++++XXXX                                    ",
"    ....XXXXXXXXXXXXXXXXXXXX....    ....XXXXXXXXXXXXoooo++++XXXX    XXXX++++++++++++++++XXXX                                    ",
"                                                                                                                                ",
"                                                                                                                                ",
"                                                                                                                                ",
"                                                                                                                                ",
"XXXXXXXXXXXX....                                ....oooo++++++++++++++++++++XXXX    XXXX++++++++XXXX                            ",
"XXXXXXXXXXXX....                                ....oooo++++++++++++++++++++XXXX    XXXX++++++++XXXX                            ",
"XXXXXXXXXXXX....                                ....oooo++++++++++++++++++++XXXX    XXXX++++++++XXXX                            ",
"XXXXXXXXXXXX....                                ....oooo++++++++++++++++++++XXXX    XXXX++++++++XXXX                            ",
"                                                XXXX++++++++++++++++++++++++++++    ++++++++++++++++                            ",
"                                                XXXX++++++++++++++++++++++++++++    ++++++++++++++++                            ",
"                                                XXXX++++++++++++++++++++++++++++    ++++++++++++++++                            ",
"                                                XXXX++++++++++++++++++++++++++++    ++++++++++++++++                            ",
"                                                ....oooo++++++++++++++++++++XXXX    XXXX++++++++XXXX                            ",
"                                                ....oooo++++++++++++++++++++XXXX    XXXX++++++++XXXX                            ",
"                                                ....oooo++++++++++++++++++++XXXX    XXXX++++++++XXXX                            ",
"                                                ....oooo++++++++++++++++++++XXXX    XXXX++++++++XXXX                            ",
"    OOOO@@@@@@@@@@@@@@@@@@@@OOOO                                                                                                ",
"    OOOO@@@@@@@@@@@@@@@@@@@@OOOO                                                                                                ",
"    OOOO@@@@@@@@@@@@@@@@@@@@OOOO                                                                                                ",
"    OOOO@@@@@@@@@@@@@@@@@@@@OOOO                                                                                                ",
"    @@@@@@@@@@@@@@@@@@@@@@@@@@@@        ....XXXXXXXXXXXXooooXXXX    XXXX++++++++++++++++++++XXXX                                ",
"    @@@@@@@@@@@@@@@@@@@@@@@@@@@@        ....XXXXXXXXXXXXooooXXXX    XXXX++++++++++++++++++++XXXX                                ",
"    @@@@@@@@@@@@@@@@@@@@@@@@@@@@        ....XXXXXXXXXXXXooooXXXX    XXXX++++++++++++++++++++XXXX                                ",
"    @@@@@@@@@@@@@@@@@@@@@@@@@@@@        ....XXXXXXXXXXXXooooXXXX    XXXX++++++++++++++++++++XXXX                                ",
"    $$$$$$$$$$$$####@@@@@@@@@@@@        XXXXXXXXXXXXXXXX++++++++    ++++++++++++++++++++++++++++                                ",
"    $$$$$$$$$$$$####@@@@@@@@@@@@        XXXXXXXXXXXXXXXX++++++++    ++++++++++++++++++++++++++++                                ",
"    $$$$$$$$$$$$####@@@@@@@@@@@@        XXXXXXXXXXXXXXXX++++++++    ++++++++++++++++++++++++++++                                ",
"    $$$$$$$$$$$$####@@@@@@@@@@@@        XXXXXXXXXXXXXXXX++++++++    ++++++++++++++++++++++++++++                                ",
"    $$$$$$$$$$$$$$$$####@@@@@@@@        ....XXXXXXXXXXXXooooXXXX    XXXX++++++++++++++++++++XXXX                                ",
"    $$$$$$$$$$$$$$$$####@@@@@@@@        ....XXXXXXXXXXXXooooXXXX    XXXX++++++++++++++++++++XXXX                                ",
"    $$$$$$$$$$$$$$$$####@@@@@@@@        ....XXXXXXXXXXXXooooXXXX    XXXX++++++++++++++++++++XXXX                                ",
"    $$$$$$$$$$$$$$$$####@@@@@@@@        ....XXXXXXXXXXXXooooXXXX    XXXX++++++++++++++++++++XXXX                                ",
"    $$$$$$$$$$$$$$$$$$$$@@@@@@@@                                                                                                ",
"    $$$$$$$$$$$$$$$$$$$$@@@@@@@@                                                                                                ",
"    $$$$$$$$$$$$$$$$$$$$@@@@@@@@                                                                                                ",
"    $$$$$$$$$$$$$$$$$$$$@@@@@@@@                                                                                                ",
"    $$$$$$$$$$$$$$$$$$$$@@@@@@@@                ....oooo++++++++++++++++++++XXXX                                                ",
"    $$$$$$$$$$$$$$$$$$$$@@@@@@@@                ....oooo++++++++++++++++++++XXXX                                                ",
"    $$$$$$$$$$$$$$$$$$$$@@@@@@@@                ....oooo++++++++++++++++++++XXXX                                                ",
"    $$$$$$$$$$$$$$$$$$$$@@@@@@@@                ....oooo++++++++++++++++++++XXXX                                                ",
"    %%%%%%%%%%%%$$$$$$$$@@@@OOOO                XXXX++++++++++++++++++++++++++++                                                ",
"    %%%%%%%%%%%%$$$$$$$$@@@@OOOO                XXXX++++++++++++++++++++++++++++                                                ",
"    %%%%%%%%%%%%$$$$$$$$@@@@OOOO                XXXX++++++++++++++++++++++++++++                                                ",
"    %%%%%%%%%%%%$$$$$$$$@@@@OOOO                XXXX++++++++++++++++++++++++++++                                                ",
"                                                ....oooo++++++++++++++++++++XXXX                                                ",
"                                                ....oooo++++++++++++++++++++XXXX                                                ",
"                                                ....oooo++++++++++++++++++++XXXX                                                ",
"                                                ....oooo++++++++++++++++++++XXXX                                                "
};
