/* XPM */
static char *result[] = {
/* columns rows colors chars-per-pixel */
"128 128 10 1 ",
"  c #39324D",
". c #80375B",
"X c #A2474F",
"o c #B35C55",
"O c #C45D57",
"+ c #C27A68",
"@ c #D68572",
"# c #E3A787",
"$ c #F3CD9F",
"% c #FDF1C9",
/* pixels */
"                                                                                                                                ",
"                                                                                                                                ",
"                                                                                                                                ",
"                                                                                                                                ",
"                                                                                                                                ",
"                                                                                                                                ",
"                                                                                                                                ",
"                                                                                                                                ",
"                                                                                                                                ",
"                                                                                                                                ",
"                                                                                                                                ",
"                                                                                                                                ",
"                                                                                                                                ",
"                                                                                                                                ",
"                                                                                                                                ",
"                                                                                                                                ",
"                                                                                                                                ",
"                                                                                                                                ",
"                                                                                                                                ",
"                                                                                                                                ",
"                                                                                                                                ",
"                                                                                                                                ",
"                                                                                                                                ",
"                                                                                                                                ",
"                                                                                                                                ",
"                                                                                                                                ",
"                                                                                                                                ",
"                                                                                                                                ",
"                                                                                                                                ",
"                                                                                                                                ",
"                                                                                                                                ",
"                                                                                                                                ",
"                                                                                                                                ",
"                                                                                                                                ",
"                                                                                                                                ",
"                                                                                                                                ",
"                                                                                                        XXXX++++++++++++++++XXXX",
"                                                                                                        XXXX++++++++++++++++XXXX",
"                                                                                                        XXXX++++++++++++++++XXXX",
"                                                                                                        XXXX++++++++++++++++XXXX",
"                                                                        XXXXoooo++++++++++++ooooXXXX    ++++++++++++++++++++++++",
"                                                                        XXXXoooo++++++++++++ooooXXXX    ++++++++++++++++++++++++",
"                                                                        XXXXoooo++++++++++++ooooXXXX    ++++++++++++++++++++++++",
"                                                                        XXXXoooo++++++++++++ooooXXXX    ++++++++++++++++++++++++",
"                                                                        oooo++++++++++++++++++++oooo    XXXX++++++++++++++++XXXX",
"                                                                        oooo++++++++++++++++++++oooo    XXXX++++++++++++++++XXXX",
"                                                                        oooo++++++++++++++++++++oooo    XXXX++++++++++++++++XXXX",
"                                                                        oooo++++++++++++++++++++oooo    XXXX++++++++++++++++XXXX",
"                                                                                                                                ",
"                                                                                                                                ",
"                                                                                                                                ",
"                                                                                                                                ",
"                                                    XXXX++++++++++++++++++++++++XXXX    XXXX++++++++++++++++XXXX    XXXX++++++++",
"                                                    XXXX++++++++++++++++++++++++XXXX    XXXX++++++++++++++++XXXX    XXXX++++++++",
"                                                    XXXX++++++++++++++++++++++++XXXX    XXXX++++++++++++++++XXXX    XXXX++++++++",
"                                                    XXXX++++++++++++++++++++++++XXXX    XXXX++++++++++++++++XXXX    XXXX++++++++",
"                                                    ++++++++++++++++++++++++++++++++    ++++++++++++++++++++++++    ++++++++++++",
"                                                    ++++++++++++++++++++++++++++++++    ++++++++++++++++++++++++    ++++++++++++",
"                                                    ++++++++++++++++++++++++++++++++    ++++++++++++++++++++++++    ++++++++++++",
"                                                    ++++++++++++++++++++++++++++++++    ++++++++++++++++++++++++    ++++++++++++",
"                                                    XXXX++++++++++++++++++++++++XXXX    XXXX++++++++++++++++XXXX    XXXX++++++++",
"                                                    XXXX++++++++++++++++++++++++XXXX    XXXX++++++++++++++++XXXX    XXXX++++++++",
"                                                    XXXX++++++++++++++++++++++++XXXX    XXXX++++++++++++++++XXXX    XXXX++++++++",
"                                                    XXXX++++++++++++++++++++++++XXXX    XXXX++++++++++++++++XXXX    XXXX++++++++",
"                                                                                                                                ",
"                                                                                                                                ",
"                                                                                                                                ",
"                                                                                                                                ",
"                                        XXXX++++++++++++++++++++XXXX    XXXX++++++++++++++++++++XXXX    XXXX++++++++++++++++XXXX",
"                                        XXXX++++++++++++++++++++XXXX    XXXX++++++++++++++++++++XXXX    XXXX++++++++++++++++XXXX",
"                                        XXXX++++++++++++++++++++XXXX    XXXX++++++++++++++++++++XXXX    XXXX++++++++++++++++XXXX",
"                                        XXXX++++++++++++++++++++XXXX    XXXX++++++++++++++++++++XXXX    XXXX++++++++++++++++XXXX",
"                                        ++++++++++++++++++++++++++++    ++++++++++++++++++++++++oooo    oooo++++++++++++++++oooo",
"                                        ++++++++++++++++++++++++++++    ++++++++++++++++++++++++oooo    oooo++++++++++++++++oooo",
"                                        ++++++++++++++++++++++++++++    ++++++++++++++++++++++++oooo    oooo++++++++++++++++oooo",
"                                        ++++++++++++++++++++++++++++    ++++++++++++++++++++++++oooo    oooo++++++++++++++++oooo",
"                                        XXXX++++++++++++++++++++XXXX    ooooXXXXXXXXXXXXXXXXXXXX....    ....XXXXXXXXXXXXXXXX....",
"                                        XXXX++++++++++++++++++++XXXX    ooooXXXXXXXXXXXXXXXXXXXX....    ....XXXXXXXXXXXXXXXX....",
"                                        XXXX++++++++++++++++++++XXXX    ooooXXXXXXXXXXXXXXXXXXXX....    ....XXXXXXXXXXXXXXXX....",
"                                        XXXX++++++++++++++++++++XXXX    ooooXXXXXXXXXXXXXXXXXXXX....    ....XXXXXXXXXXXXXXXX....",
"                                                                                                                                ",
"                                                                                                                                ",
"                                                                                                                                ",
"                                                                                                                                ",
"                                                XXXX++++++++++++++++++++oooo....        ....XXXXXXXXXXXX....        ....XXXXXXXX",
"                                                XXXX++++++++++++++++++++oooo....        ....XXXXXXXXXXXX....        ....XXXXXXXX",
"                                                XXXX++++++++++++++++++++oooo....        ....XXXXXXXXXXXX....        ....XXXXXXXX",
"                                                XXXX++++++++++++++++++++oooo....        ....XXXXXXXXXXXX....        ....XXXXXXXX",
"                                                ++++++++++++++++++++++++++++XXXX                                                ",
"                                                ++++++++++++++++++++++++++++XXXX                                                ",
"                                                ++++++++++++++++++++++++++++XXXX                                                ",
"                                                ++++++++++++++++++++++++++++XXXX                                                ",
"                                                XXXX++++++++++++++++++++oooo....                                                ",
"                                                XXXX++++++++++++++++++++oooo....                                                ",
"                                                XXXX++++++++++++++++++++oooo....                                                ",
"                                                XXXX++++++++++++++++++++oooo....                                                ",
"                                                                                                OOOO@@@@@@@@@@@@@@@@@@@@OOOO    ",
"                                                                                                OOOO@@@@@@@@@@@@@@@@@@@@OOOO    ",
"                                                                                                OOOO@@@@@@@@@@@@@@@@@@@@OOOO    ",
"                                                                                                OOOO@@@@@@@@@@@@@@@@@@@@OOOO    ",
"                                    XXXX++++++++++++++++++++XXXX    ooooXXXXXXXXXXXX....        @@@@@@@@@@@@@@@@@@@@@@@@@@@@    ",
"                                    XXXX++++++++++++++++++++XXXX    ooooXXXXXXXXXXXX....        @@@@@@@@@@@@@@@@@@@@@@@@@@@@    ",
"                                    XXXX++++++++++++++++++++XXXX    ooooXXXXXXXXXXXX....        @@@@@@@@@@@@@@@@@@@@@@@@@@@@    ",
"                                    XXXX++++++++++++++++++++XXXX    ooooXXXXXXXXXXXX....        @@@@@@@@@@@@@@@@@@@@@@@@@@@@    ",
"                                    ++++++++++++++++++++++++++++    ++++XXXXXXXXXXXXXXXX        @@@@@@@@@@@@####$$$$$$$$$$$$    ",
"                                    ++++++++++++++++++++++++++++    ++++XXXXXXXXXXXXXXXX        @@@@@@@@@@@@####$$$$$$$$$$$$    ",
"                                    ++++++++++++++++++++++++++++    ++++XXXXXXXXXXXXXXXX        @@@@@@@@@@@@####$$$$$$$$$$$$    ",
"                                    ++++++++++++++++++++++++++++    ++++XXXXXXXXXXXXXXXX        @@@@@@@@@@@@####$$$$$$$$$$$$    ",
"                                    XXXX++++++++++++++++++++XXXX    ooooXXXXXXXXXXXX....        @@@@@@@@####$$$$$$$$$$$$$$$$    ",
"                                    XXXX++++++++++++++++++++XXXX    ooooXXXXXXXXXXXX....        @@@@@@@@####$$$$$$$$$$$$$$$$    ",
"                                    XXXX++++++++++++++++++++XXXX    ooooXXXXXXXXXXXX....        @@@@@@@@####$$$$$$$$$$$$$$$$    ",
"                                    XXXX++++++++++++++++++++XXXX    ooooXXXXXXXXXXXX....        @@@@@@@@####$$$$$$$$$$$$$$$$    ",
"                                                                                                @@@@@@@@$$$$$$$$$$$$$$$$$$$$    ",
"                                                                                                @@@@@@@@$$$$$$$$$$$$$$$$$$$$    ",
"                                                                                                @@@@@@@@$$$$$$$$$$$$$$$$$$$$    ",
"                                                                                                @@@@@@@@$$$$$$$$$$$$$$$$$$$$    ",
"                                                XXXX++++++++++++++++++++oooo....                @@@@@@@@$$$$$$$$$$$$$$$$$$$$    ",
"                                                XXXX++++++++++++++++++++oooo....                @@@@@@@@$$$$$$$$$$$$$$$$$$$$    ",
"                                                XXXX++++++++++++++++++++oooo....                @@@@@@@@$$$$$$$$$$$$$$$$$$$$    ",
"                                                XXXX++++++++++++++++++++oooo....                @@@@@@@@$$$$$$$$$$$$$$$$$$$$    ",
"                                                ++++++++++++++++++++++++++++XXXX                OOOO@@@@$$$$$$$$%%%%%%%%%%%%    ",
"                                                ++++++++++++++++++++++++++++XXXX                OOOO@@@@$$$$$$$$%%%%%%%%%%%%    ",
"                                                ++++++++++++++++++++++++++++XXXX                OOOO@@@@$$$$$$$$%%%%%%%%%%%%    ",
"                                                ++++++++++++++++++++++++++++XXXX                OOOO@@@@$$$$$$$$%%%%%%%%%%%%    ",
"                                                XXXX++++++++++++++++++++oooo....                                                ",
"                                                XXXX++++++++++++++++++++oooo....                                                ",
"                                                XXXX++++++++++++++++++++oooo....                                                ",
"                                                XXXX++++++++++++++++++++oooo....                                                "
};
