/* XPM */
static char *result[] = {
/* columns rows colors chars-per-pixel */
"128 128 11 1 ",
"  c #39334D",
". c #80375B",
"X c #A2474E",
"o c #B35B55",
"O c #C45C57",
"+ c #C27968",
"@ c #D68672",
"# c #E3A787",
"$ c #F3CDA0",
"% c #FCECBF",
"& c #FEFADB",
/* pixels */
"                                                                                                @@@@@@@@$$$$$$$$$$$$$$$$$$$$    ",
"                                                                                                @@@@@@@@$$$$$$$$$$$$$$$$$$$$    ",
"                                                                                                @@@@@@@@$$$$$$$$$$$$$$$$$$$$    ",
"                                                                                                @@@@@@@@$$$$$$$$$$$$$$$$$$$$    ",
"                                    XXXX++++++++++++++++++++XXXX    ooooXXXXXXXXXXXX....        @@@@@@@@$$$$$$$$$$$$$$$$%%%%    ",
"                                    XXXX++++++++++++++++++++XXXX    ooooXXXXXXXXXXXX....        @@@@@@@@$$$$$$$$$$$$$$$$%%%%    ",
"                                    XXXX++++++++++++++++++++XXXX    ooooXXXXXXXXXXXX....        @@@@@@@@$$$$$$$$$$$$$$$$%%%%    ",
"                                    XXXX++++++++++++++++++++XXXX    ooooXXXXXXXXXXXX....        @@@@@@@@$$$$$$$$$$$$$$$$%%%%    ",
"                                    ++++++++++++++++++++++++++++    ++++XXXXXXXXXXXXXXXX        @@@@@@@@$$$$$$$$$$$$$$$$&&&&    ",
"                                    ++++++++++++++++++++++++++++    ++++XXXXXXXXXXXXXXXX        @@@@@@@@$$$$$$$$$$$$$$$$&&&&    ",
"                                    ++++++++++++++++++++++++++++    ++++XXXXXXXXXXXXXXXX        @@@@@@@@$$$$$$$$$$$$$$$$&&&&    ",
"                                    ++++++++++++++++++++++++++++    ++++XXXXXXXXXXXXXXXX        @@@@@@@@$$$$$$$$$$$$$$$$&&&&    ",
"                                    XXXX++++++++++++++++++++XXXX    ooooXXXXXXXXXXXX....        @@@@@@@@$$$$$$$$$$$$$$$$&&&&    ",
"                                    XXXX++++++++++++++++++++XXXX    ooooXXXXXXXXXXXX....        @@@@@@@@$$$$$$$$$$$$$$$$&&&&    ",
"                                    XXXX++++++++++++++++++++XXXX    ooooXXXXXXXXXXXX....        @@@@@@@@$$$$$$$$$$$$$$$$&&&&    ",
"                                    XXXX++++++++++++++++++++XXXX    ooooXXXXXXXXXXXX....        @@@@@@@@$$$$$$$$$$$$$$$$&&&&    ",
"                                                                                                @@@@@@@@$$$$$$$$$$$$$$$$%%%%    ",
"                                                                                                @@@@@@@@$$$$$$$$$$$$$$$$%%%%    ",
"                                                                                                @@@@@@@@$$$$$$$$$$$$$$$$%%%%    ",
"                                                                                                @@@@@@@@$$$$$$$$$$$$$$$$%%%%    ",
"                                oooo++++XXXX    XXXX++++++++++++++++++++oooo....                @@@@@@@@$$$$$$$$$$$$$$$$&&&&    ",
"                                oooo++++XXXX    XXXX++++++++++++++++++++oooo....                @@@@@@@@$$$$$$$$$$$$$$$$&&&&    ",
"                                oooo++++XXXX    XXXX++++++++++++++++++++oooo....                @@@@@@@@$$$$$$$$$$$$$$$$&&&&    ",
"                                oooo++++XXXX    XXXX++++++++++++++++++++oooo....                @@@@@@@@$$$$$$$$$$$$$$$$&&&&    ",
"                                ++++++++++++    ++++++++++++++++++++++++++++XXXX                @@@@@@@@$$$$$$$$$$$$$$$$%%%%    ",
"                                ++++++++++++    ++++++++++++++++++++++++++++XXXX                @@@@@@@@$$$$$$$$$$$$$$$$%%%%    ",
"                                ++++++++++++    ++++++++++++++++++++++++++++XXXX                @@@@@@@@$$$$$$$$$$$$$$$$%%%%    ",
"                                ++++++++++++    ++++++++++++++++++++++++++++XXXX                @@@@@@@@$$$$$$$$$$$$$$$$%%%%    ",
"                                XXXX++++oooo    XXXX++++++++++++++++++++oooo....                @@@@@@@@$$$$$$$$$$$$$$$$$$$$    ",
"                                XXXX++++oooo    XXXX++++++++++++++++++++oooo....                @@@@@@@@$$$$$$$$$$$$$$$$$$$$    ",
"                                XXXX++++oooo    XXXX++++++++++++++++++++oooo....                @@@@@@@@$$$$$$$$$$$$$$$$$$$$    ",
"                                XXXX++++oooo    XXXX++++++++++++++++++++oooo....                @@@@@@@@$$$$$$$$$$$$$$$$$$$$    ",
"                                                                                                @@@@@@@@$$$$$$$$$$$$$$$$%%%%    ",
"                                                                                                @@@@@@@@$$$$$$$$$$$$$$$$%%%%    ",
"                                                                                                @@@@@@@@$$$$$$$$$$$$$$$$%%%%    ",
"                                                                                                @@@@@@@@$$$$$$$$$$$$$$$$%%%%    ",
"                                    XXXX++++++++++++++++++++XXXX    ooooXXXXXXXXXXXX....        @@@@@@@@$$$$$$$$$$$$$$$$%%%%    ",
"                                    XXXX++++++++++++++++++++XXXX    ooooXXXXXXXXXXXX....        @@@@@@@@$$$$$$$$$$$$$$$$%%%%    ",
"                                    XXXX++++++++++++++++++++XXXX    ooooXXXXXXXXXXXX....        @@@@@@@@$$$$$$$$$$$$$$$$%%%%    ",
"                                    XXXX++++++++++++++++++++XXXX    ooooXXXXXXXXXXXX....        @@@@@@@@$$$$$$$$$$$$$$$$%%%%    ",
"                                    ++++++++++++++++++++++++++++    ++++XXXXXXXXXXXXXXXX        @@@@@@@@####$$$$$$$$$$$$$$$$    ",
"                                    ++++++++++++++++++++++++++++    ++++XXXXXXXXXXXXXXXX        @@@@@@@@####$$$$$$$$$$$$$$$$    ",
"                                    ++++++++++++++++++++++++++++    ++++XXXXXXXXXXXXXXXX        @@@@@@@@####$$$$$$$$$$$$$$$$    ",
"                                    ++++++++++++++++++++++++++++    ++++XXXXXXXXXXXXXXXX        @@@@@@@@####$$$$$$$$$$$$$$$$    ",
"                                    XXXX++++++++++++++++++++XXXX    ooooXXXXXXXXXXXX....        @@@@@@@@@@@@####$$$$$$$$####    ",
"                                    XXXX++++++++++++++++++++XXXX    ooooXXXXXXXXXXXX....        @@@@@@@@@@@@####$$$$$$$$####    ",
"                                    XXXX++++++++++++++++++++XXXX    ooooXXXXXXXXXXXX....        @@@@@@@@@@@@####$$$$$$$$####    ",
"                                    XXXX++++++++++++++++++++XXXX    ooooXXXXXXXXXXXX....        @@@@@@@@@@@@####$$$$$$$$####    ",
"                                                                                                OOOO@@@@@@@@@@@@@@@@@@@@@@@@    ",
"                                                                                                OOOO@@@@@@@@@@@@@@@@@@@@@@@@    ",
"                                                                                                OOOO@@@@@@@@@@@@@@@@@@@@@@@@    ",
"                                                                                                OOOO@@@@@@@@@@@@@@@@@@@@@@@@    ",
"                                oooo++++XXXX    XXXX++++++++++++++++++++oooo....                                                ",
"                                oooo++++XXXX    XXXX++++++++++++++++++++oooo....                                                ",
"                                oooo++++XXXX    XXXX++++++++++++++++++++oooo....                                                ",
"                                oooo++++XXXX    XXXX++++++++++++++++++++oooo....                                                ",
"                                ++++++++++++    ++++++++++++++++++++++++++++XXXX                OOOO@@@@@@@@@@@@@@@@@@@@@@@@    ",
"                                ++++++++++++    ++++++++++++++++++++++++++++XXXX                OOOO@@@@@@@@@@@@@@@@@@@@@@@@    ",
"                                ++++++++++++    ++++++++++++++++++++++++++++XXXX                OOOO@@@@@@@@@@@@@@@@@@@@@@@@    ",
"                                ++++++++++++    ++++++++++++++++++++++++++++XXXX                OOOO@@@@@@@@@@@@@@@@@@@@@@@@    ",
"                                XXXX++++oooo    XXXX++++++++++++++++++++oooo....                @@@@@@@@@@@@####$$$$$$$$####    ",
"                                XXXX++++oooo    XXXX++++++++++++++++++++oooo....                @@@@@@@@@@@@####$$$$$$$$####    ",
"                                XXXX++++oooo    XXXX++++++++++++++++++++oooo....                @@@@@@@@@@@@####$$$$$$$$####    ",
"                                XXXX++++oooo    XXXX++++++++++++++++++++oooo....                @@@@@@@@@@@@####$$$$$$$$####    ",
"                                                                                                @@@@@@@@####$$$$$$$$$$$$$$$$    ",
"                                                                                                @@@@@@@@####$$$$$$$$$$$$$$$$    ",
"                                                                                                @@@@@@@@####$$$$$$$$$$$$$$$$    ",
"                                                                                                @@@@@@@@####$$$$$$$$$$$$$$$$    ",
"                                    XXXX++++++++++++++++++++XXXX    ooooXXXXXXXXXXXX....        @@@@@@@@$$$$$$$$$$$$$$$$$$$$    ",
"                                    XXXX++++++++++++++++++++XXXX    ooooXXXXXXXXXXXX....        @@@@@@@@$$$$$$$$$$$$$$$$$$$$    ",
"                                    XXXX++++++++++++++++++++XXXX    ooooXXXXXXXXXXXX....        @@@@@@@@$$$$$$$$$$$$$$$$$$$$    ",
"                                    XXXX++++++++++++++++++++XXXX    ooooXXXXXXXXXXXX....        @@@@@@@@$$$$$$$$$$$$$$$$$$$$    ",
"                                    ++++++++++++++++++++++++++++    ++++XXXXXXXXXXXXXXXX        @@@@@@@@$$$$$$$$$$$$$$$$%%%%    ",
"                                    ++++++++++++++++++++++++++++    ++++XXXXXXXXXXXXXXXX        @@@@@@@@$$$$$$$$$$$$$$$$%%%%    ",
"                                    ++++++++++++++++++++++++++++    ++++XXXXXXXXXXXXXXXX        @@@@@@@@$$$$$$$$$$$$$$$$%%%%    ",
"                                    ++++++++++++++++++++++++++++    ++++XXXXXXXXXXXXXXXX        @@@@@@@@$$$$$$$$$$$$$$$$%%%%    ",
"                                    XXXX++++++++++++++++++++XXXX    ooooXXXXXXXXXXXX....        @@@@@@@@$$$$$$$$$$$$$$$$%%%%    ",
"                                    XXXX++++++++++++++++++++XXXX    ooooXXXXXXXXXXXX....        @@@@@@@@$$$$$$$$$$$$$$$$%%%%    ",
"                                    XXXX++++++++++++++++++++XXXX    ooooXXXXXXXXXXXX....        @@@@@@@@$$$$$$$$$$$$$$$$%%%%    ",
"                                    XXXX++++++++++++++++++++XXXX    ooooXXXXXXXXXXXX....        @@@@@@@@$$$$$$$$$$$$$$$$%%%%    ",
"                                                                                                @@@@@@@@$$$$$$$$$$$$$$$$&&&&    ",
"                                                                                                @@@@@@@@$$$$$$$$$$$$$$$$&&&&    ",
"                                                                                                @@@@@@@@$$$$$$$$$$$$$$$$&&&&    ",
"                                                                                                @@@@@@@@$$$$$$$$$$$$$$$$&&&&    ",
"                                oooo++++XXXX    XXXX++++++++++++++++++++oooo....                @@@@@@@@$$$$$$$$$$$$$$$$%%%%    ",
"                                oooo++++XXXX    XXXX++++++++++++++++++++oooo....                @@@@@@@@$$$$$$$$$$$$$$$$%%%%    ",
"                                oooo++++XXXX    XXXX++++++++++++++++++++oooo....                @@@@@@@@$$$$$$$$$$$$$$$$%%%%    ",
"                                oooo++++XXXX    XXXX++++++++++++++++++++oooo....                @@@@@@@@$$$$$$$$$$$$$$$$%%%%    ",
"                                ++++++++++++    ++++++++++++++++++++++++++++XXXX                @@@@@@@@$$$$$$$$$$$$$$$$$$$$    ",
"                                ++++++++++++    ++++++++++++++++++++++++++++XXXX                @@@@@@@@$$$$$$$$$$$$$$$$$$$$    ",
"                                ++++++++++++    ++++++++++++++++++++++++++++XXXX                @@@@@@@@$$$$$$$$$$$$$$$$$$$$    ",
"                                ++++++++++++    ++++++++++++++++++++++++++++XXXX                @@@@@@@@$$$$$$$$$$$$$$$$$$$$    ",
"                                XXXX++++oooo    XXXX++++++++++++++++++++oooo....                @@@@@@@@####$$$$$$$$$$$$$$$$    ",
"                                XXXX++++oooo    XXXX++++++++++++++++++++oooo....                @@@@@@@@####$$$$$$$$$$$$$$$$    ",
"                                XXXX++++oooo    XXXX++++++++++++++++++++oooo....                @@@@@@@@####$$$$$$$$$$$$$$$$    ",
"                                XXXX++++oooo    XXXX++++++++++++++++++++oooo....                @@@@@@@@####$$$$$$$$$$$$$$$$    ",
"                                                                                                @@@@@@@@@@@@####$$$$$$$$####    ",
"                                                                                                @@@@@@@@@@@@####$$$$$$$$####    ",
"                                                                                                @@@@@@@@@@@@####$$$$$$$$####    ",
"                                                                                                @@@@@@@@@@@@####$$$$$$$$####    ",
"                                    XXXX++++++++++++++++++++XXXX    ooooXXXXXXXXXXXX....        OOOO@@@@@@@@@@@@@@@@@@@@@@@@    ",
"                                    XXXX++++++++++++++++++++XXXX    ooooXXXXXXXXXXXX....        OOOO@@@@@@@@@@@@@@@@@@@@@@@@    ",
"                                    XXXX++++++++++++++++++++XXXX    ooooXXXXXXXXXXXX....        OOOO@@@@@@@@@@@@@@@@@@@@@@@@    ",
"                                    XXXX++++++++++++++++++++XXXX    ooooXXXXXXXXXXXX....        OOOO@@@@@@@@@@@@@@@@@@@@@@@@    ",
"                                    ++++++++++++++++++++++++++++    ++++XXXXXXXXXXXXXXXX                                        ",
"                                    ++++++++++++++++++++++++++++    ++++XXXXXXXXXXXXXXXX                                        ",
"                                    ++++++++++++++++++++++++++++    ++++XXXXXXXXXXXXXXXX                                        ",
"                                    ++++++++++++++++++++++++++++    ++++XXXXXXXXXXXXXXXX                                        ",
"                                    XXXX++++++++++++++++++++XXXX    ooooXXXXXXXXXXXX....        OOOO@@@@@@@@@@@@@@@@@@@@@@@@    ",
"                                    XXXX++++++++++++++++++++XXXX    ooooXXXXXXXXXXXX....        OOOO@@@@@@@@@@@@@@@@@@@@@@@@    ",
"                                    XXXX++++++++++++++++++++XXXX    ooooXXXXXXXXXXXX....        OOOO@@@@@@@@@@@@@@@@@@@@@@@@    ",
"                                    XXXX++++++++++++++++++++XXXX    ooooXXXXXXXXXXXX....        OOOO@@@@@@@@@@@@@@@@@@@@@@@@    ",
"                                                                                                @@@@@@@@@@@@####$$$$$$$$####    ",
"                                                                                                @@@@@@@@@@@@####$$$$$$$$####    ",
"                                                                                                @@@@@@@@@@@@####$$$$$$$$####    ",
"                                                                                                @@@@@@@@@@@@####$$$$$$$$####    ",
"                                oooo++++XXXX    XXXX++++++++++++++++++++oooo....                @@@@@@@@####$$$$$$$$$$$$$$$$    ",
"                                oooo++++XXXX    XXXX++++++++++++++++++++oooo....                @@@@@@@@####$$$$$$$$$$$$$$$$    ",
"                                oooo++++XXXX    XXXX++++++++++++++++++++oooo....                @@@@@@@@####$$$$$$$$$$$$$$$$    ",
"                                oooo++++XXXX    XXXX++++++++++++++++++++oooo....                @@@@@@@@####$$$$$$$$$$$$$$$$    ",
"                                ++++++++++++    ++++++++++++++++++++++++++++XXXX                @@@@@@@@$$$$$$$$$$$$$$$$$$$$    ",
"                                ++++++++++++    ++++++++++++++++++++++++++++XXXX                @@@@@@@@$$$$$$$$$$$$$$$$$$$$    ",
"                                ++++++++++++    ++++++++++++++++++++++++++++XXXX                @@@@@@@@$$$$$$$$$$$$$$$$$$$$    ",
"                                ++++++++++++    ++++++++++++++++++++++++++++XXXX                @@@@@@@@$$$$$$$$$$$$$$$$$$$$    ",
"                                XXXX++++oooo    XXXX++++++++++++++++++++oooo....                @@@@@@@@$$$$$$$$$$$$$$$$%%%%    ",
"                                XXXX++++oooo    XXXX++++++++++++++++++++oooo....                @@@@@@@@$$$$$$$$$$$$$$$$%%%%    ",
"                                XXXX++++oooo    XXXX++++++++++++++++++++oooo....                @@@@@@@@$$$$$$$$$$$$$$$$%%%%    ",
"                                XXXX++++oooo    XXXX++++++++++++++++++++oooo....                @@@@@@@@$$$$$$$$$$$$$$$$%%%%    "
};
