/* XPM */
static char *result[] = {
/* columns rows colors chars-per-pixel */
"128 128 11 1 ",
"  c #39334D",
". c #80375B",
"X c #A2474E",
"o c #B35B55",
"O c #C45C57",
"+ c #C27968",
"@ c #D68672",
"# c #E3A787",
"$ c #F3CDA0",
"% c #FCECBF",
"& c #FEFADB",
/* pixels */
"    %%%%$$$$$$$$$$$$$$$$@@@@@@@@                                                                                                ",
"    %%%%$$$$$$$$$$$$$$$$@@@@@@@@                                                                                                ",
"    %%%%$$$$$$$$$$$$$$$$@@@@@@@@                                                                                                ",
"    %%%%$$$$$$$$$$$$$$$$@@@@@@@@                                                                                                ",
"    $$$$$$$$$$$$$$$$$$$$@@@@@@@@        ....XXXXXXXXXXXXooooXXXX    XXXX++++++++++++++++++++XXXX                                ",
"    $$$$$$$$$$$$$$$$$$$$@@@@@@@@        ....XXXXXXXXXXXXooooXXXX    XXXX++++++++++++++++++++XXXX                                ",
"    $$$$$$$$$$$$$$$$$$$$@@@@@@@@        ....XXXXXXXXXXXXooooXXXX    XXXX++++++++++++++++++++XXXX                                ",
"    $$$$$$$$$$$$$$$$$$$$@@@@@@@@        ....XXXXXXXXXXXXooooXXXX    XXXX++++++++++++++++++++XXXX                                ",
"    $$$$$$$$$$$$$$$$####@@@@@@@@        XXXXXXXXXXXXXXXX++++++++    ++++++++++++++++++++++++++++                                ",
"    $$$$$$$$$$$$$$$$####@@@@@@@@        XXXXXXXXXXXXXXXX++++++++    ++++++++++++++++++++++++++++                                ",
"    $$$$$$$$$$$$$$$$####@@@@@@@@        XXXXXXXXXXXXXXXX++++++++    ++++++++++++++++++++++++++++                                ",
"    $$$$$$$$$$$$$$$$####@@@@@@@@        XXXXXXXXXXXXXXXX++++++++    ++++++++++++++++++++++++++++                                ",
"    ####$$$$$$$$####@@@@@@@@@@@@        ....XXXXXXXXXXXXooooXXXX    XXXX++++++++++++++++++++XXXX                                ",
"    ####$$$$$$$$####@@@@@@@@@@@@        ....XXXXXXXXXXXXooooXXXX    XXXX++++++++++++++++++++XXXX                                ",
"    ####$$$$$$$$####@@@@@@@@@@@@        ....XXXXXXXXXXXXooooXXXX    XXXX++++++++++++++++++++XXXX                                ",
"    ####$$$$$$$$####@@@@@@@@@@@@        ....XXXXXXXXXXXXooooXXXX    XXXX++++++++++++++++++++XXXX                                ",
"    @@@@@@@@@@@@@@@@@@@@@@@@OOOO                                                                                                ",
"    @@@@@@@@@@@@@@@@@@@@@@@@OOOO                                                                                                ",
"    @@@@@@@@@@@@@@@@@@@@@@@@OOOO                                                                                                ",
"    @@@@@@@@@@@@@@@@@@@@@@@@OOOO                                                                                                ",
"                                                ....oooo++++++++++++++++++++XXXX    XXXX++++++++XXXX                            ",
"                                                ....oooo++++++++++++++++++++XXXX    XXXX++++++++XXXX                            ",
"                                                ....oooo++++++++++++++++++++XXXX    XXXX++++++++XXXX                            ",
"                                                ....oooo++++++++++++++++++++XXXX    XXXX++++++++XXXX                            ",
"    @@@@@@@@@@@@@@@@@@@@@@@@OOOO                XXXX++++++++++++++++++++++++++++    ++++++++++++++++                            ",
"    @@@@@@@@@@@@@@@@@@@@@@@@OOOO                XXXX++++++++++++++++++++++++++++    ++++++++++++++++                            ",
"    @@@@@@@@@@@@@@@@@@@@@@@@OOOO                XXXX++++++++++++++++++++++++++++    ++++++++++++++++                            ",
"    @@@@@@@@@@@@@@@@@@@@@@@@OOOO                XXXX++++++++++++++++++++++++++++    ++++++++++++++++                            ",
"    ####$$$$$$$$####@@@@@@@@@@@@                ....oooo++++++++++++++++++++XXXX    XXXX++++++++XXXX                            ",
"    ####$$$$$$$$####@@@@@@@@@@@@                ....oooo++++++++++++++++++++XXXX    XXXX++++++++XXXX                            ",
"    ####$$$$$$$$####@@@@@@@@@@@@                ....oooo++++++++++++++++++++XXXX    XXXX++++++++XXXX                            ",
"    ####$$$$$$$$####@@@@@@@@@@@@                ....oooo++++++++++++++++++++XXXX    XXXX++++++++XXXX                            ",
"    $$$$$$$$$$$$$$$$####@@@@@@@@                                                                                                ",
"    $$$$$$$$$$$$$$$$####@@@@@@@@                                                                                                ",
"    $$$$$$$$$$$$$$$$####@@@@@@@@                                                                                                ",
"    $$$$$$$$$$$$$$$$####@@@@@@@@                                                                                                ",
"    $$$$$$$$$$$$$$$$$$$$@@@@@@@@        ....XXXXXXXXXXXXooooXXXX    XXXX++++++++++++++++++++XXXX                                ",
"    $$$$$$$$$$$$$$$$$$$$@@@@@@@@        ....XXXXXXXXXXXXooooXXXX    XXXX++++++++++++++++++++XXXX                                ",
"    $$$$$$$$$$$$$$$$$$$$@@@@@@@@        ....XXXXXXXXXXXXooooXXXX    XXXX++++++++++++++++++++XXXX                                ",
"    $$$$$$$$$$$$$$$$$$$$@@@@@@@@        ....XXXXXXXXXXXXooooXXXX    XXXX++++++++++++++++++++XXXX                                ",
"    %%%%$$$$$$$$$$$$$$$$@@@@@@@@        XXXXXXXXXXXXXXXX++++++++    ++++++++++++++++++++++++++++                                ",
"    %%%%$$$$$$$$$$$$$$$$@@@@@@@@        XXXXXXXXXXXXXXXX++++++++    ++++++++++++++++++++++++++++                                ",
"    %%%%$$$$$$$$$$$$$$$$@@@@@@@@        XXXXXXXXXXXXXXXX++++++++    ++++++++++++++++++++++++++++                                ",
"    %%%%$$$$$$$$$$$$$$$$@@@@@@@@        XXXXXXXXXXXXXXXX++++++++    ++++++++++++++++++++++++++++                                ",
"    &&&&$$$$$$$$$$$$$$$$@@@@@@@@        ....XXXXXXXXXXXXooooXXXX    XXXX++++++++++++++++++++XXXX                                ",
"    &&&&$$$$$$$$$$$$$$$$@@@@@@@@        ....XXXXXXXXXXXXooooXXXX    XXXX++++++++++++++++++++XXXX                                ",
"    &&&&$$$$$$$$$$$$$$$$@@@@@@@@        ....XXXXXXXXXXXXooooXXXX    XXXX++++++++++++++++++++XXXX                                ",
"    &&&&$$$$$$$$$$$$$$$$@@@@@@@@        ....XXXXXXXXXXXXooooXXXX    XXXX++++++++++++++++++++XXXX                                ",
"    %%%%$$$$$$$$$$$$$$$$@@@@@@@@                                                                                                ",
"    %%%%$$$$$$$$$$$$$$$$@@@@@@@@                                                                                                ",
"    %%%%$$$$$$$$$$$$$$$$@@@@@@@@                                                                                                ",
"    %%%%$$$$$$$$$$$$$$$$@@@@@@@@                                                                                                ",
"    %%%%$$$$$$$$$$$$$$$$@@@@@@@@                ....oooo++++++++++++++++++++XXXX    XXXX++++++++XXXX                            ",
"    %%%%$$$$$$$$$$$$$$$$@@@@@@@@                ....oooo++++++++++++++++++++XXXX    XXXX++++++++XXXX                            ",
"    %%%%$$$$$$$$$$$$$$$$@@@@@@@@                ....oooo++++++++++++++++++++XXXX    XXXX++++++++XXXX                            ",
"    %%%%$$$$$$$$$$$$$$$$@@@@@@@@                ....oooo++++++++++++++++++++XXXX    XXXX++++++++XXXX                            ",
"    $$$$$$$$$$$$$$$$$$$$@@@@@@@@                XXXX++++++++++++++++++++++++++++    ++++++++++++++++                            ",
"    $$$$$$$$$$$$$$$$$$$$@@@@@@@@                XXXX++++++++++++++++++++++++++++    ++++++++++++++++                            ",
"    $$$$$$$$$$$$$$$$$$$$@@@@@@@@                XXXX++++++++++++++++++++++++++++    ++++++++++++++++                            ",
"    $$$$$$$$$$$$$$$$$$$$@@@@@@@@                XXXX++++++++++++++++++++++++++++    ++++++++++++++++                            ",
"    $$$$$$$$$$$$$$$$####@@@@@@@@                ....oooo++++++++++++++++++++XXXX    XXXX++++++++XXXX                            ",
"    $$$$$$$$$$$$$$$$####@@@@@@@@                ....oooo++++++++++++++++++++XXXX    XXXX++++++++XXXX                            ",
"    $$$$$$$$$$$$$$$$####@@@@@@@@                ....oooo++++++++++++++++++++XXXX    XXXX++++++++XXXX                            ",
"    $$$$$$$$$$$$$$$$####@@@@@@@@                ....oooo++++++++++++++++++++XXXX    XXXX++++++++XXXX                            ",
"    ####$$$$$$$$####@@@@@@@@@@@@                                                                                                ",
"    ####$$$$$$$$####@@@@@@@@@@@@                                                                                                ",
"    ####$$$$$$$$####@@@@@@@@@@@@                                                                                                ",
"    ####$$$$$$$$####@@@@@@@@@@@@                                                                                                ",
"    @@@@@@@@@@@@@@@@@@@@@@@@OOOO        ....XXXXXXXXXXXXooooXXXX    XXXX++++++++++++++++++++XXXX                                ",
"    @@@@@@@@@@@@@@@@@@@@@@@@OOOO        ....XXXXXXXXXXXXooooXXXX    XXXX++++++++++++++++++++XXXX                                ",
"    @@@@@@@@@@@@@@@@@@@@@@@@OOOO        ....XXXXXXXXXXXXooooXXXX    XXXX++++++++++++++++++++XXXX                                ",
"    @@@@@@@@@@@@@@@@@@@@@@@@OOOO        ....XXXXXXXXXXXXooooXXXX    XXXX++++++++++++++++++++XXXX                                ",
"                                        XXXXXXXXXXXXXXXX++++++++    ++++++++++++++++++++++++++++                                ",
"                                        XXXXXXXXXXXXXXXX++++++++    ++++++++++++++++++++++++++++                                ",
"                                        XXXXXXXXXXXXXXXX++++++++    ++++++++++++++++++++++++++++                                ",
"                                        XXXXXXXXXXXXXXXX++++++++    ++++++++++++++++++++++++++++                                ",
"    @@@@@@@@@@@@@@@@@@@@@@@@OOOO        ....XXXXXXXXXXXXooooXXXX    XXXX++++++++++++++++++++XXXX                                ",
"    @@@@@@@@@@@@@@@@@@@@@@@@OOOO        ....XXXXXXXXXXXXooooXXXX    XXXX++++++++++++++++++++XXXX                                ",
"    @@@@@@@@@@@@@@@@@@@@@@@@OOOO        ....XXXXXXXXXXXXooooXXXX    XXXX++++++++++++++++++++XXXX                                ",
"    @@@@@@@@@@@@@@@@@@@@@@@@OOOO        ....XXXXXXXXXXXXooooXXXX    XXXX++++++++++++++++++++XXXX                                ",
"    ####$$$$$$$$####@@@@@@@@@@@@                                                                                                ",
"    ####$$$$$$$$####@@@@@@@@@@@@                                                                                                ",
"    ####$$$$$$$$####@@@@@@@@@@@@                                                                                                ",
"    ####$$$$$$$$####@@@@@@@@@@@@                                                                                                ",
"    $$$$$$$$$$$$$$$$####@@@@@@@@                ....oooo++++++++++++++++++++XXXX    XXXX++++++++XXXX                            ",
"    $$$$$$$$$$$$$$$$####@@@@@@@@                ....oooo++++++++++++++++++++XXXX    XXXX++++++++XXXX                            ",
"    $$$$$$$$$$$$$$$$####@@@@@@@@                ....oooo++++++++++++++++++++XXXX    XXXX++++++++XXXX                            ",
"    $$$$$$$$$$$$$$$$####@@@@@@@@                ....oooo++++++++++++++++++++XXXX    XXXX++++++++XXXX                            ",
"    %%%%$$$$$$$$$$$$$$$$@@@@@@@@                XXXX++++++++++++++++++++++++++++    ++++++++++++++++                            ",
"    %%%%$$$$$$$$$$$$$$$$@@@@@@@@                XXXX++++++++++++++++++++++++++++    ++++++++++++++++                            ",
"    %%%%$$$$$$$$$$$$$$$$@@@@@@@@                XXXX++++++++++++++++++++++++++++    ++++++++++++++++                            ",
"    %%%%$$$$$$$$$$$$$$$$@@@@@@@@                XXXX++++++++++++++++++++++++++++    ++++++++++++++++                            ",
"    %%%%$$$$$$$$$$$$$$$$@@@@@@@@                ....oooo++++++++++++++++++++XXXX    XXXX++++++++XXXX                            ",
"    %%%%$$$$$$$$$$$$$$$$@@@@@@@@                ....oooo++++++++++++++++++++XXXX    XXXX++++++++XXXX                            ",
"    %%%%$$$$$$$$$$$$$$$$@@@@@@@@                ....oooo++++++++++++++++++++XXXX    XXXX++++++++XXXX                            ",
"    %%%%$$$$$$$$$$$$$$$$@@@@@@@@                ....oooo++++++++++++++++++++XXXX    XXXX++++++++XXXX                            ",
"    $$$$$$$$$$$$$$$$$$$$@@@@@@@@                                                                                                ",
"    $$$$$$$$$$$$$$$$$$$$@@@@@@@@                                                                                                ",
"    $$$$$$$$$$$$$$$$$$$$@@@@@@@@                                                                                                ",
"    $$$$$$$$$$$$$$$$$$$$@@@@@@@@                                                                                                ",
"    %%%%$$$$$$$$$$$$$$$$@@@@@@@@        ....XXXXXXXXXXXXooooXXXX    XXXX++++++++++++++++++++XXXX                                ",
"    %%%%$$$$$$$$$$$$$$$$@@@@@@@@        ....XXXXXXXXXXXXooooXXXX    XXXX++++++++++++++++++++XXXX                                ",
"    %%%%$$$$$$$$$$$$$$$$@@@@@@@@        ....XXXXXXXXXXXXooooXXXX    XXXX++++++++++++++++++++XXXX                                ",
"    %%%%$$$$$$$$$$$$$$$$@@@@@@@@        ....XXXXXXXXXXXXooooXXXX    XXXX++++++++++++++++++++XXXX                                ",
"    &&&&$$$$$$$$$$$$$$$$@@@@@@@@        XXXXXXXXXXXXXXXX++++++++    ++++++++++++++++++++++++++++                                ",
"    &&&&$$$$$$$$$$$$$$$$@@@@@@@@        XXXXXXXXXXXXXXXX++++++++    ++++++++++++++++++++++++++++                                ",
"    &&&&$$$$$$$$$$$$$$$$@@@@@@@@        XXXXXXXXXXXXXXXX++++++++    ++++++++++++++++++++++++++++                                ",
"    &&&&$$$$$$$$$$$$$$$$@@@@@@@@        XXXXXXXXXXXXXXXX++++++++    ++++++++++++++++++++++++++++                                ",
"    %%%%$$$$$$$$$$$$$$$$@@@@@@@@        ....XXXXXXXXXXXXooooXXXX    XXXX++++++++++++++++++++XXXX                                ",
"    %%%%$$$$$$$$$$$$$$$$@@@@@@@@        ....XXXXXXXXXXXXooooXXXX    XXXX++++++++++++++++++++XXXX                                ",
"    %%%%$$$$$$$$$$$$$$$$@@@@@@@@        ....XXXXXXXXXXXXooooXXXX    XXXX++++++++++++++++++++XXXX                                ",
"    %%%%$$$$$$$$$$$$$$$$@@@@@@@@        ....XXXXXXXXXXXXooooXXXX    XXXX++++++++++++++++++++XXXX                                ",
"    &&&&$$$$$$$$$$$$$$$$@@@@@@@@                                                                                                ",
"    &&&&$$$$$$$$$$$$$$$$@@@@@@@@                                                                                                ",
"    &&&&$$$$$$$$$$$$$$$$@@@@@@@@                                                                                                ",
"    &&&&$$$$$$$$$$$$$$$$@@@@@@@@                                                                                                ",
"    &&&&$$$$$$$$$$$$$$$$@@@@@@@@                ....oooo++++++++++++++++++++XXXX    XXXX++++++++XXXX                            ",
"    &&&&$$$$$$$$$$$$$$$$@@@@@@@@                ....oooo++++++++++++++++++++XXXX    XXXX++++++++XXXX                            ",
"    &&&&$$$$$$$$$$$$$$$$@@@@@@@@                ....oooo++++++++++++++++++++XXXX    XXXX++++++++XXXX                            ",
"    &&&&$$$$$$$$$$$$$$$$@@@@@@@@                ....oooo++++++++++++++++++++XXXX    XXXX++++++++XXXX                            ",
"    %%%%$$$$$$$$$$$$$$$$@@@@@@@@                XXXX++++++++++++++++++++++++++++    ++++++++++++++++                            ",
"    %%%%$$$$$$$$$$$$$$$$@@@@@@@@                XXXX++++++++++++++++++++++++++++    ++++++++++++++++                            ",
"    %%%%$$$$$$$$$$$$$$$$@@@@@@@@                XXXX++++++++++++++++++++++++++++    ++++++++++++++++                            ",
"    %%%%$$$$$$$$$$$$$$$$@@@@@@@@                XXXX++++++++++++++++++++++++++++    ++++++++++++++++                            ",
"    $$$$$$$$$$$$$$$$$$$$@@@@@@@@                ....oooo++++++++++++++++++++XXXX    XXXX++++++++XXXX                            ",
"    $$$$$$$$$$$$$$$$$$$$@@@@@@@@                ....oooo++++++++++++++++++++XXXX    XXXX++++++++XXXX                            ",
"    $$$$$$$$$$$$$$$$$$$$@@@@@@@@                ....oooo++++++++++++++++++++XXXX    XXXX++++++++XXXX                            ",
"    $$$$$$$$$$$$$$$$$$$$@@@@@@@@                ....oooo++++++++++++++++++++XXXX    XXXX++++++++XXXX                            "
};
