/* XPM */
static char *result[] = {
/* columns rows colors chars-per-pixel */
"128 128 10 1 ",
"  c #39334D",
". c #80375B",
"X c #A2484E",
"o c #B35B55",
"O c #C45C57",
"+ c #C27968",
"@ c #D68672",
"# c #E3A787",
"$ c #F3CDA0",
"% c #FCF1C9",
/* pixels */
"                                                                                                                                ",
"                                                                                                                                ",
"                                                                                                                                ",
"                                                                                                                                ",
"    %%%%%%%%%%%%$$$$$$$$@@@@OOOO        ....XXXXXXXXXXXXooooXXXX    XXXX++++++++++++++++XXXX                                    ",
"    %%%%%%%%%%%%$$$$$$$$@@@@OOOO        ....XXXXXXXXXXXXooooXXXX    XXXX++++++++++++++++XXXX                                    ",
"    %%%%%%%%%%%%$$$$$$$$@@@@OOOO        ....XXXXXXXXXXXXooooXXXX    XXXX++++++++++++++++XXXX                                    ",
"    %%%%%%%%%%%%$$$$$$$$@@@@OOOO        ....XXXXXXXXXXXXooooXXXX    XXXX++++++++++++++++XXXX                                    ",
"    $$$$$$$$$$$$$$$$$$$$@@@@@@@@        XXXXXXXXXXXXXXXX++++++++    ++++++++++++++++++++++++                                    ",
"    $$$$$$$$$$$$$$$$$$$$@@@@@@@@        XXXXXXXXXXXXXXXX++++++++    ++++++++++++++++++++++++                                    ",
"    $$$$$$$$$$$$$$$$$$$$@@@@@@@@        XXXXXXXXXXXXXXXX++++++++    ++++++++++++++++++++++++                                    ",
"    $$$$$$$$$$$$$$$$$$$$@@@@@@@@        XXXXXXXXXXXXXXXX++++++++    ++++++++++++++++++++++++                                    ",
"    $$$$$$$$$$$$$$$$$$$$@@@@@@@@        ....XXXXXXXXXXXXooooXXXX    XXXX++++++++++++++++XXXX                                    ",
"    $$$$$$$$$$$$$$$$$$$$@@@@@@@@        ....XXXXXXXXXXXXooooXXXX    XXXX++++++++++++++++XXXX                                    ",
"    $$$$$$$$$$$$$$$$$$$$@@@@@@@@        ....XXXXXXXXXXXXooooXXXX    XXXX++++++++++++++++XXXX                                    ",
"    $$$$$$$$$$$$$$$$$$$$@@@@@@@@        ....XXXXXXXXXXXXooooXXXX    XXXX++++++++++++++++XXXX                                    ",
"    $$$$$$$$$$$$$$$$####@@@@@@@@                                                                                                ",
"    $$$$$$$$$$$$$$$$####@@@@@@@@                                                                                                ",
"    $$$$$$$$$$$$$$$$####@@@@@@@@                                                                                                ",
"    $$$$$$$$$$$$$$$$####@@@@@@@@                                                                                                ",
"    $$$$$$$$$$$$####@@@@@@@@@@@@                ....oooo++++++++++++++++++++XXXX                                                ",
"    $$$$$$$$$$$$####@@@@@@@@@@@@                ....oooo++++++++++++++++++++XXXX                                                ",
"    $$$$$$$$$$$$####@@@@@@@@@@@@                ....oooo++++++++++++++++++++XXXX                                                ",
"    $$$$$$$$$$$$####@@@@@@@@@@@@                ....oooo++++++++++++++++++++XXXX                                                ",
"    @@@@@@@@@@@@@@@@@@@@@@@@@@@@                XXXX++++++++++++++++++++++++++++                                                ",
"    @@@@@@@@@@@@@@@@@@@@@@@@@@@@                XXXX++++++++++++++++++++++++++++                                                ",
"    @@@@@@@@@@@@@@@@@@@@@@@@@@@@                XXXX++++++++++++++++++++++++++++                                                ",
"    @@@@@@@@@@@@@@@@@@@@@@@@@@@@                XXXX++++++++++++++++++++++++++++                                                ",
"    OOOO@@@@@@@@@@@@@@@@@@@@OOOO                ....oooo++++++++++++++++++++XXXX                                                ",
"    OOOO@@@@@@@@@@@@@@@@@@@@OOOO                ....oooo++++++++++++++++++++XXXX                                                ",
"    OOOO@@@@@@@@@@@@@@@@@@@@OOOO                ....oooo++++++++++++++++++++XXXX                                                ",
"    OOOO@@@@@@@@@@@@@@@@@@@@OOOO                ....oooo++++++++++++++++++++XXXX                                                ",
"                                                                                                                                ",
"                                                                                                                                ",
"                                                                                                                                ",
"                                                                                                                                ",
"                                        ....XXXXXXXXXXXX++++XXXX    XXXX++++++++++++++++XXXX                                    ",
"                                        ....XXXXXXXXXXXX++++XXXX    XXXX++++++++++++++++XXXX                                    ",
"                                        ....XXXXXXXXXXXX++++XXXX    XXXX++++++++++++++++XXXX                                    ",
"                                        ....XXXXXXXXXXXX++++XXXX    XXXX++++++++++++++++XXXX                                    ",
"    ....XXXXXXXXXXXXXXXXXXXXXXXX....    XXXXXXXXXXXXXXXX++++++++    ++++++++++++++++++++++++                                    ",
"    ....XXXXXXXXXXXXXXXXXXXXXXXX....    XXXXXXXXXXXXXXXX++++++++    ++++++++++++++++++++++++                                    ",
"    ....XXXXXXXXXXXXXXXXXXXXXXXX....    XXXXXXXXXXXXXXXX++++++++    ++++++++++++++++++++++++                                    ",
"    ....XXXXXXXXXXXXXXXXXXXXXXXX....    XXXXXXXXXXXXXXXX++++++++    ++++++++++++++++++++++++                                    ",
"    XXXXXXXXXXXXXXXXXXXXXXXXXXXXXXXX    ....XXXXXXXXXXXX++++XXXX    XXXX++++++++++++++++XXXX                                    ",
"    XXXXXXXXXXXXXXXXXXXXXXXXXXXXXXXX    ....XXXXXXXXXXXX++++XXXX    XXXX++++++++++++++++XXXX                                    ",
"    XXXXXXXXXXXXXXXXXXXXXXXXXXXXXXXX    ....XXXXXXXXXXXX++++XXXX    XXXX++++++++++++++++XXXX                                    ",
"    XXXXXXXXXXXXXXXXXXXXXXXXXXXXXXXX    ....XXXXXXXXXXXX++++XXXX    XXXX++++++++++++++++XXXX                                    ",
"                                                                                                                                ",
"                                                                                                                                ",
"                                                                                                                                ",
"                                                                                                                                ",
"XXXXXXXXXXXXXXXX....    ....XXXXXXXXXXXXXXXX....    XXXX++++++++++++++++++++++++XXXX                                            ",
"XXXXXXXXXXXXXXXX....    ....XXXXXXXXXXXXXXXX....    XXXX++++++++++++++++++++++++XXXX                                            ",
"XXXXXXXXXXXXXXXX....    ....XXXXXXXXXXXXXXXX....    XXXX++++++++++++++++++++++++XXXX                                            ",
"XXXXXXXXXXXXXXXX....    ....XXXXXXXXXXXXXXXX....    XXXX++++++++++++++++++++++++XXXX                                            ",
"++++++++++++++++oooo    oooo++++++++++++++++oooo    ++++++++++++++++++++++++++++++++                                            ",
"++++++++++++++++oooo    oooo++++++++++++++++oooo    ++++++++++++++++++++++++++++++++                                            ",
"++++++++++++++++oooo    oooo++++++++++++++++oooo    ++++++++++++++++++++++++++++++++                                            ",
"++++++++++++++++oooo    oooo++++++++++++++++oooo    ++++++++++++++++++++++++++++++++                                            ",
"++++++++++++++++XXXX    XXXX++++++++++++++++XXXX    XXXX++++++++++++++++++++++++XXXX                                            ",
"++++++++++++++++XXXX    XXXX++++++++++++++++XXXX    XXXX++++++++++++++++++++++++XXXX                                            ",
"++++++++++++++++XXXX    XXXX++++++++++++++++XXXX    XXXX++++++++++++++++++++++++XXXX                                            ",
"++++++++++++++++XXXX    XXXX++++++++++++++++XXXX    XXXX++++++++++++++++++++++++XXXX                                            ",
"                                                                                                                                ",
"                                                                                                                                ",
"                                                                                                                                ",
"                                                                                                                                ",
"    XXXX++++++++++++++++++++++++XXXX                                                                                            ",
"    XXXX++++++++++++++++++++++++XXXX                                                                                            ",
"    XXXX++++++++++++++++++++++++XXXX                                                                                            ",
"    XXXX++++++++++++++++++++++++XXXX                                                                                            ",
"    ++++++++++++++++++++++++++++++++                                                                                            ",
"    ++++++++++++++++++++++++++++++++                                                                                            ",
"    ++++++++++++++++++++++++++++++++                                                                                            ",
"    ++++++++++++++++++++++++++++++++                                                                                            ",
"    XXXX++++++++++++++++++++++++XXXX                                                                                            ",
"    XXXX++++++++++++++++++++++++XXXX                                                                                            ",
"    XXXX++++++++++++++++++++++++XXXX                                                                                            ",
"    XXXX++++++++++++++++++++++++XXXX                                                                                            ",
"                                                                                                                                ",
"                                                                                                                                ",
"                                                                                                                                ",
"                                                                                                                                ",
"++++++++++++++++XXXX    oooo++++++++++++++++oooo                                                                                ",
"++++++++++++++++XXXX    oooo++++++++++++++++oooo                                                                                ",
"++++++++++++++++XXXX    oooo++++++++++++++++oooo                                                                                ",
"++++++++++++++++XXXX    oooo++++++++++++++++oooo                                                                                ",
"++++++++++++++++++++    XXXXoooo++++++++ooooXXXX                                                                                ",
"++++++++++++++++++++    XXXXoooo++++++++ooooXXXX                                                                                ",
"++++++++++++++++++++    XXXXoooo++++++++ooooXXXX                                                                                ",
"++++++++++++++++++++    XXXXoooo++++++++ooooXXXX                                                                                ",
"++++++++++++++++XXXX                                                                                                            ",
"++++++++++++++++XXXX                                                                                                            ",
"++++++++++++++++XXXX                                                                                                            ",
"++++++++++++++++XXXX                                                                                                            ",
"                                                                                                                                ",
"                                                                                                                                ",
"                                                                                                                                ",
"                                                                                                                                ",
"                                                                                                                                ",
"                                                                                                                                ",
"                                                                                                                                ",
"                                                                                                                                ",
"                                                                                                                                ",
"                                                                                                                                ",
"                                                                                                                                ",
"                                                                                                                                ",
"                                                                                                                                ",
"                                                                                                                                ",
"                                                                                                                                ",
"                                                                                                                                ",
"                                                                                                                                ",
"                                                                                                                                ",
"                                                                                                                                ",
"                                                                                                                                ",
"                                                                                                                                ",
"                                                                                                                                ",
"                                                                                                                                ",
"                                                                                                                                ",
"                                                                                                                                ",
"                                                                                                                                ",
"                                                                                                                                ",
"                                                                                                                                ",
"                                                                                                                                ",
"                                                                                                                                ",
"                                                                                                                                ",
"                                                                                                                                "
};
