/* XPM */
static char *result[] = {
/* columns rows colors chars-per-pixel */
"64 64 12 1 ",
"  c #3E394F",
". c #A14B50",
"X c #C07767",
"o c #B15D57",
"O c #7E3C5B",
"+ c #C25E58",
"@ c #D48472",
"# c #E1A585",
"$ c #F3CB9E",
"% c #FBEABD",
"& c #FEFADA",
"* c white",
/* pixels */
"                                                                ",
"                                                                ",
"                                                                ",
"                                                                ",
"                                                                ",
"                                                                ",
"                                                                ",
"                                                                ",
"                                                                ",
"                                                                ",
"                                                                ",
"                                                                ",
"                                                                ",
"                                                                ",
"                                                                ",
"                                                                ",
"                                                                ",
"                                                                ",
"                                                    ..XXXXXXXX..",
"                                                    ..XXXXXXXX..",
"                                    ..ooXXXXXXoo..  XXXXXXXXXXXX",
"                                    ..ooXXXXXXoo..  XXXXXXXXXXXX",
"                                    ooXXXXXXXXXXoo  ..XXXXXXXX..",
"                                    ooXXXXXXXXXXoo  ..XXXXXXXX..",
"                                                                ",
"                                                                ",
"                          ..XXXXXXXXXXXX..  ..XXXXXXXX..  ..XXXX",
"                          ..XXXXXXXXXXXX..  ..XXXXXXXX..  ..XXXX",
"                          XXXXXXXXXXXXXXXX  XXXXXXXXXXXX  XXXXXX",
"                          XXXXXXXXXXXXXXXX  XXXXXXXXXXXX  XXXXXX",
"                          ..XXXXXXXXXXXX..  ..XXXXXXXX..  ..XXXX",
"                          ..XXXXXXXXXXXX..  ..XXXXXXXX..  ..XXXX",
"                                                                ",
"                                                                ",
"                    ..XXXXXXXXXX..  ..XXXXXXXXXX..  ..XXXXXXXX..",
"                    ..XXXXXXXXXX..  ..XXXXXXXXXX..  ..XXXXXXXX..",
"                    XXXXXXXXXXXXXX  XXXXXXXXXXXXoo  ooXXXXXXXXoo",
"                    XXXXXXXXXXXXXX  XXXXXXXXXXXXoo  ooXXXXXXXXoo",
"                    ..XXXXXXXXXX..  oo..........OO  OO........OO",
"                    ..XXXXXXXXXX..  oo..........OO  OO........OO",
"                                                                ",
"                                                                ",
"                        ..XXXXXXXXXXooOO    OO......OO    OO....",
"                        ..XXXXXXXXXXooOO    OO......OO    OO....",
"                        XXXXXXXXXXXXXX..                        ",
"                        XXXXXXXXXXXXXX..                        ",
"                        ..XXXXXXXXXXooOO                        ",
"                        ..XXXXXXXXXXooOO                        ",
"                                                ++@@@@@@@@@@++  ",
"                                                ++@@@@@@@@@@++  ",
"                  ..XXXXXXXXXX..  oo......OO    @@@@@@@@@@@@@@  ",
"                  ..XXXXXXXXXX..  oo......OO    @@@@@@@@@@@@@@  ",
"                  XXXXXXXXXXXXXX  XX........    @@@@@@##$$$$$$  ",
"                  XXXXXXXXXXXXXX  XX........    @@@@@@##$$$$$$  ",
"                  ..XXXXXXXXXX..  oo......OO    @@@@##$$$$$$$$  ",
"                  ..XXXXXXXXXX..  oo......OO    @@@@##$$$$$$$$  ",
"                                                @@@@$$$$$$$$$$  ",
"                                                @@@@$$$$$$$$$$  ",
"                        ..XXXXXXXXXXooOO        @@@@$$$$$$$$$$  ",
"                        ..XXXXXXXXXXooOO        @@@@$$$$$$$$$$  ",
"                        XXXXXXXXXXXXXX..        ++@@$$$$%%&&%%  ",
"                        XXXXXXXXXXXXXX..        ++@@$$$$%%&&%%  ",
"                        ..XXXXXXXXXXooOO                        ",
"                        ..XXXXXXXXXXooOO                        "
};
