/* XPM */
static char *result[] = {
/* columns rows colors chars-per-pixel */
"128 128 11 1 ",
"  c #39334D",
". c #80375B",
"X c #A2474E",
"o c #B35B55",
"O c #C45C57",
"+ c #C27968",
"@ c #D68672",
"# c #E3A787",
"$ c #F3CDA0",
"% c #FCECBF",
"& c #FEFADB",
/* pixels */
"                                                                                                                                ",
"                                                                                                                                ",
"                                                                                                                                ",
"                                                                                                                                ",
"                                                                                                                                ",
"                                                                                                                                ",
"                                                                                                                                ",
"                                                                                                                                ",
"                                                                                                                                ",
"                                                                                                                                ",
"                                                                                                                                ",
"                                                                                                                                ",
"                                                                                                                                ",
"                                                                                                                                ",
"                                                                                                                                ",
"                                                                                                                                ",
"                                                                                                                                ",
"                                                                                                                                ",
"                                                                                                                                ",
"                                                                                                                                ",
"                                                                                                                                ",
"                                                                                                                                ",
"                                                                                                                                ",
"                                                                                                                                ",
"                                                                                                                                ",
"                                                                                                                                ",
"                                                                                                                                ",
"                                                                                                                                ",
"                                                                                                                                ",
"                                                                                                                                ",
"                                                                                                                                ",
"                                                                                                                                ",
"                                                                                                                                ",
"                                                                                                                                ",
"                                                                                                                                ",
"                                                                                                                                ",
"                                    XXXX++++++++++++++++++++XXXX                                    XXXX++++++++++++++++++++XXXX",
"                                    XXXX++++++++++++++++++++XXXX                                    XXXX++++++++++++++++++++XXXX",
"                                    XXXX++++++++++++++++++++XXXX                                    XXXX++++++++++++++++++++XXXX",
"                                    XXXX++++++++++++++++++++XXXX                                    XXXX++++++++++++++++++++XXXX",
"    XXXXoooo++++++++++++ooooXXXX    ++++++++++++++++++++++++++++    XXXXoooo++++++++++++ooooXXXX    ++++++++++++++++++++++++++++",
"    XXXXoooo++++++++++++ooooXXXX    ++++++++++++++++++++++++++++    XXXXoooo++++++++++++ooooXXXX    ++++++++++++++++++++++++++++",
"    XXXXoooo++++++++++++ooooXXXX    ++++++++++++++++++++++++++++    XXXXoooo++++++++++++ooooXXXX    ++++++++++++++++++++++++++++",
"    XXXXoooo++++++++++++ooooXXXX    ++++++++++++++++++++++++++++    XXXXoooo++++++++++++ooooXXXX    ++++++++++++++++++++++++++++",
"    oooo++++++++++++++++++++oooo    XXXX++++++++++++++++++++XXXX    oooo++++++++++++++++++++oooo    XXXX++++++++++++++++++++XXXX",
"    oooo++++++++++++++++++++oooo    XXXX++++++++++++++++++++XXXX    oooo++++++++++++++++++++oooo    XXXX++++++++++++++++++++XXXX",
"    oooo++++++++++++++++++++oooo    XXXX++++++++++++++++++++XXXX    oooo++++++++++++++++++++oooo    XXXX++++++++++++++++++++XXXX",
"    oooo++++++++++++++++++++oooo    XXXX++++++++++++++++++++XXXX    oooo++++++++++++++++++++oooo    XXXX++++++++++++++++++++XXXX",
"                                                                                                                                ",
"                                                                                                                                ",
"                                                                                                                                ",
"                                                                                                                                ",
"++++++++++++XXXX    XXXX++++++++++++++++XXXX    XXXX++++++++++++++++++++++++XXXX    XXXX++++++++++++++++XXXX    XXXX++++++++++++",
"++++++++++++XXXX    XXXX++++++++++++++++XXXX    XXXX++++++++++++++++++++++++XXXX    XXXX++++++++++++++++XXXX    XXXX++++++++++++",
"++++++++++++XXXX    XXXX++++++++++++++++XXXX    XXXX++++++++++++++++++++++++XXXX    XXXX++++++++++++++++XXXX    XXXX++++++++++++",
"++++++++++++XXXX    XXXX++++++++++++++++XXXX    XXXX++++++++++++++++++++++++XXXX    XXXX++++++++++++++++XXXX    XXXX++++++++++++",
"++++++++++++++++    ++++++++++++++++++++++++    ++++++++++++++++++++++++++++++++    ++++++++++++++++++++++++    ++++++++++++++++",
"++++++++++++++++    ++++++++++++++++++++++++    ++++++++++++++++++++++++++++++++    ++++++++++++++++++++++++    ++++++++++++++++",
"++++++++++++++++    ++++++++++++++++++++++++    ++++++++++++++++++++++++++++++++    ++++++++++++++++++++++++    ++++++++++++++++",
"++++++++++++++++    ++++++++++++++++++++++++    ++++++++++++++++++++++++++++++++    ++++++++++++++++++++++++    ++++++++++++++++",
"++++++++++++XXXX    XXXX++++++++++++++++XXXX    XXXX++++++++++++++++++++++++XXXX    XXXX++++++++++++++++XXXX    XXXX++++++++++++",
"++++++++++++XXXX    XXXX++++++++++++++++XXXX    XXXX++++++++++++++++++++++++XXXX    XXXX++++++++++++++++XXXX    XXXX++++++++++++",
"++++++++++++XXXX    XXXX++++++++++++++++XXXX    XXXX++++++++++++++++++++++++XXXX    XXXX++++++++++++++++XXXX    XXXX++++++++++++",
"++++++++++++XXXX    XXXX++++++++++++++++XXXX    XXXX++++++++++++++++++++++++XXXX    XXXX++++++++++++++++XXXX    XXXX++++++++++++",
"                                                                                                                                ",
"                                                                                                                                ",
"                                                                                                                                ",
"                                                                                                                                ",
"    XXXX++++++++++++++++++++XXXX    XXXX++++++++++++++++++++XXXX    XXXX++++++++++++++++++++XXXX    XXXX++++++++++++++++++++XXXX",
"    XXXX++++++++++++++++++++XXXX    XXXX++++++++++++++++++++XXXX    XXXX++++++++++++++++++++XXXX    XXXX++++++++++++++++++++XXXX",
"    XXXX++++++++++++++++++++XXXX    XXXX++++++++++++++++++++XXXX    XXXX++++++++++++++++++++XXXX    XXXX++++++++++++++++++++XXXX",
"    XXXX++++++++++++++++++++XXXX    XXXX++++++++++++++++++++XXXX    XXXX++++++++++++++++++++XXXX    XXXX++++++++++++++++++++XXXX",
"    oooo++++++++++++++++++++oooo    oooo++++++++++++++++++++oooo    oooo++++++++++++++++++++oooo    oooo++++++++++++++++++++oooo",
"    oooo++++++++++++++++++++oooo    oooo++++++++++++++++++++oooo    oooo++++++++++++++++++++oooo    oooo++++++++++++++++++++oooo",
"    oooo++++++++++++++++++++oooo    oooo++++++++++++++++++++oooo    oooo++++++++++++++++++++oooo    oooo++++++++++++++++++++oooo",
"    oooo++++++++++++++++++++oooo    oooo++++++++++++++++++++oooo    oooo++++++++++++++++++++oooo    oooo++++++++++++++++++++oooo",
"    ....XXXXXXXXXXXXXXXXXXXX....    ....XXXXXXXXXXXXXXXXXXXX....    ....XXXXXXXXXXXXXXXXXXXX....    ....XXXXXXXXXXXXXXXXXXXX....",
"    ....XXXXXXXXXXXXXXXXXXXX....    ....XXXXXXXXXXXXXXXXXXXX....    ....XXXXXXXXXXXXXXXXXXXX....    ....XXXXXXXXXXXXXXXXXXXX....",
"    ....XXXXXXXXXXXXXXXXXXXX....    ....XXXXXXXXXXXXXXXXXXXX....    ....XXXXXXXXXXXXXXXXXXXX....    ....XXXXXXXXXXXXXXXXXXXX....",
"    ....XXXXXXXXXXXXXXXXXXXX....    ....XXXXXXXXXXXXXXXXXXXX....    ....XXXXXXXXXXXXXXXXXXXX....    ....XXXXXXXXXXXXXXXXXXXX....",
"                                                                                                                                ",
"                                                                                                                                ",
"                                                                                                                                ",
"                                                                                                                                ",
"XXXXXXXXXXXX....    ....XXXXXXXXXXXXXXXX....                                        ....XXXXXXXXXXXXXXXX....    ....XXXXXXXXXXXX",
"XXXXXXXXXXXX....    ....XXXXXXXXXXXXXXXX....                                        ....XXXXXXXXXXXXXXXX....    ....XXXXXXXXXXXX",
"XXXXXXXXXXXX....    ....XXXXXXXXXXXXXXXX....                                        ....XXXXXXXXXXXXXXXX....    ....XXXXXXXXXXXX",
"XXXXXXXXXXXX....    ....XXXXXXXXXXXXXXXX....                                        ....XXXXXXXXXXXXXXXX....    ....XXXXXXXXXXXX",
"                                                                                                                                ",
"                                                                                                                                ",
"                                                                                                                                ",
"                                                                                                                                ",
"                                                                                                                                ",
"                                                                                                                                ",
"                                                                                                                                ",
"                                                                                                                                ",
"@@@@@@@@@@@@@@@@OOOO    OOOO@@@@@@@@@@@@@@@@@@@@@@@@@@@@@@@@@@@@@@@@OOOO    OOOO@@@@@@@@@@@@@@@@@@@@@@@@@@@@@@@@@@@@@@@@@@@@@@@@",
"@@@@@@@@@@@@@@@@OOOO    OOOO@@@@@@@@@@@@@@@@@@@@@@@@@@@@@@@@@@@@@@@@OOOO    OOOO@@@@@@@@@@@@@@@@@@@@@@@@@@@@@@@@@@@@@@@@@@@@@@@@",
"@@@@@@@@@@@@@@@@OOOO    OOOO@@@@@@@@@@@@@@@@@@@@@@@@@@@@@@@@@@@@@@@@OOOO    OOOO@@@@@@@@@@@@@@@@@@@@@@@@@@@@@@@@@@@@@@@@@@@@@@@@",
"@@@@@@@@@@@@@@@@OOOO    OOOO@@@@@@@@@@@@@@@@@@@@@@@@@@@@@@@@@@@@@@@@OOOO    OOOO@@@@@@@@@@@@@@@@@@@@@@@@@@@@@@@@@@@@@@@@@@@@@@@@",
"@@@@@@@@@@@@@@@@@@@@    @@@@@@@@@@@@@@@@@@@@@@@@@@@@@@@@@@@@@@@@@@@@@@@@    @@@@@@@@@@@@@@@@@@@@@@@@@@@@@@@@@@@@@@@@@@@@@@@@@@@@",
"@@@@@@@@@@@@@@@@@@@@    @@@@@@@@@@@@@@@@@@@@@@@@@@@@@@@@@@@@@@@@@@@@@@@@    @@@@@@@@@@@@@@@@@@@@@@@@@@@@@@@@@@@@@@@@@@@@@@@@@@@@",
"@@@@@@@@@@@@@@@@@@@@    @@@@@@@@@@@@@@@@@@@@@@@@@@@@@@@@@@@@@@@@@@@@@@@@    @@@@@@@@@@@@@@@@@@@@@@@@@@@@@@@@@@@@@@@@@@@@@@@@@@@@",
"@@@@@@@@@@@@@@@@@@@@    @@@@@@@@@@@@@@@@@@@@@@@@@@@@@@@@@@@@@@@@@@@@@@@@    @@@@@@@@@@@@@@@@@@@@@@@@@@@@@@@@@@@@@@@@@@@@@@@@@@@@",
"$$$$$$$$####@@@@@@@@    @@@@@@@@####$$$$$$$$$$$$$$$$$$$$$$$$####@@@@@@@@    @@@@@@@@####$$$$$$$$$$$$$$$$$$$$$$$$$$$$$$$$$$$$$$$$",
"$$$$$$$$####@@@@@@@@    @@@@@@@@####$$$$$$$$$$$$$$$$$$$$$$$$####@@@@@@@@    @@@@@@@@####$$$$$$$$$$$$$$$$$$$$$$$$$$$$$$$$$$$$$$$$",
"$$$$$$$$####@@@@@@@@    @@@@@@@@####$$$$$$$$$$$$$$$$$$$$$$$$####@@@@@@@@    @@@@@@@@####$$$$$$$$$$$$$$$$$$$$$$$$$$$$$$$$$$$$$$$$",
"$$$$$$$$####@@@@@@@@    @@@@@@@@####$$$$$$$$$$$$$$$$$$$$$$$$####@@@@@@@@    @@@@@@@@####$$$$$$$$$$$$$$$$$$$$$$$$$$$$$$$$$$$$$$$$",
"$$$$$$$$$$$$####@@@@    @@@@####$$$$$$$$$$$$$$$$$$$$$$$$$$$$$$$$####@@@@    @@@@####$$$$$$$$$$$$$$$$$$$$$$$$$$$$$$$$$$$$$$$$$$$$",
"$$$$$$$$$$$$####@@@@    @@@@####$$$$$$$$$$$$$$$$$$$$$$$$$$$$$$$$####@@@@    @@@@####$$$$$$$$$$$$$$$$$$$$$$$$$$$$$$$$$$$$$$$$$$$$",
"$$$$$$$$$$$$####@@@@    @@@@####$$$$$$$$$$$$$$$$$$$$$$$$$$$$$$$$####@@@@    @@@@####$$$$$$$$$$$$$$$$$$$$$$$$$$$$$$$$$$$$$$$$$$$$",
"$$$$$$$$$$$$####@@@@    @@@@####$$$$$$$$$$$$$$$$$$$$$$$$$$$$$$$$####@@@@    @@@@####$$$$$$$$$$$$$$$$$$$$$$$$$$$$$$$$$$$$$$$$$$$$",
"$$$$$$$$$$$$$$$$@@@@    @@@@$$$$$$$$$$$$$$$$$$$$$$$$$$$$$$$$$$$$$$$$@@@@    @@@@$$$$$$$$$$$$$$$$$$$$$$$$$$$$$$$$$$$$$$$$$$$$$$$$",
"$$$$$$$$$$$$$$$$@@@@    @@@@$$$$$$$$$$$$$$$$$$$$$$$$$$$$$$$$$$$$$$$$@@@@    @@@@$$$$$$$$$$$$$$$$$$$$$$$$$$$$$$$$$$$$$$$$$$$$$$$$",
"$$$$$$$$$$$$$$$$@@@@    @@@@$$$$$$$$$$$$$$$$$$$$$$$$$$$$$$$$$$$$$$$$@@@@    @@@@$$$$$$$$$$$$$$$$$$$$$$$$$$$$$$$$$$$$$$$$$$$$$$$$",
"$$$$$$$$$$$$$$$$@@@@    @@@@$$$$$$$$$$$$$$$$$$$$$$$$$$$$$$$$$$$$$$$$@@@@    @@@@$$$$$$$$$$$$$$$$$$$$$$$$$$$$$$$$$$$$$$$$$$$$$$$$",
"$$$$$$$$$$$$$$$$@@@@    @@@@$$$$$$$$$$$$$$$$$$$$$$$$$$$$$$$$$$$$$$$$@@@@    @@@@$$$$$$$$$$$$$$$$$$$$$$$$$$$$$$$$$$$$$$$$$$$$$$$$",
"$$$$$$$$$$$$$$$$@@@@    @@@@$$$$$$$$$$$$$$$$$$$$$$$$$$$$$$$$$$$$$$$$@@@@    @@@@$$$$$$$$$$$$$$$$$$$$$$$$$$$$$$$$$$$$$$$$$$$$$$$$",
"$$$$$$$$$$$$$$$$@@@@    @@@@$$$$$$$$$$$$$$$$$$$$$$$$$$$$$$$$$$$$$$$$@@@@    @@@@$$$$$$$$$$$$$$$$$$$$$$$$$$$$$$$$$$$$$$$$$$$$$$$$",
"$$$$$$$$$$$$$$$$@@@@    @@@@$$$$$$$$$$$$$$$$$$$$$$$$$$$$$$$$$$$$$$$$@@@@    @@@@$$$$$$$$$$$$$$$$$$$$$$$$$$$$$$$$$$$$$$$$$$$$$$$$",
"%%%%$$$$$$$$####@@@@    @@@@####$$$$$$$$%%%%&&&&%%%%%%%%$$$$$$$$####@@@@    @@@@####$$$$$$$$%%%%&&&&&&&&%%%%$$$$$$$$%%%%&&&&%%%%",
"%%%%$$$$$$$$####@@@@    @@@@####$$$$$$$$%%%%&&&&%%%%%%%%$$$$$$$$####@@@@    @@@@####$$$$$$$$%%%%&&&&&&&&%%%%$$$$$$$$%%%%&&&&%%%%",
"%%%%$$$$$$$$####@@@@    @@@@####$$$$$$$$%%%%&&&&%%%%%%%%$$$$$$$$####@@@@    @@@@####$$$$$$$$%%%%&&&&&&&&%%%%$$$$$$$$%%%%&&&&%%%%",
"%%%%$$$$$$$$####@@@@    @@@@####$$$$$$$$%%%%&&&&%%%%%%%%$$$$$$$$####@@@@    @@@@####$$$$$$$$%%%%&&&&&&&&%%%%$$$$$$$$%%%%&&&&%%%%",
"                                                                                                                                ",
"                                                                                                                                ",
"                                                                                                                                ",
"                                                                                                                                "
};
